<svg viewBox="0 0 18 16" fill="none" xmlns="http://www.w3.org/2000/svg"><path fill-rule="evenodd" clip-rule="evenodd" d="M2 1H16C16.2652 1 16.5196 1.10536 16.7071 1.29289C16.8946 1.48043 17 1.73478 17 2C17 2.26522 16.8946 2.51957 16.7071 2.70711C16.5196 2.89464 16.2652 3 16 3H2C1.73478 3 1.48043 2.89464 1.29289 2.70711C1.10536 2.51957 1 2.26522 1 2C1 1.73478 1.10536 1.48043 1.29289 1.29289C1.48043 1.10536 1.73478 1 2 1ZM0 2C0 0.9 0.9 0 2 0H16C16.5304 0 17.0391 0.210714 17.4142 0.585786C17.7893 0.960859 18 1.46957 18 2C18 2.53043 17.7893 3.03914 17.4142 3.41421C17.0391 3.78929 16.5304 4 16 4H2C1.46957 4 0.960859 3.78929 0.585786 3.41421C0.210714 3.03914 0 2.53043 0 2ZM13 7H1V8H13V7ZM13 11H1V12H13V11ZM1 15H13V16H1V15Z" fill="currentColor"/></svg>