<svg viewBox="0 0 20.5607 20.5607" fill="none" xmlns="http://www.w3.org/2000/svg"><path d="M5.85355 16.7071C5.85355 17.1027 5.73626 17.4893 5.51649 17.8182C5.29673 18.1471 4.98437 18.4035 4.61892 18.5549C4.25347 18.7062 3.85133 18.7458 3.46337 18.6687C3.07541 18.5915 2.71904 18.401 2.43934 18.1213C2.15963 17.8416 1.96915 17.4852 1.89198 17.0973C1.81481 16.7093 1.85442 16.3072 2.00579 15.9417C2.15717 15.5763 2.41351 15.2639 2.74241 15.0442C3.07131 14.8244 3.45799 14.7071 3.85355 14.7071M5.85355 16.7071C5.85355 16.1767 5.64284 15.668 5.26777 15.2929C4.89269 14.9178 4.38399 14.7071 3.85355 14.7071M5.85355 16.7071H19.8536M3.85355 14.7071V0.707107M16.3536 20.2071L19.8536 16.7071L16.3536 13.2071M0.353553 4.20711L3.85355 0.707107L7.35355 4.20711" stroke="currentColor"/></svg>