<svg viewBox="0 0 18.002 18.002" fill="none" xmlns="http://www.w3.org/2000/svg"><path d="M13.967 0.00201894C14.5943 0.0275331 15.189 0.28813 15.633 0.732019L17.27 2.36902C17.76 2.85902 18.003 3.50102 18.002 4.14202C18.0011 4.80274 17.7386 5.43623 17.272 5.90402L16.484 6.69302L5.174 18.002H0V12.832L0.146 12.686L1.262 11.569L11.312 1.52102L12.097 0.734019C12.3412 0.489363 12.6334 0.297996 12.9553 0.172003C13.2771 0.0460109 13.6216 -0.011869 13.967 0.00201894ZM1.002 13.245V17.003H4.76L5.376 16.387L1.618 12.628L1.002 13.245ZM2.325 11.921L6.084 15.68L15.424 6.34002L11.666 2.58102L2.325 11.921ZM14.926 1.44002C14.7867 1.30063 14.6213 1.19005 14.4392 1.11461C14.2572 1.03917 14.0621 1.00034 13.865 1.00034C13.6679 1.00034 13.4728 1.03917 13.2908 1.11461C13.1087 1.19005 12.9433 1.30063 12.804 1.44002L12.371 1.87302L16.129 5.63102L16.564 5.19702C16.8448 4.91564 17.0024 4.53431 17.0022 4.13681C17.002 3.73931 16.844 3.35814 16.563 3.07702L14.926 1.44002Z" fill="currentColor"/></svg>