<svg viewBox="0 0 18 18" fill="none" xmlns="http://www.w3.org/2000/svg"><path d="M5 2H13V0H14V2H15.5C16.163 2 16.7989 2.26339 17.2678 2.73223C17.7366 3.20107 18 3.83696 18 4.5V15.5C18 16.163 17.7366 16.7989 17.2678 17.2678C16.7989 17.7366 16.163 18 15.5 18H2.5C1.83696 18 1.20107 17.7366 0.732233 17.2678C0.263392 16.7989 0 16.163 0 15.5V4.5C0 3.83696 0.263392 3.20107 0.732233 2.73223C1.20107 2.26339 1.83696 2 2.5 2H4V0H5V2ZM1 15.5C1 15.8978 1.15804 16.2794 1.43934 16.5607C1.72064 16.842 2.10218 17 2.5 17H15.5C15.8978 17 16.2794 16.842 16.5607 16.5607C16.842 16.2794 17 15.8978 17 15.5V7H1V15.5ZM2.5 3C2.10218 3 1.72064 3.15804 1.43934 3.43934C1.15804 3.72064 1 4.10218 1 4.5V6H17V4.5C17 4.10218 16.842 3.72064 16.5607 3.43934C16.2794 3.15804 15.8978 3 15.5 3H14V4H13V3H5V4H4V3H2.5Z" fill="currentColor"/></svg>