<svg viewBox="0 0 13 20" fill="none" xmlns="http://www.w3.org/2000/svg"><path fill-rule="evenodd" clip-rule="evenodd" d="M3 0H2V3H0.5C0.367392 3 0.240214 3.05268 0.146446 3.14645C0.052678 3.24021 0 3.36739 0 3.5V16.5C0 16.6326 0.052678 16.7598 0.146446 16.8536C0.240214 16.9473 0.367392 17 0.5 17H2V20H3V17H4.5C4.63261 17 4.75979 16.9473 4.85355 16.8536C4.94732 16.7598 5 16.6326 5 16.5V3.5C5 3.36739 4.94732 3.24021 4.85355 3.14645C4.75979 3.05268 4.63261 3 4.5 3H3V0ZM1 4V16H4V4H1ZM11 3H10V6H8.5C8.36739 6 8.24021 6.05268 8.14645 6.14645C8.05268 6.24021 8 6.36739 8 6.5V13.5C8 13.6326 8.05268 13.7598 8.14645 13.8536C8.24021 13.9473 8.36739 14 8.5 14H10V17H11V14H12.5C12.6326 14 12.7598 13.9473 12.8536 13.8536C12.9473 13.7598 13 13.6326 13 13.5V6.5C13 6.36739 12.9473 6.24021 12.8536 6.14645C12.7598 6.05268 12.6326 6 12.5 6H11V3ZM9 13V7H12V13H9Z" fill="currentColor"/></svg>