<svg viewBox="0 0 28 28" fill="none" xmlns="http://www.w3.org/2000/svg"><g transform="translate(3 4)"><path d="M4.83 0L0 4.95L1.08 6L5.9 1.04L4.83 0ZM17.17 0L22 4.95L20.93 6L16.1 1.04L17.17 0ZM10.5 11V6H12V12.5H7V11H10.5Z" fill="currentColor"/></g><g transform="translate(5 6)"><path fill-rule="evenodd" clip-rule="evenodd" d="M9 18C11.3869 18 13.6761 17.0518 15.364 15.364C17.0518 13.6761 18 11.3869 18 9C18 6.61305 17.0518 4.32387 15.364 2.63604C13.6761 0.948211 11.3869 0 9 0C6.61305 0 4.32387 0.948211 2.63604 2.63604C0.948211 4.32387 0 6.61305 0 9C0 11.3869 0.948211 13.6761 2.63604 15.364C4.32387 17.0518 6.61305 18 9 18ZM9 16.5C10.9891 16.5 12.8968 15.7098 14.3033 14.3033C15.7098 12.8968 16.5 10.9891 16.5 9C16.5 7.01088 15.7098 5.10322 14.3033 3.6967C12.8968 2.29018 10.9891 1.5 9 1.5C7.01088 1.5 5.10322 2.29018 3.6967 3.6967C2.29018 5.10322 1.5 7.01088 1.5 9C1.5 10.9891 2.29018 12.8968 3.6967 14.3033C5.10322 15.7098 7.01088 16.5 9 16.5Z" fill="currentColor"/></g></svg>