<svg viewBox="0 0 24.0112 16.0099" fill="none" xmlns="http://www.w3.org/2000/svg"><path d="M15.1439 12.2113C15.5948 12.5377 15.8975 13.0298 15.9856 13.5793C16.0736 14.1289 15.9397 14.691 15.6134 15.1418C15.287 15.5927 14.795 15.8954 14.2454 15.9835C13.6958 16.0715 13.1338 15.9377 12.6829 15.6113L8.00289 12.2523L3.32989 15.6093C2.87928 15.9359 2.31739 16.0702 1.76782 15.9825C1.21824 15.8948 0.726002 15.5924 0.399388 15.1418C0.0727736 14.6912 -0.0614621 14.1293 0.0262111 13.5797C0.113884 13.0302 0.416285 12.5379 0.866888 12.2113L8.00289 7.00432L15.1439 12.2113ZM1.45689 13.0193C1.3387 13.1057 1.23898 13.2148 1.16363 13.3403C1.08827 13.4658 1.03879 13.6051 1.0181 13.75C0.997409 13.8949 1.00593 14.0425 1.04316 14.1841C1.0804 14.3257 1.14558 14.4583 1.23489 14.5743C1.40887 14.8002 1.66377 14.9497 1.94583 14.9913C2.2279 15.0329 2.5151 14.9633 2.74689 14.7973L8.00289 11.0223L13.2659 14.7983C13.5025 14.9537 13.7899 15.0119 14.0683 14.9608C14.3467 14.9097 14.5946 14.7533 14.7607 14.524C14.9267 14.2948 14.9979 14.0104 14.9596 13.7299C14.9213 13.4495 14.7763 13.1946 14.5549 13.0183L8.00289 8.24132L1.45689 13.0193ZM20.6829 0.398318C21.1338 0.0721014 21.6957 -0.0616472 22.2452 0.0264949C22.7947 0.114637 23.2867 0.417449 23.6129 0.868317C23.9391 1.31919 24.0729 1.88118 23.9847 2.43066C23.8966 2.98014 23.5938 3.4721 23.1429 3.79832L16.0039 9.00432L8.86789 3.79732C8.41742 3.4707 8.11514 2.97852 8.02757 2.42904C7.93999 1.87955 8.07427 1.31779 8.40089 0.867318C8.7275 0.416847 9.21969 0.114574 9.76917 0.0269946C10.3187 -0.0605849 10.8804 0.0737035 11.3309 0.400318L16.0039 3.75632L20.6829 0.398318ZM22.7779 1.43332C22.6039 1.20744 22.349 1.05794 22.0669 1.01634C21.7849 0.974743 21.4977 1.04429 21.2659 1.21032L16.0029 4.98632L10.7469 1.21132C10.5151 1.04529 10.2279 0.975743 9.94584 1.01734C9.66377 1.05894 9.40888 1.20844 9.23489 1.43432C9.14558 1.5503 9.0804 1.68298 9.04316 1.82455C9.00593 1.96612 8.99741 2.1137 9.0181 2.25861C9.03879 2.40353 9.08827 2.54283 9.16363 2.66832C9.23898 2.79382 9.3387 2.90296 9.45689 2.98932L16.0029 7.76732L22.5549 2.98932C23.0539 2.62532 23.1549 1.92232 22.7779 1.43332Z" fill="currentColor"/></svg>