<svg preserveAspectRatio="none" width="100%" height="100%" overflow="visible" style="display: block;" viewBox="0 0 8.05774 10.668" fill="none" xmlns="http://www.w3.org/2000/svg">
<path id="Vector" d="M8.037 4.288C8.203 3.165 7.353 2.567 6.182 2.16L6.562 0.647L5.636 0.417L5.267 1.893L4.529 1.716L4.904 0.23L3.979 0L3.599 1.518L3.011 1.379V1.374L1.733 1.054L1.487 2.042C1.487 2.042 2.171 2.202 2.161 2.208C2.535 2.304 2.599 2.55 2.588 2.743L2.161 4.476L2.257 4.508L2.155 4.486L1.551 6.909C1.508 7.021 1.391 7.192 1.128 7.123C1.139 7.139 0.46 6.963 0.46 6.963L0 8.016L1.203 8.316L1.861 8.486L1.476 10.021L2.401 10.251L2.775 8.732L3.519 8.925L3.139 10.438L4.064 10.668L4.444 9.133C6.021 9.433 7.209 9.315 7.706 7.887C8.107 6.737 7.685 6.08 6.856 5.641C7.46 5.508 7.915 5.107 8.032 4.288H8.037ZM5.925 7.251C5.642 8.401 3.706 7.775 3.08 7.625L3.588 5.588C4.214 5.748 6.225 6.053 5.925 7.246V7.251ZM6.209 4.272C5.952 5.315 4.337 4.786 3.819 4.657L4.279 2.813C4.802 2.941 6.481 3.187 6.209 4.273V4.272Z" fill="var(--fill-0, white)"/>
</svg>
