<svg preserveAspectRatio="none" width="100%" height="100%" overflow="visible" style="display: block;" viewBox="0 0 307.812 320" fill="none" xmlns="http://www.w3.org/2000/svg">
<path id="Vector" d="M147.811 48C168.092 48.0002 187.993 53.5074 205.389 63.9337C222.784 74.3601 237.023 89.3143 246.584 107.2C256.145 125.086 260.67 145.233 259.676 165.49C258.682 185.746 252.206 205.353 240.939 222.217C229.673 239.081 214.039 252.569 195.706 261.242C177.373 269.915 157.029 273.448 136.845 271.462C116.661 269.476 97.3957 262.048 81.1041 249.968C64.8125 237.889 52.1066 221.613 44.3424 202.877L0 221.251C11.0915 248.017 29.2428 271.269 52.5165 288.526C75.7902 305.782 103.313 316.395 132.147 319.231C160.981 322.068 190.044 317.022 216.234 304.632C242.424 292.242 264.759 272.973 280.854 248.881C296.948 224.79 306.199 196.78 307.619 167.842C309.039 138.903 302.575 110.123 288.916 84.571C275.257 59.0195 254.917 37.6563 230.065 22.7617C205.214 7.86704 176.784 -8.5543e-05 147.811 6.97617e-10V48Z" fill="var(--fill-0, #448AFF)"/>
</svg>
