<svg xmlns="http://www.w3.org/2000/svg" viewBox="0 0 32 32"><circle cx="16" cy="16" r="16" fill="#f7931a"/><path fill="#fff" d="M21.93 14.36c.27-1.77-1.08-2.73-2.93-3.36l.6-2.4-1.46-.37-.58 2.34c-.39-.1-.78-.19-1.18-.27l.59-2.35-1.46-.37-.6 2.4c-.32-.07-.63-.15-.93-.22v-.01l-2.01-.5-.39 1.56s1.08.25 1.06.27c.59.15.7.54.68.85l-.68 2.74c.04.01.1.03.16.05l-.16-.04-.96 3.84c-.07.18-.26.45-.67.35.02.02-1.06-.27-1.06-.27l-.72 1.67 1.9.47c.35.09.69.18 1.03.27l-.61 2.43 1.46.37.6-2.4c.4.11.79.21 1.17.3l-.6 2.39 1.46.37.61-2.43c2.49.47 4.36.28 5.15-1.97.64-1.81-.03-2.86-1.34-3.54.95-.22 1.67-.85 1.86-2.14zm-3.32 4.68c-.45 1.81-3.5.83-4.49.59l.81-3.21c.99.25 4.16.74 3.68 2.62zm.46-4.7c-.41 1.65-2.95.81-3.78.6l.73-2.91c.83.21 3.48.6 3.05 2.31z"/></svg>