<svg preserveAspectRatio="none" width="100%" height="100%" overflow="visible" style="display: block;" viewBox="0 0 21.002 19.001" fill="none" xmlns="http://www.w3.org/2000/svg">
<path id="Vector" d="M18.37 13L16.75 14.75H21.002V16.25H16.808L18.466 17.956L17.39 19.001L13.999 15.513L17.269 12L18.37 13ZM18.204 0.0100002C18.6966 0.0605094 19.153 0.291969 19.4847 0.65958C19.8165 1.02719 20.0001 1.50481 20 2V10H18.5V2C18.5 1.86739 18.4473 1.74021 18.3536 1.64645C18.2598 1.55268 18.1326 1.5 18 1.5H2C1.86739 1.5 1.74021 1.55268 1.64645 1.64645C1.55268 1.74021 1.5 1.86739 1.5 2V16C1.5 16.1326 1.55268 16.2598 1.64645 16.3536C1.74021 16.4473 1.86739 16.5 2 16.5H12V18H2C1.50481 18.0001 1.02719 17.8165 0.65958 17.4847C0.291969 17.153 0.0605094 16.6966 0.0100002 16.204L0 16V2C0 1.46957 0.210714 0.960859 0.585786 0.585786C0.960859 0.210714 1.46957 0 2 0H18L18.204 0.0100002ZM12 11.805L11.11 13L7.998 10.831L4.888 13.001L4 11.803L7.999 8.994L12 11.805ZM16 6.192L12 9L8 6.19L8.9 5L12 7.174L15.1 5L16 6.192Z" fill="var(--fill-0, #DBDBDB)"/>
</svg>
