<svg preserveAspectRatio="none" width="100%" height="100%" overflow="visible" style="display: block;" viewBox="0 0 17 17.56" fill="none" xmlns="http://www.w3.org/2000/svg">
<path id="Vector" d="M1.5 15.81C1.5 15.948 1.612 16.06 1.75 16.06H15.25C15.3163 16.06 15.3799 16.0337 15.4268 15.9868C15.4737 15.9399 15.5 15.8763 15.5 15.81V11.56H17V15.81C17 16.2741 16.8156 16.7192 16.4874 17.0474C16.1592 17.3756 15.7141 17.56 15.25 17.56H1.75C1.28587 17.56 0.840752 17.3756 0.512563 17.0474C0.184375 16.7192 0 16.2741 0 15.81V11.56H1.5V15.81ZM13.03 4.53L11.97 5.59L9.25 2.87V13.56H7.75V2.87L5.03 5.59L3.97 4.53L8.5 0L13.03 4.53Z" fill="var(--fill-0, #DBDBDB)"/>
</svg>
