<svg preserveAspectRatio="none" width="100%" height="100%" overflow="visible" style="display: block;" viewBox="0 0 23.9962 26.998" fill="none" xmlns="http://www.w3.org/2000/svg">
<path id="Vector" d="M12.0025 1.4057e-05C12.9434 -0.0024824 13.8549 0.327613 14.5761 0.931996C15.2972 1.53638 15.7815 2.37616 15.9435 3.30301C17.7422 4.07431 19.2751 5.35646 20.3521 6.99057C21.4291 8.62468 22.003 10.5389 22.0025 12.496V19.05C22.6082 19.1755 23.1459 19.5209 23.5118 20.0196C23.8776 20.5184 24.0457 21.135 23.9836 21.7504C23.9214 22.3658 23.6334 22.9363 23.1752 23.3518C22.717 23.7673 22.121 23.9982 21.5025 24H15.8765C15.6541 24.8583 15.1529 25.6183 14.4518 26.1609C13.7506 26.7035 12.8891 26.998 12.0025 26.998C11.1159 26.998 10.2544 26.7035 9.55326 26.1609C8.85209 25.6183 8.35096 24.8583 8.12852 24H2.50252C1.88254 24.0006 1.28445 23.7709 0.824352 23.3553C0.364252 22.9398 0.0749695 22.3681 0.0126627 21.7513C-0.0496441 21.1344 0.11947 20.5164 0.487175 20.0173C0.85488 19.5181 1.39494 19.1734 2.00252 19.05V12.496C2.00252 8.37301 4.49852 4.83201 8.06152 3.30301C8.22352 2.37616 8.70786 1.53638 9.42898 0.931996C10.1501 0.327613 11.0616 -0.0024824 12.0025 1.4057e-05ZM9.17252 24C9.37912 24.5855 9.76226 25.0926 10.2691 25.4512C10.776 25.8099 11.3816 26.0025 12.0025 26.0025C12.6234 26.0025 13.2291 25.8099 13.7359 25.4512C14.2428 25.0926 14.6259 24.5855 14.8325 24H9.17252ZM2.50252 20C2.10469 20 1.72316 20.158 1.44186 20.4394C1.16055 20.7207 1.00252 21.1022 1.00252 21.5C1.00252 21.8978 1.16055 22.2794 1.44186 22.5607C1.72316 22.842 2.10469 23 2.50252 23H21.5025C21.9003 23 22.2819 22.842 22.5632 22.5607C22.8445 22.2794 23.0025 21.8978 23.0025 21.5C23.0025 21.1022 22.8445 20.7207 22.5632 20.4394C22.2819 20.158 21.9003 20 21.5025 20H2.50252ZM12.0025 0.987015C11.2959 0.98693 10.612 1.23625 10.0712 1.69103C9.53047 2.14582 9.16758 2.77688 9.04652 3.47301L8.95252 4.00001L8.45452 4.22201C6.83583 4.91637 5.45646 6.07042 4.48734 7.54116C3.51823 9.01191 3.00196 10.7347 3.00252 12.496V19H21.0025V12.496C21.003 10.7346 20.4866 9.01172 19.5173 7.54096C18.548 6.07021 17.1684 4.91622 15.5495 4.22201L15.0515 4.00001L14.9585 3.47301C14.8375 2.77688 14.4746 2.14582 13.9338 1.69103C13.393 1.23625 12.7091 0.98693 12.0025 0.987015Z" fill="var(--fill-0, #DBDBDB)"/>
</svg>
