<svg preserveAspectRatio="none" width="100%" height="100%" overflow="visible" style="display: block;" viewBox="0 0 19.9931 15.9962" fill="none" xmlns="http://www.w3.org/2000/svg">
<path id="Vector" d="M10.3798 0.177373C10.3314 0.12015 10.2709 0.0745168 10.2025 0.0438445C10.1342 0.0131722 10.0599 -0.00175564 9.98498 0.0001643C9.9101 0.00208424 9.83661 0.0208027 9.76994 0.0549367C9.70327 0.0890707 9.64512 0.137748 9.59978 0.197373L0.099782 12.6974C0.0352925 12.7835 0.000299605 12.8881 1.91521e-06 12.9957C-0.000295774 13.1033 0.0341173 13.2081 0.0981293 13.2946C0.162141 13.381 0.252338 13.4446 0.355323 13.4757C0.458308 13.5068 0.568587 13.5039 0.669782 13.4674L7.51978 11.0674L13.2398 15.8774C13.4098 16.0174 13.6398 16.0374 13.8298 15.9174L19.7598 12.1674C19.8198 12.1296 19.871 12.0794 19.9101 12.0203C19.9492 11.9612 19.9753 11.8944 19.9867 11.8244C19.998 11.7545 19.9944 11.6829 19.9759 11.6144C19.9575 11.546 19.9247 11.4822 19.8798 11.4274L10.3798 0.177373ZM1.90978 11.9774L9.99978 1.29737L18.7298 11.6274L13.5898 14.8774L7.93978 10.1174C7.87308 10.0574 7.79146 10.0164 7.70349 9.99885C7.61551 9.98125 7.52443 9.98765 7.43978 10.0174L1.90978 11.9774Z" fill="var(--fill-0, #DBDBDB)"/>
</svg>
