<svg preserveAspectRatio="none" width="100%" height="100%" overflow="visible" style="display: block;" viewBox="0 0 25.918 16.999" fill="none" xmlns="http://www.w3.org/2000/svg">
<g id="Group">
<path id="Vector" d="M0 16.998L0.859 16.144L1.08 15.916C1.26 15.726 1.46 15.507 1.677 15.261C2.296 14.557 2.915 13.783 3.492 12.963C4.474 11.567 5.23 10.187 5.669 8.882C6.903 5.215 11.626 4.166 14.592 7.619C17.843 11.404 14.555 16.999 9.213 16.999H0.00199997L0 16.998ZM9.211 15.998C13.755 15.998 16.483 11.356 13.832 8.27C11.382 5.417 7.607 6.255 6.616 9.201C6.142 10.609 5.343 12.07 4.309 13.538C3.71 14.39 3.068 15.191 2.427 15.921L2.359 15.999H9.212L9.211 15.998Z" fill="var(--fill-0, #DBDBDB)"/>
<path id="Vector_2" d="M16.393 0L14.974 1.286C13.943 2.221 13.899 3.787 14.878 4.766L16.755 6.643C17.731 7.619 19.308 7.597 20.268 6.598L25.918 0.724L25.197 0.0310001L19.547 5.905C18.973 6.501 18.04 6.514 17.461 5.936L15.584 4.059C15.01 3.485 15.036 2.579 15.645 2.027L17.064 0.741L16.393 0Z" fill="var(--fill-0, #DBDBDB)"/>
</g>
</svg>
