<svg preserveAspectRatio="none" width="100%" height="100%" overflow="visible" style="display: block;" viewBox="0 0 18 17.84" fill="none" xmlns="http://www.w3.org/2000/svg">
<path id="Vector" d="M3.03082e-06 7.35C-0.000349851 5.62102 0.596678 3.94502 1.69004 2.60565C2.78341 1.26627 4.30596 0.345796 6 0V1.02C4.79119 1.30647 3.68978 1.93334 2.82621 2.82639C1.96263 3.71944 1.37306 4.84125 1.12731 6.059C0.881565 7.27674 0.989928 8.53941 1.43957 9.69748C1.88922 10.8555 2.66131 11.8605 3.66442 12.5933C4.66753 13.3262 5.85964 13.7562 7.09959 13.8326C8.33954 13.9089 9.57538 13.6282 10.6608 13.0239C11.7462 12.4196 12.6357 11.5169 13.2239 10.4227C13.8122 9.32854 14.0746 8.08869 13.98 6.85H14.98L15 7.35C15.0046 9.16685 14.3469 10.9231 13.15 12.29L18 17.14L17.29 17.84L12.44 13C11.3553 13.9495 10.02 14.5663 8.59379 14.7766C7.16763 14.9868 5.71109 14.7816 4.39855 14.1854C3.086 13.5893 1.97307 12.6275 1.19298 11.4153C0.412895 10.203 -0.00129269 8.79158 3.03082e-06 7.35Z" fill="var(--fill-0, #DBDBDB)"/>
</svg>
