<svg preserveAspectRatio="none" width="100%" height="100%" overflow="visible" style="display: block;" viewBox="0 0 5 8" fill="none" xmlns="http://www.w3.org/2000/svg">
<path id="Vector" d="M1 1V7H4V1H1ZM0.5 0H4.5C4.63261 0 4.75979 0.052678 4.85355 0.146446C4.94732 0.240214 5 0.367392 5 0.5V7.5C5 7.63261 4.94732 7.75979 4.85355 7.85355C4.75979 7.94732 4.63261 8 4.5 8H0.5C0.367392 8 0.240214 7.94732 0.146446 7.85355C0.052678 7.75979 0 7.63261 0 7.5V0.5C0 0.367392 0.052678 0.240214 0.146446 0.146446C0.240214 0.052678 0.367392 0 0.5 0Z" fill="var(--fill-0, #DBDBDB)"/>
</svg>
