<svg preserveAspectRatio="none" width="100%" height="100%" overflow="visible" style="display: block;" viewBox="0 0 22 22" fill="none" xmlns="http://www.w3.org/2000/svg">
<g id="Group">
<path id="Vector" d="M4.354 18.354L18.354 4.354L17.647 3.647L3.647 17.647L4.354 18.354Z" fill="var(--fill-0, #DBDBDB)"/>
<path id="Vector_2" d="M19.5 4C20.328 4 21 3.328 21 2.5C21 1.672 20.328 1 19.5 1C18.672 1 18 1.672 18 2.5C18 3.328 18.672 4 19.5 4ZM19.5 5C18.119 5 17 3.881 17 2.5C17 1.119 18.119 0 19.5 0C20.881 0 22 1.119 22 2.5C22 3.881 20.881 5 19.5 5ZM2.5 21C3.328 21 4 20.328 4 19.5C4 18.672 3.328 18 2.5 18C1.672 18 1 18.672 1 19.5C1 20.328 1.672 21 2.5 21ZM2.5 22C1.119 22 0 20.881 0 19.5C0 18.119 1.119 17 2.5 17C3.881 17 5 18.119 5 19.5C5 20.881 3.881 22 2.5 22Z" fill="var(--fill-0, #DBDBDB)"/>
</g>
</svg>
