<svg preserveAspectRatio="none" width="100%" height="100%" overflow="visible" style="display: block;" viewBox="0 0 18 20" fill="none" xmlns="http://www.w3.org/2000/svg">
<path id="Vector" d="M13 3H18V4H15.99L14.66 18.64C14.625 19.0131 14.4517 19.3596 14.1741 19.6113C13.8965 19.863 13.5347 20.0016 13.16 20H4.84C4.46701 19.9991 4.10771 19.8593 3.83222 19.6079C3.55673 19.3564 3.38481 19.0114 3.35 18.64L2.01 4H0V3H5V2C5 0.9 5.9 0 7 0H11C11.5304 0 12.0391 0.210714 12.4142 0.585786C12.7893 0.960859 13 1.46957 13 2V3ZM7 1C6.73478 1 6.48043 1.10536 6.29289 1.29289C6.10536 1.48043 6 1.73478 6 2V3H12V2C12 1.73478 11.8946 1.48043 11.7071 1.29289C11.5196 1.10536 11.2652 1 11 1H7ZM3.02 4L4.34 18.54C4.35008 18.6656 4.40717 18.7827 4.49987 18.868C4.59257 18.9533 4.71404 19.0004 4.84 19H13.17C13.296 19.0004 13.4174 18.9533 13.5101 18.868C13.6028 18.7827 13.6599 18.6656 13.67 18.54L14.99 4H3.02Z" fill="var(--fill-0, #DBDBDB)"/>
</svg>
