<svg preserveAspectRatio="none" width="100%" height="100%" overflow="visible" style="display: block;" viewBox="0 0 16 23.257" fill="none" xmlns="http://www.w3.org/2000/svg">
<path id="Vector" d="M8 1C6.14348 1 4.36301 1.7375 3.05025 3.05025C1.7375 4.36301 1 6.14348 1 8V11H5V8C5 7.60603 5.0776 7.21593 5.22836 6.85195C5.37913 6.48797 5.6001 6.15726 5.87868 5.87868C6.15726 5.6001 6.48797 5.37913 6.85195 5.22836C7.21593 5.0776 7.60603 5 8 5C8.39397 5 8.78407 5.0776 9.14805 5.22836C9.51203 5.37913 9.84274 5.6001 10.1213 5.87868C10.3999 6.15726 10.6209 6.48797 10.7716 6.85195C10.9224 7.21593 11 7.60603 11 8V11H15V8C15 6.14348 14.2625 4.36301 12.9497 3.05025C11.637 1.7375 9.85652 1 8 1ZM15 12H11V15H15V12ZM5 12H1V15H5V12ZM0 8C0 5.87827 0.842854 3.84344 2.34315 2.34315C3.84344 0.842855 5.87827 0 8 0C10.1217 0 12.1566 0.842855 13.6569 2.34315C15.1571 3.84344 16 5.87827 16 8V16H10V8C10 7.46957 9.78929 6.96086 9.41421 6.58579C9.03914 6.21071 8.53043 6 8 6C7.46957 6 6.96086 6.21071 6.58579 6.58579C6.21071 6.96086 6 7.46957 6 8V16H0V8ZM3.293 19.294L2.071 17.257L2.929 16.743L4.706 19.706L2.706 20.706L3.929 22.743L3.071 23.257L1.293 20.294L3.293 19.294ZM13.071 16.743L13.929 17.257L12.706 19.294L14.706 20.294L12.929 23.257L12.071 22.743L13.294 20.706L11.294 19.706L13.071 16.743Z" fill="var(--fill-0, #DBDBDB)"/>
</svg>
