<svg preserveAspectRatio="none" width="100%" height="100%" overflow="visible" style="display: block;" viewBox="0 0 9.30497 9.17633" fill="none" xmlns="http://www.w3.org/2000/svg">
<path id="Vector" d="M1.29981 0.053104C1.30806 0.0371075 1.32055 0.0236899 1.33591 0.0143226C1.35128 0.00495534 1.36893 0 1.38692 0C1.40492 0 1.42257 0.00495534 1.43793 0.0143226C1.4533 0.0236899 1.46579 0.0371075 1.47403 0.053104L1.76803 0.826215C1.77892 0.869771 1.82248 0.891548 1.85515 0.891548L2.6827 0.935104C2.76981 0.935104 2.80248 1.04399 2.73715 1.10933L2.08381 1.6211C2.06959 1.63492 2.0599 1.65273 2.05601 1.67217C2.05212 1.69161 2.05422 1.71177 2.06203 1.72999L2.27981 2.51399C2.28644 2.53388 2.28652 2.55536 2.28004 2.57529C2.27356 2.59523 2.26086 2.61256 2.24381 2.62474C2.22675 2.63692 2.20624 2.64332 2.18528 2.64298C2.16432 2.64265 2.14403 2.6356 2.12737 2.62288L1.44137 2.17644C1.42525 2.16567 1.40631 2.15992 1.38692 2.15992C1.36754 2.15992 1.34859 2.16567 1.33248 2.17644L0.646479 2.62288C0.629821 2.6356 0.609523 2.64265 0.588566 2.64298C0.567609 2.64332 0.547096 2.63692 0.530041 2.62474C0.512985 2.61256 0.500284 2.59523 0.493804 2.57529C0.487323 2.55536 0.487404 2.53388 0.494035 2.51399L0.711812 1.7191C0.718363 1.69981 0.718736 1.67895 0.712882 1.65944C0.707027 1.63992 0.695235 1.62272 0.679146 1.61022L0.0367013 1.10933C0.0213203 1.097 0.0100157 1.08031 0.00426401 1.06146C-0.00148769 1.0426 -0.00141911 1.02245 0.00446093 1.00363C0.010341 0.984817 0.021759 0.968211 0.0372236 0.955986C0.0526882 0.94376 0.0714805 0.936483 0.0911457 0.935104L0.918701 0.891548C0.951368 0.891548 0.994924 0.869771 1.00581 0.826215L1.29981 0.0639929V0.053104ZM1.29981 3.31977C1.30806 3.30377 1.32055 3.29036 1.33591 3.28099C1.35128 3.27162 1.36893 3.26667 1.38692 3.26667C1.40492 3.26667 1.42257 3.27162 1.43793 3.28099C1.4533 3.29036 1.46579 3.30377 1.47403 3.31977L1.76803 4.09288C1.77892 4.13644 1.82248 4.15821 1.85515 4.15821L2.6827 4.20177C2.76981 4.20177 2.80248 4.31066 2.73715 4.37599L2.08381 4.88777C2.06959 4.90159 2.0599 4.91939 2.05601 4.93883C2.05212 4.95827 2.05422 4.97844 2.06203 4.99666L2.27981 5.78066C2.28644 5.80054 2.28652 5.82203 2.28004 5.84196C2.27356 5.86189 2.26086 5.87922 2.24381 5.89141C2.22675 5.90359 2.20624 5.90998 2.18528 5.90965C2.16432 5.90931 2.14403 5.90227 2.12737 5.88955L1.44137 5.4431C1.42525 5.43234 1.40631 5.42659 1.38692 5.42659C1.36754 5.42659 1.34859 5.43234 1.33248 5.4431L0.646479 5.88955C0.629821 5.90227 0.609523 5.90931 0.588566 5.90965C0.567609 5.90998 0.547096 5.90359 0.530041 5.89141C0.512985 5.87922 0.500284 5.86189 0.493804 5.84196C0.487323 5.82203 0.487404 5.80054 0.494035 5.78066L0.711812 4.98577C0.718363 4.96648 0.718736 4.94562 0.712882 4.92611C0.707027 4.90659 0.695235 4.88938 0.679146 4.87688L0.0367013 4.37599C0.0213203 4.36366 0.0100157 4.34698 0.00426401 4.32812C-0.00148769 4.30927 -0.00141911 4.28912 0.00446093 4.2703C0.010341 4.25148 0.021759 4.23488 0.0372236 4.22265C0.0526882 4.21043 0.0714805 4.20315 0.0911457 4.20177L0.918701 4.15821C0.951368 4.15821 0.994924 4.13644 1.00581 4.09288L1.29981 3.33066V3.31977ZM1.29981 6.58644C1.30806 6.57044 1.32055 6.55702 1.33591 6.54766C1.35128 6.53829 1.36893 6.53333 1.38692 6.53333C1.40492 6.53333 1.42257 6.53829 1.43793 6.54766C1.4533 6.55702 1.46579 6.57044 1.47403 6.58644L1.76803 7.35955C1.77892 7.4031 1.82248 7.42488 1.85515 7.42488L2.6827 7.46844C2.76981 7.46844 2.80248 7.57733 2.73715 7.64266L2.08381 8.15444C2.06959 8.16825 2.0599 8.18606 2.05601 8.2055C2.05212 8.22494 2.05422 8.2451 2.06203 8.26333L2.27981 9.04733C2.28644 9.06721 2.28652 9.0887 2.28004 9.10863C2.27356 9.12856 2.26086 9.14589 2.24381 9.15807C2.22675 9.17026 2.20624 9.17665 2.18528 9.17631C2.16432 9.17598 2.14403 9.16894 2.12737 9.15621L1.44137 8.70977C1.42525 8.699 1.40631 8.69326 1.38692 8.69326C1.36754 8.69326 1.34859 8.699 1.33248 8.70977L0.646479 9.15621C0.629821 9.16894 0.609523 9.17598 0.588566 9.17631C0.567609 9.17665 0.547096 9.17026 0.530041 9.15807C0.512985 9.14589 0.500284 9.12856 0.493804 9.10863C0.487323 9.0887 0.487404 9.06721 0.494035 9.04733L0.711812 8.25244C0.718363 8.23314 0.718736 8.21229 0.712882 8.19277C0.707027 8.17326 0.695235 8.15605 0.679146 8.14355L0.0367013 7.64266C0.0213203 7.63033 0.0100157 7.61365 0.00426401 7.59479C-0.00148769 7.57593 -0.00141911 7.55578 0.00446093 7.53697C0.010341 7.51815 0.021759 7.50154 0.0372236 7.48932C0.0526882 7.47709 0.0714805 7.46982 0.0911457 7.46844L0.918701 7.42488C0.951368 7.42488 0.994924 7.4031 1.00581 7.35955L1.29981 6.59733V6.58644ZM4.56648 0.053104C4.57472 0.0371075 4.58721 0.0236899 4.60258 0.0143226C4.61795 0.00495534 4.63559 0 4.65359 0C4.67159 0 4.68923 0.00495534 4.7046 0.0143226C4.71997 0.0236899 4.73246 0.0371075 4.7407 0.053104L5.0347 0.826215C5.04559 0.869771 5.08915 0.891548 5.12181 0.891548L5.94937 0.935104C6.03648 0.935104 6.06915 1.04399 6.00381 1.10933L5.35048 1.6211C5.33626 1.63492 5.32657 1.65273 5.32268 1.67217C5.31879 1.69161 5.32089 1.71177 5.3287 1.72999L5.54648 2.51399C5.55311 2.53388 5.55319 2.55536 5.54671 2.57529C5.54023 2.59523 5.52753 2.61256 5.51047 2.62474C5.49342 2.63692 5.47291 2.64332 5.45195 2.64298C5.43099 2.64265 5.41069 2.6356 5.39403 2.62288L4.70804 2.17644C4.69192 2.16567 4.67297 2.15992 4.65359 2.15992C4.63421 2.15992 4.61526 2.16567 4.59915 2.17644L3.91315 2.62288C3.89649 2.6356 3.87619 2.64265 3.85523 2.64298C3.83428 2.64332 3.81376 2.63692 3.79671 2.62474C3.77965 2.61256 3.76695 2.59523 3.76047 2.57529C3.75399 2.55536 3.75407 2.53388 3.7607 2.51399L3.97848 1.7191C3.98503 1.69981 3.9854 1.67895 3.97955 1.65944C3.97369 1.63992 3.9619 1.62272 3.94581 1.61022L3.30337 1.10933C3.28799 1.097 3.27668 1.08031 3.27093 1.06146C3.26518 1.0426 3.26525 1.02245 3.27113 1.00363C3.27701 0.984817 3.28843 0.968211 3.30389 0.955986C3.31936 0.94376 3.33815 0.936483 3.35781 0.935104L4.18537 0.891548C4.21803 0.891548 4.26159 0.869771 4.27248 0.826215L4.56648 0.0639929V0.053104ZM4.56648 3.31977C4.57472 3.30377 4.58721 3.29036 4.60258 3.28099C4.61795 3.27162 4.63559 3.26667 4.65359 3.26667C4.67159 3.26667 4.68923 3.27162 4.7046 3.28099C4.71997 3.29036 4.73246 3.30377 4.7407 3.31977L5.0347 4.09288C5.04559 4.13644 5.08915 4.15821 5.12181 4.15821L5.94937 4.20177C6.03648 4.20177 6.06915 4.31066 6.00381 4.37599L5.35048 4.88777C5.33626 4.90159 5.32657 4.91939 5.32268 4.93883C5.31879 4.95827 5.32089 4.97844 5.3287 4.99666L5.54648 5.78066C5.55311 5.80054 5.55319 5.82203 5.54671 5.84196C5.54023 5.86189 5.52753 5.87922 5.51047 5.89141C5.49342 5.90359 5.47291 5.90998 5.45195 5.90965C5.43099 5.90931 5.41069 5.90227 5.39403 5.88955L4.70804 5.4431C4.69192 5.43234 4.67297 5.42659 4.65359 5.42659C4.63421 5.42659 4.61526 5.43234 4.59915 5.4431L3.91315 5.88955C3.89649 5.90227 3.87619 5.90931 3.85523 5.90965C3.83428 5.90998 3.81376 5.90359 3.79671 5.89141C3.77965 5.87922 3.76695 5.86189 3.76047 5.84196C3.75399 5.82203 3.75407 5.80054 3.7607 5.78066L3.97848 4.98577C3.98503 4.96648 3.9854 4.94562 3.97955 4.92611C3.97369 4.90659 3.9619 4.88938 3.94581 4.87688L3.30337 4.37599C3.28799 4.36366 3.27668 4.34698 3.27093 4.32812C3.26518 4.30927 3.26525 4.28912 3.27113 4.2703C3.27701 4.25148 3.28843 4.23488 3.30389 4.22265C3.31936 4.21043 3.33815 4.20315 3.35781 4.20177L4.18537 4.15821C4.21803 4.15821 4.26159 4.13644 4.27248 4.09288L4.56648 3.33066V3.31977ZM4.56648 6.58644C4.57472 6.57044 4.58721 6.55702 4.60258 6.54766C4.61795 6.53829 4.63559 6.53333 4.65359 6.53333C4.67159 6.53333 4.68923 6.53829 4.7046 6.54766C4.71997 6.55702 4.73246 6.57044 4.7407 6.58644L5.0347 7.35955C5.04559 7.4031 5.08915 7.42488 5.12181 7.42488L5.94937 7.46844C6.03648 7.46844 6.06915 7.57733 6.00381 7.64266L5.35048 8.15444C5.33626 8.16825 5.32657 8.18606 5.32268 8.2055C5.31879 8.22494 5.32089 8.2451 5.3287 8.26333L5.54648 9.04733C5.55311 9.06721 5.55319 9.0887 5.54671 9.10863C5.54023 9.12856 5.52753 9.14589 5.51047 9.15807C5.49342 9.17026 5.47291 9.17665 5.45195 9.17631C5.43099 9.17598 5.41069 9.16894 5.39403 9.15621L4.70804 8.70977C4.69192 8.699 4.67297 8.69326 4.65359 8.69326C4.63421 8.69326 4.61526 8.699 4.59915 8.70977L3.91315 9.15621C3.89649 9.16894 3.87619 9.17598 3.85523 9.17631C3.83428 9.17665 3.81376 9.17026 3.79671 9.15807C3.77965 9.14589 3.76695 9.12856 3.76047 9.10863C3.75399 9.0887 3.75407 9.06721 3.7607 9.04733L3.97848 8.25244C3.98503 8.23314 3.9854 8.21229 3.97955 8.19277C3.97369 8.17326 3.9619 8.15605 3.94581 8.14355L3.30337 7.64266C3.28799 7.63033 3.27668 7.61365 3.27093 7.59479C3.26518 7.57593 3.26525 7.55578 3.27113 7.53697C3.27701 7.51815 3.28843 7.50154 3.30389 7.48932C3.31936 7.47709 3.33815 7.46982 3.35781 7.46844L4.18537 7.42488C4.21803 7.42488 4.26159 7.4031 4.27248 7.35955L4.56648 6.59733V6.58644ZM7.83315 0.053104C7.84139 0.0371075 7.85388 0.0236899 7.86925 0.0143226C7.88461 0.00495534 7.90226 0 7.92026 0C7.93825 0 7.9559 0.00495534 7.97127 0.0143226C7.98663 0.0236899 7.99912 0.0371075 8.00737 0.053104L8.30137 0.826215C8.31226 0.869771 8.35581 0.891548 8.38848 0.891548L9.21603 0.935104C9.30315 0.935104 9.33581 1.04399 9.27048 1.10933L8.61715 1.6211C8.60293 1.63492 8.59323 1.65273 8.58935 1.67217C8.58546 1.69161 8.58756 1.71177 8.59537 1.72999L8.81315 2.51399C8.81978 2.53388 8.81986 2.55536 8.81338 2.57529C8.8069 2.59523 8.7942 2.61256 8.77714 2.62474C8.76008 2.63692 8.73957 2.64332 8.71861 2.64298C8.69766 2.64265 8.67736 2.6356 8.6607 2.62288L7.9747 2.17644C7.95859 2.16567 7.93964 2.15992 7.92026 2.15992C7.90088 2.15992 7.88193 2.16567 7.86581 2.17644L7.17981 2.62288C7.16315 2.6356 7.14286 2.64265 7.1219 2.64298C7.10094 2.64332 7.08043 2.63692 7.06337 2.62474C7.04632 2.61256 7.03362 2.59523 7.02714 2.57529C7.02066 2.55536 7.02074 2.53388 7.02737 2.51399L7.24515 1.7191C7.2517 1.69981 7.25207 1.67895 7.24622 1.65944C7.24036 1.63992 7.22857 1.62272 7.21248 1.61022L6.57004 1.10933C6.55465 1.097 6.54335 1.08031 6.5376 1.06146C6.53185 1.0426 6.53191 1.02245 6.53779 1.00363C6.54367 0.984817 6.55509 0.968211 6.57056 0.955986C6.58602 0.94376 6.60481 0.936483 6.62448 0.935104L7.45203 0.891548C7.4847 0.891548 7.52826 0.869771 7.53915 0.826215L7.83315 0.0639929V0.053104ZM7.83315 3.31977C7.84139 3.30377 7.85388 3.29036 7.86925 3.28099C7.88461 3.27162 7.90226 3.26667 7.92026 3.26667C7.93825 3.26667 7.9559 3.27162 7.97127 3.28099C7.98663 3.29036 7.99912 3.30377 8.00737 3.31977L8.30137 4.09288C8.31226 4.13644 8.35581 4.15821 8.38848 4.15821L9.21603 4.20177C9.30315 4.20177 9.33581 4.31066 9.27048 4.37599L8.61715 4.88777C8.60293 4.90159 8.59323 4.91939 8.58935 4.93883C8.58546 4.95827 8.58756 4.97844 8.59537 4.99666L8.81315 5.78066C8.81978 5.80054 8.81986 5.82203 8.81338 5.84196C8.8069 5.86189 8.7942 5.87922 8.77714 5.89141C8.76008 5.90359 8.73957 5.90998 8.71861 5.90965C8.69766 5.90931 8.67736 5.90227 8.6607 5.88955L7.9747 5.4431C7.95859 5.43234 7.93964 5.42659 7.92026 5.42659C7.90088 5.42659 7.88193 5.43234 7.86581 5.4431L7.17981 5.88955C7.16315 5.90227 7.14286 5.90931 7.1219 5.90965C7.10094 5.90998 7.08043 5.90359 7.06337 5.89141C7.04632 5.87922 7.03362 5.86189 7.02714 5.84196C7.02066 5.82203 7.02074 5.80054 7.02737 5.78066L7.24515 4.98577C7.2517 4.96648 7.25207 4.94562 7.24622 4.92611C7.24036 4.90659 7.22857 4.88938 7.21248 4.87688L6.57004 4.37599C6.55465 4.36366 6.54335 4.34698 6.5376 4.32812C6.53185 4.30927 6.53191 4.28912 6.53779 4.2703C6.54367 4.25148 6.55509 4.23488 6.57056 4.22265C6.58602 4.21043 6.60481 4.20315 6.62448 4.20177L7.45203 4.15821C7.4847 4.15821 7.52826 4.13644 7.53915 4.09288L7.83315 3.33066V3.31977ZM7.83315 6.58644C7.84139 6.57044 7.85388 6.55702 7.86925 6.54766C7.88461 6.53829 7.90226 6.53333 7.92026 6.53333C7.93825 6.53333 7.9559 6.53829 7.97127 6.54766C7.98663 6.55702 7.99912 6.57044 8.00737 6.58644L8.30137 7.35955C8.31226 7.4031 8.35581 7.42488 8.38848 7.42488L9.21603 7.46844C9.30315 7.46844 9.33581 7.57733 9.27048 7.64266L8.61715 8.15444C8.60293 8.16825 8.59323 8.18606 8.58935 8.2055C8.58546 8.22494 8.58756 8.2451 8.59537 8.26333L8.81315 9.04733C8.81978 9.06721 8.81986 9.0887 8.81338 9.10863C8.8069 9.12856 8.7942 9.14589 8.77714 9.15807C8.76008 9.17026 8.73957 9.17665 8.71861 9.17631C8.69766 9.17598 8.67736 9.16894 8.6607 9.15621L7.9747 8.70977C7.95859 8.699 7.93964 8.69326 7.92026 8.69326C7.90088 8.69326 7.88193 8.699 7.86581 8.70977L7.17981 9.15621C7.16315 9.16894 7.14286 9.17598 7.1219 9.17631C7.10094 9.17665 7.08043 9.17026 7.06337 9.15807C7.04632 9.14589 7.03362 9.12856 7.02714 9.10863C7.02066 9.0887 7.02074 9.06721 7.02737 9.04733L7.24515 8.25244C7.2517 8.23314 7.25207 8.21229 7.24622 8.19277C7.24036 8.17326 7.22857 8.15605 7.21248 8.14355L6.57004 7.64266C6.55465 7.63033 6.54335 7.61365 6.5376 7.59479C6.53185 7.57593 6.53191 7.55578 6.53779 7.53697C6.54367 7.51815 6.55509 7.50154 6.57056 7.48932C6.58602 7.47709 6.60481 7.46982 6.62448 7.46844L7.45203 7.42488C7.4847 7.42488 7.52826 7.4031 7.53915 7.35955L7.83315 6.59733V6.58644Z" fill="var(--fill-0, #F8F9FD)"/>
</svg>
