<svg preserveAspectRatio="none" width="100%" height="100%" overflow="visible" style="display: block;" viewBox="0 0 27 8.5" fill="none" xmlns="http://www.w3.org/2000/svg">
<path id="Vector" d="M1.5 0C1.10218 0 0.720644 0.158035 0.43934 0.43934C0.158035 0.720644 0 1.10218 0 1.5V7C0 7.39782 0.158035 7.77935 0.43934 8.06066C0.720644 8.34196 1.10218 8.5 1.5 8.5H25.5C25.8978 8.5 26.2794 8.34196 26.5607 8.06066C26.842 7.77935 27 7.39782 27 7V1.5C27 1.10218 26.842 0.720644 26.5607 0.43934C26.2794 0.158035 25.8978 0 25.5 0H1.5ZM1.5 1H4.5V3.5H5.5V1H8.75V4.9H9.75V1H13V3.5H14V1H17.25V4.9H18.25V1H21.5V3.5H22.5V1H25.5C25.6326 1 25.7598 1.05268 25.8536 1.14645C25.9473 1.24021 26 1.36739 26 1.5V7C26 7.13261 25.9473 7.25979 25.8536 7.35355C25.7598 7.44732 25.6326 7.5 25.5 7.5H1.5C1.36739 7.5 1.24021 7.44732 1.14645 7.35355C1.05268 7.25979 1 7.13261 1 7V1.5C1 1.36739 1.05268 1.24021 1.14645 1.14645C1.24021 1.05268 1.36739 1 1.5 1Z" fill="var(--fill-0, #DBDBDB)"/>
</svg>
