<svg preserveAspectRatio="none" width="100%" height="100%" overflow="visible" style="display: block;" viewBox="0 0 16 16" fill="none" xmlns="http://www.w3.org/2000/svg">
<path id="Vector" fill-rule="evenodd" clip-rule="evenodd" d="M2 1H5C5.26522 1 5.51957 1.10536 5.70711 1.29289C5.89464 1.48043 6 1.73478 6 2V5C6 5.26522 5.89464 5.51957 5.70711 5.70711C5.51957 5.89464 5.26522 6 5 6H2C1.73478 6 1.48043 5.89464 1.29289 5.70711C1.10536 5.51957 1 5.26522 1 5V2C1 1.73478 1.10536 1.48043 1.29289 1.29289C1.48043 1.10536 1.73478 1 2 1ZM0 2C0 0.9 0.9 0 2 0H5C5.53043 0 6.03914 0.210714 6.41421 0.585786C6.78929 0.960859 7 1.46957 7 2V5C7 5.53043 6.78929 6.03914 6.41421 6.41421C6.03914 6.78929 5.53043 7 5 7H2C1.46957 7 0.960859 6.78929 0.585786 6.41421C0.210714 6.03914 0 5.53043 0 5V2ZM11 1H14C14.2652 1 14.5196 1.10536 14.7071 1.29289C14.8946 1.48043 15 1.73478 15 2V5C15 5.26522 14.8946 5.51957 14.7071 5.70711C14.5196 5.89464 14.2652 6 14 6H11C10.7348 6 10.4804 5.89464 10.2929 5.70711C10.1054 5.51957 10 5.26522 10 5V2C10 1.73478 10.1054 1.48043 10.2929 1.29289C10.4804 1.10536 10.7348 1 11 1ZM9 2C9 0.9 9.9 0 11 0H14C14.5304 0 15.0391 0.210714 15.4142 0.585786C15.7893 0.960859 16 1.46957 16 2V5C16 5.53043 15.7893 6.03914 15.4142 6.41421C15.0391 6.78929 14.5304 7 14 7H11C10.4696 7 9.96086 6.78929 9.58579 6.41421C9.21071 6.03914 9 5.53043 9 5V2ZM5 10H2C1.73478 10 1.48043 10.1054 1.29289 10.2929C1.10536 10.4804 1 10.7348 1 11V14C1 14.2652 1.10536 14.5196 1.29289 14.7071C1.48043 14.8946 1.73478 15 2 15H5C5.26522 15 5.51957 14.8946 5.70711 14.7071C5.89464 14.5196 6 14.2652 6 14V11C6 10.7348 5.89464 10.4804 5.70711 10.2929C5.51957 10.1054 5.26522 10 5 10ZM2 9C1.46957 9 0.960859 9.21071 0.585786 9.58579C0.210714 9.96086 0 10.4696 0 11V14C0 15.1 0.9 16 2 16H5C5.53043 16 6.03914 15.7893 6.41421 15.4142C6.78929 15.0391 7 14.5304 7 14V11C7 10.4696 6.78929 9.96086 6.41421 9.58579C6.03914 9.21071 5.53043 9 5 9H2ZM11 10H14C14.2652 10 14.5196 10.1054 14.7071 10.2929C14.8946 10.4804 15 10.7348 15 11V14C15 14.2652 14.8946 14.5196 14.7071 14.7071C14.5196 14.8946 14.2652 15 14 15H11C10.7348 15 10.4804 14.8946 10.2929 14.7071C10.1054 14.5196 10 14.2652 10 14V11C10 10.7348 10.1054 10.4804 10.2929 10.2929C10.4804 10.1054 10.7348 10 11 10ZM9 11C9 9.9 9.9 9 11 9H14C14.5304 9 15.0391 9.21071 15.4142 9.58579C15.7893 9.96086 16 10.4696 16 11V14C16 14.5304 15.7893 15.0391 15.4142 15.4142C15.0391 15.7893 14.5304 16 14 16H11C10.4696 16 9.96086 15.7893 9.58579 15.4142C9.21071 15.0391 9 14.5304 9 14V11Z" fill="var(--fill-0, #DBDBDB)"/>
</svg>
