<svg preserveAspectRatio="none" width="100%" height="100%" overflow="visible" style="display: block;" viewBox="0 0 17 11" fill="none" xmlns="http://www.w3.org/2000/svg">
<path id="Vector" fill-rule="evenodd" clip-rule="evenodd" d="M13 0C12.7348 0 12.4804 0.105357 12.2929 0.292893C12.1054 0.48043 12 0.734784 12 1V5H9V4C9 3.73478 8.89464 3.48043 8.70711 3.29289C8.51957 3.10536 8.26522 3 8 3H5C4.73478 3 4.48043 3.10536 4.29289 3.29289C4.10536 3.48043 4 3.73478 4 4V6H1C0.734784 6 0.48043 6.10536 0.292893 6.29289C0.105357 6.48043 0 6.73478 0 7V11H17V1C17 0.734784 16.8946 0.48043 16.7071 0.292893C16.5196 0.105357 16.2652 0 16 0H13ZM13 10H16V1H13V10ZM12 10V6H9V10H12ZM8 5.5V10H5V4H8V5.5ZM4 10V7H1V10H4Z" fill="var(--fill-0, #DBDBDB)"/>
</svg>
