<svg preserveAspectRatio="none" width="100%" height="100%" overflow="visible" style="display: block;" viewBox="0 0 21 21.1745" fill="none" xmlns="http://www.w3.org/2000/svg">
<path id="Vector" d="M14.27 0.734469C14.0378 0.501653 13.7619 0.316939 13.4582 0.190907C13.1544 0.0648743 12.8288 0 12.5 0C12.1712 0 11.8456 0.0648743 11.5418 0.190907C11.2381 0.316939 10.9622 0.501653 10.73 0.734469L10.15 1.32447L1.15 10.3245L0.15 11.3245L0 11.4645V16.1745H4.7L4.85 16.0245L5.85 15.0245L14.85 6.02447L15.44 5.44447C15.6728 5.21224 15.8575 4.93636 15.9836 4.63264C16.1096 4.32891 16.1745 4.00331 16.1745 3.67447C16.1745 3.34563 16.1096 3.02003 15.9836 2.7163C15.8575 2.41258 15.6728 2.1367 15.44 1.90447L14.27 0.734469ZM11.44 1.43447C11.7213 1.15357 12.1025 0.995789 12.5 0.995789C12.8975 0.995789 13.2787 1.15357 13.56 1.43447L14.73 2.61447C15.0109 2.89572 15.1687 3.27697 15.1687 3.67447C15.1687 4.07197 15.0109 4.45322 14.73 4.73447L14.5 4.96447L11.2 1.67447L11.44 1.44447V1.43447ZM10.5 2.38447L13.8 5.67447L5.5 13.9745L2.2 10.6745L10.5 2.37447V2.38447ZM1.5 11.3845L4.8 14.6745L4.3 15.1745H1V11.8745L1.5 11.3745V11.3845ZM18 11.6745C18 11.2766 17.842 10.8951 17.5607 10.6138C17.2794 10.3325 16.8978 10.1745 16.5 10.1745C16.1022 10.1745 15.7206 10.3325 15.4393 10.6138C15.158 10.8951 15 11.2766 15 11.6745V14.1745H19.5C20.33 14.1745 21 14.8445 21 15.6745V19.6745C21 20.5045 20.33 21.1745 19.5 21.1745H13.5C13.1022 21.1745 12.7206 21.0164 12.4393 20.7351C12.158 20.4538 12 20.0723 12 19.6745V15.6745C12 14.8445 12.67 14.1745 13.5 14.1745H14V11.6745C14 11.0114 14.2634 10.3755 14.7322 9.9067C15.2011 9.43786 15.837 9.17447 16.5 9.17447C17.163 9.17447 17.7989 9.43786 18.2678 9.9067C18.7366 10.3755 19 11.0114 19 11.6745V12.1745H18V11.6745ZM13.5 15.1745C13.3674 15.1745 13.2402 15.2271 13.1464 15.3209C13.0527 15.4147 13 15.5419 13 15.6745V19.6745C13 19.9545 13.22 20.1745 13.5 20.1745H19.5C19.6326 20.1745 19.7598 20.1218 19.8536 20.028C19.9473 19.9343 20 19.8071 20 19.6745V15.6745C20 15.5419 19.9473 15.4147 19.8536 15.3209C19.7598 15.2271 19.6326 15.1745 19.5 15.1745H13.5ZM16 19.1745V17.1745H17V19.1745H16Z" fill="var(--fill-0, #DBDBDB)"/>
</svg>
