<svg preserveAspectRatio="none" width="100%" height="100%" overflow="visible" style="display: block;" viewBox="0 0 19.9998 19.9998" fill="none" xmlns="http://www.w3.org/2000/svg">
<path id="Vector" fill-rule="evenodd" clip-rule="evenodd" d="M13.4098 14.4698C11.7916 15.8153 9.71705 16.4854 7.61751 16.3406C5.51797 16.1959 3.55498 15.2476 2.13668 13.6928C0.718372 12.138 -0.0461183 10.0963 0.0021545 7.99237C0.0504273 5.88841 0.907748 3.88399 2.39587 2.39587C3.88399 0.907748 5.88841 0.0504273 7.99237 0.0021545C10.0963 -0.0461183 12.138 0.718372 13.6928 2.13668C15.2476 3.55498 16.1959 5.51797 16.3406 7.61751C16.4854 9.71705 15.8153 11.7916 14.4698 13.4098L19.9998 18.9398L18.9398 19.9998L13.4098 14.4698ZM14.8598 8.1798C14.8598 9.95145 14.156 11.6505 12.9033 12.9033C11.6505 14.156 9.95145 14.8598 8.1798 14.8598C6.40816 14.8598 4.70907 14.156 3.45633 12.9033C2.20359 11.6505 1.4998 9.95145 1.4998 8.1798C1.4998 6.40816 2.20359 4.70907 3.45633 3.45633C4.70907 2.20359 6.40816 1.4998 8.1798 1.4998C9.95145 1.4998 11.6505 2.20359 12.9033 3.45633C14.156 4.70907 14.8598 6.40816 14.8598 8.1798Z" fill="var(--fill-0, #B8B8B8)"/>
</svg>
