<svg preserveAspectRatio="none" width="100%" height="100%" overflow="visible" style="display: block;" viewBox="0 0 7.0036 11.5261" fill="none" xmlns="http://www.w3.org/2000/svg">
<path id="Vector" d="M5.99188 5.63L6.00188 5.25C6.00188 2.35 4.88188 0 3.50188 0C2.17188 0 1.08688 2.18 1.00688 4.93L4.60688 6.665L5.99188 5.63ZM0.531885 5.78C0.47263 5.75117 0.406751 5.73869 0.341056 5.74384C0.275362 5.749 0.212236 5.7716 0.158204 5.80932C0.104171 5.84704 0.0611929 5.89851 0.0337114 5.9584C0.00622996 6.01829 -0.00475751 6.08444 0.00188445 6.15L0.236885 8.525C0.311241 9.34249 0.687607 10.1029 1.2925 10.6578C1.8974 11.2127 2.68739 11.5223 3.50825 11.526C4.32911 11.5298 5.1219 11.2275 5.73183 10.6781C6.34177 10.1287 6.72507 9.37178 6.80688 8.555L7.00188 6.755C7.00841 6.69069 6.9962 6.62586 6.96671 6.56834C6.93722 6.51081 6.89172 6.46305 6.83569 6.43081C6.77966 6.39857 6.7155 6.38322 6.65095 6.38663C6.5864 6.39003 6.52421 6.41204 6.47188 6.45L4.94188 7.575C4.86929 7.62857 4.78356 7.6615 4.69378 7.6703C4.60399 7.67911 4.5135 7.66345 4.43188 7.625L0.531885 5.78Z" fill="var(--fill-0, white)"/>
</svg>
