<?xml version="1.0" encoding="UTF-8"?><svg xmlns="http://www.w3.org/2000/svg" style="display:none"><symbol id="i-003249ef-dfd9-4fed-903d-b5c019506afe" viewBox="0 0 1 14"><path id="Vector" d="M0 0H1V3.5H0V0ZM0 10.5H1V14H0V10.5Z" fill="var(--fill-0, #DBDBDB)"/></symbol><symbol id="i-005c2830-bcf8-4a09-a38b-96cbff8922b8" viewBox="0 0 21 18"><path id="Vector" fill-rule="evenodd" clip-rule="evenodd" d="M5 0H16L21 9L16 18H5L0 9L5 0ZM1.14 9L5.6 1H15.42L19.87 9L15.42 17H5.6L1.15 9H1.14Z" fill="var(--fill-0, #DBDBDB)"/></symbol><symbol id="i-073d1bfd-3828-4fa2-b2c4-34759029fea4" viewBox="0 0 5 14"><path id="Vector" d="M1 1V13H4V1H1ZM0.5 0H4.5C4.63261 0 4.75979 0.0526785 4.85355 0.146447C4.94732 0.240215 5 0.367392 5 0.5V13.5C5 13.6326 4.94732 13.7598 4.85355 13.8536C4.75979 13.9473 4.63261 14 4.5 14H0.5C0.367392 14 0.240214 13.9473 0.146446 13.8536C0.052678 13.7598 0 13.6326 0 13.5V0.5C0 0.367392 0.052678 0.240215 0.146446 0.146447C0.240214 0.0526785 0.367392 0 0.5 0Z" fill="var(--fill-0, #DBDBDB)"/></symbol><symbol id="i-0bdf5c47-2897-4d0d-8885-bfa43884b052" viewBox="0 0 15.8485 15.8485"><g id="Vector">
<path d="M0.424264 0.424264L15.4243 15.4243ZM15.4243 0.424264L0.424264 15.4243Z" fill="black"/>
<path d="M0.424264 0.424264L15.4243 15.4243M15.4243 0.424264L0.424264 15.4243" stroke="var(--stroke-0, #DBDBDB)" stroke-width="1.2"/>
</g></symbol><symbol id="i-0f364e35-212d-427a-a724-5bc77df78e6e" viewBox="0 0 17 11"><path id="Vector" fill-rule="evenodd" clip-rule="evenodd" d="M13 0C12.7348 0 12.4804 0.105357 12.2929 0.292893C12.1054 0.48043 12 0.734784 12 1V5H9V4C9 3.73478 8.89464 3.48043 8.70711 3.29289C8.51957 3.10536 8.26522 3 8 3H5C4.73478 3 4.48043 3.10536 4.29289 3.29289C4.10536 3.48043 4 3.73478 4 4V6H1C0.734784 6 0.48043 6.10536 0.292893 6.29289C0.105357 6.48043 0 6.73478 0 7V11H17V1C17 0.734784 16.8946 0.48043 16.7071 0.292893C16.5196 0.105357 16.2652 0 16 0H13ZM13 10H16V1H13V10ZM12 10V6H9V10H12ZM8 5.5V10H5V4H8V5.5ZM4 10V7H1V10H4Z" fill="var(--fill-0, #DBDBDB)"/></symbol><symbol id="i-0f3cee29-0e15-43e8-8497-bef1fdbf420e" viewBox="0 0 23.9962 26.998"><path id="Vector" d="M12.0025 1.4057e-05C12.9434 -0.0024824 13.8549 0.327613 14.5761 0.931996C15.2972 1.53638 15.7815 2.37616 15.9435 3.30301C17.7422 4.07431 19.2751 5.35646 20.3521 6.99057C21.4291 8.62468 22.003 10.5389 22.0025 12.496V19.05C22.6082 19.1755 23.1459 19.5209 23.5118 20.0196C23.8776 20.5184 24.0457 21.135 23.9836 21.7504C23.9214 22.3658 23.6334 22.9363 23.1752 23.3518C22.717 23.7673 22.121 23.9982 21.5025 24H15.8765C15.6541 24.8583 15.1529 25.6183 14.4518 26.1609C13.7506 26.7035 12.8891 26.998 12.0025 26.998C11.1159 26.998 10.2544 26.7035 9.55326 26.1609C8.85209 25.6183 8.35096 24.8583 8.12852 24H2.50252C1.88254 24.0006 1.28445 23.7709 0.824352 23.3553C0.364252 22.9398 0.0749695 22.3681 0.0126627 21.7513C-0.0496441 21.1344 0.11947 20.5164 0.487175 20.0173C0.85488 19.5181 1.39494 19.1734 2.00252 19.05V12.496C2.00252 8.37301 4.49852 4.83201 8.06152 3.30301C8.22352 2.37616 8.70786 1.53638 9.42898 0.931996C10.1501 0.327613 11.0616 -0.0024824 12.0025 1.4057e-05ZM9.17252 24C9.37912 24.5855 9.76226 25.0926 10.2691 25.4512C10.776 25.8099 11.3816 26.0025 12.0025 26.0025C12.6234 26.0025 13.2291 25.8099 13.7359 25.4512C14.2428 25.0926 14.6259 24.5855 14.8325 24H9.17252ZM2.50252 20C2.10469 20 1.72316 20.158 1.44186 20.4394C1.16055 20.7207 1.00252 21.1022 1.00252 21.5C1.00252 21.8978 1.16055 22.2794 1.44186 22.5607C1.72316 22.842 2.10469 23 2.50252 23H21.5025C21.9003 23 22.2819 22.842 22.5632 22.5607C22.8445 22.2794 23.0025 21.8978 23.0025 21.5C23.0025 21.1022 22.8445 20.7207 22.5632 20.4394C22.2819 20.158 21.9003 20 21.5025 20H2.50252ZM12.0025 0.987015C11.2959 0.98693 10.612 1.23625 10.0712 1.69103C9.53047 2.14582 9.16758 2.77688 9.04652 3.47301L8.95252 4.00001L8.45452 4.22201C6.83583 4.91637 5.45646 6.07042 4.48734 7.54116C3.51823 9.01191 3.00196 10.7347 3.00252 12.496V19H21.0025V12.496C21.003 10.7346 20.4866 9.01172 19.5173 7.54096C18.548 6.07021 17.1684 4.91622 15.5495 4.22201L15.0515 4.00001L14.9585 3.47301C14.8375 2.77688 14.4746 2.14582 13.9338 1.69103C13.393 1.23625 12.7091 0.98693 12.0025 0.987015Z" fill="var(--fill-0, #DBDBDB)"/></symbol><symbol id="i-0f514d53-06e7-409a-a1cf-1723c0ae61ba" viewBox="0 0 4 4"><path id="Vector" d="M0 0H4V4H0V0Z" fill="var(--fill-0, #FDB92C)"/></symbol><symbol id="i-120be4c8-6665-431f-8e18-229d4689de8e" viewBox="0 0 23 23"><g id="Group">
<path id="Vector" d="M15 12H23V11H15V12Z" fill="var(--fill-0, #DBDBDB)"/>
<path id="Vector_2" d="M11 15V23H12V15H11ZM11 0V8H12V0H11ZM0 12H8V11H0V12Z" fill="var(--fill-0, #DBDBDB)"/>
</g></symbol><symbol id="i-12f56ee2-509f-4e13-aa81-00c7392f5f3e" viewBox="0 0 13.208 10.354"><path id="Vector" d="M1.915 4.354L4.562 7L3.855 7.708L0 3.854L3.853 0L4.561 0.708L1.915 3.354H7.708C8.43027 3.354 9.14547 3.49626 9.81276 3.77266C10.4801 4.04906 11.0864 4.45419 11.5971 4.96491C12.1078 5.47563 12.5129 6.08195 12.7893 6.74924C13.0657 7.41653 13.208 8.13173 13.208 8.854V10.354H12.208V8.854C12.208 8.26305 12.0916 7.67789 11.8655 7.13192C11.6393 6.58596 11.3078 6.08988 10.89 5.67202C10.4721 5.25416 9.97604 4.92269 9.43007 4.69654C8.88411 4.4704 8.29895 4.354 7.708 4.354H1.915Z" fill="var(--fill-0, #DBDBDB)"/></symbol><symbol id="i-14232036-b678-4f98-8955-861e2f53aa7a" viewBox="0 0 16 16"><path id="Vector" fill-rule="evenodd" clip-rule="evenodd" d="M2 1H5C5.26522 1 5.51957 1.10536 5.70711 1.29289C5.89464 1.48043 6 1.73478 6 2V5C6 5.26522 5.89464 5.51957 5.70711 5.70711C5.51957 5.89464 5.26522 6 5 6H2C1.73478 6 1.48043 5.89464 1.29289 5.70711C1.10536 5.51957 1 5.26522 1 5V2C1 1.73478 1.10536 1.48043 1.29289 1.29289C1.48043 1.10536 1.73478 1 2 1ZM0 2C0 0.9 0.9 0 2 0H5C5.53043 0 6.03914 0.210714 6.41421 0.585786C6.78929 0.960859 7 1.46957 7 2V5C7 5.53043 6.78929 6.03914 6.41421 6.41421C6.03914 6.78929 5.53043 7 5 7H2C1.46957 7 0.960859 6.78929 0.585786 6.41421C0.210714 6.03914 0 5.53043 0 5V2ZM11 1H14C14.2652 1 14.5196 1.10536 14.7071 1.29289C14.8946 1.48043 15 1.73478 15 2V5C15 5.26522 14.8946 5.51957 14.7071 5.70711C14.5196 5.89464 14.2652 6 14 6H11C10.7348 6 10.4804 5.89464 10.2929 5.70711C10.1054 5.51957 10 5.26522 10 5V2C10 1.73478 10.1054 1.48043 10.2929 1.29289C10.4804 1.10536 10.7348 1 11 1ZM9 2C9 0.9 9.9 0 11 0H14C14.5304 0 15.0391 0.210714 15.4142 0.585786C15.7893 0.960859 16 1.46957 16 2V5C16 5.53043 15.7893 6.03914 15.4142 6.41421C15.0391 6.78929 14.5304 7 14 7H11C10.4696 7 9.96086 6.78929 9.58579 6.41421C9.21071 6.03914 9 5.53043 9 5V2ZM5 10H2C1.73478 10 1.48043 10.1054 1.29289 10.2929C1.10536 10.4804 1 10.7348 1 11V14C1 14.2652 1.10536 14.5196 1.29289 14.7071C1.48043 14.8946 1.73478 15 2 15H5C5.26522 15 5.51957 14.8946 5.70711 14.7071C5.89464 14.5196 6 14.2652 6 14V11C6 10.7348 5.89464 10.4804 5.70711 10.2929C5.51957 10.1054 5.26522 10 5 10ZM2 9C1.46957 9 0.960859 9.21071 0.585786 9.58579C0.210714 9.96086 0 10.4696 0 11V14C0 15.1 0.9 16 2 16H5C5.53043 16 6.03914 15.7893 6.41421 15.4142C6.78929 15.0391 7 14.5304 7 14V11C7 10.4696 6.78929 9.96086 6.41421 9.58579C6.03914 9.21071 5.53043 9 5 9H2ZM11 10H14C14.2652 10 14.5196 10.1054 14.7071 10.2929C14.8946 10.4804 15 10.7348 15 11V14C15 14.2652 14.8946 14.5196 14.7071 14.7071C14.5196 14.8946 14.2652 15 14 15H11C10.7348 15 10.4804 14.8946 10.2929 14.7071C10.1054 14.5196 10 14.2652 10 14V11C10 10.7348 10.1054 10.4804 10.2929 10.2929C10.4804 10.1054 10.7348 10 11 10ZM9 11C9 9.9 9.9 9 11 9H14C14.5304 9 15.0391 9.21071 15.4142 9.58579C15.7893 9.96086 16 10.4696 16 11V14C16 14.5304 15.7893 15.0391 15.4142 15.4142C15.0391 15.7893 14.5304 16 14 16H11C10.4696 16 9.96086 15.7893 9.58579 15.4142C9.21071 15.0391 9 14.5304 9 14V11Z" fill="var(--fill-0, #DBDBDB)"/></symbol><symbol id="i-14c41e6b-f524-43fb-9c5b-5692b06b5f53" viewBox="0 0 26 21"><g id="Group">
<path id="Vector" d="M2 1H24V0H2V1Z" fill="var(--fill-0, #DBDBDB)"/>
<path id="Vector_2" d="M2 13H24V12H2V13Z" fill="var(--fill-0, #DBDBDB)"/>
<path id="Vector_3" d="M2 7H21.5V6H2V7Z" fill="var(--fill-0, #DBDBDB)"/>
<path id="Vector_4" d="M4.5 19H24V18H4.5V19Z" fill="var(--fill-0, #DBDBDB)"/>
<path id="Vector_5" d="M2.5 20C3.328 20 4 19.328 4 18.5C4 17.672 3.328 17 2.5 17C1.672 17 1 17.672 1 18.5C1 19.328 1.672 20 2.5 20ZM2.5 21C1.119 21 0 19.881 0 18.5C0 17.119 1.119 16 2.5 16C3.881 16 5 17.119 5 18.5C5 19.881 3.881 21 2.5 21ZM23.5 8C24.328 8 25 7.328 25 6.5C25 5.672 24.328 5 23.5 5C22.672 5 22 5.672 22 6.5C22 7.328 22.672 8 23.5 8ZM23.5 9C22.119 9 21 7.881 21 6.5C21 5.119 22.119 4 23.5 4C24.881 4 26 5.119 26 6.5C26 7.881 24.881 9 23.5 9Z" fill="var(--fill-0, #DBDBDB)"/>
</g></symbol><symbol id="i-16adbd36-2820-4d36-a220-3f88ee560665" viewBox="0 0 10.16 5.6"><path id="Vector" d="M0 1.14L5.08 5.6L10.16 1.14L9.16 0.00999975L5.08 3.6L0.99 0L0 1.14Z" fill="var(--fill-0, #DBDBDB)"/></symbol><symbol id="i-193ae61e-c533-427c-8bb2-931a7c93b5dc" viewBox="0 0 1 20"><path id="Vector" d="M0 0H1V3.5H0V0ZM0 16.5H1V20H0V16.5Z" fill="var(--fill-0, #DBDBDB)"/></symbol><symbol id="i-1a0ccc65-a5b7-4a79-9d3a-9cb6aedfb1e3" viewBox="0 0 13.207 10.354"><path id="Vector" d="M11.293 4.354L8.646 7L9.353 7.708L13.207 3.854L9.353 0L8.646 0.708L11.293 3.354H5.5C4.04131 3.354 2.64236 3.93346 1.61091 4.96491C0.579462 5.99636 0 7.39531 0 8.854V10.354H1V8.854C1 7.66053 1.47411 6.51593 2.31802 5.67202C3.16193 4.82811 4.30653 4.354 5.5 4.354H11.293Z" fill="var(--fill-0, #DBDBDB)"/></symbol><symbol id="i-1eac26b9-7d83-447f-a908-1e8bd50fe62c" viewBox="0 0 7.11111 6.22222"><path id="Vector" d="M5.33333 4.44444L7.11111 3.55556L6.22222 3.11111V2.22222L4.44444 3.11111L5.33333 1.77778H4.44444L3.55556 0L2.66667 1.77778H1.77778L2.66667 3.11111L0.888889 2.22222V3.11111L0 3.55556L1.77778 4.44444L1.33333 5.33333H3.11111V6.22222H4V5.33333H5.77778L5.33333 4.44444Z" fill="var(--fill-0, #EF5350)"/></symbol><symbol id="i-1f054f3f-98e8-4cbf-9897-438cf2c7422a" viewBox="0 0 16 4"><path id="Vector" fill-rule="evenodd" clip-rule="evenodd" d="M2 3C2.26522 3 2.51957 2.89464 2.70711 2.70711C2.89464 2.51957 3 2.26522 3 2C3 1.73478 2.89464 1.48043 2.70711 1.29289C2.51957 1.10536 2.26522 1 2 1C1.73478 1 1.48043 1.10536 1.29289 1.29289C1.10536 1.48043 1 1.73478 1 2C1 2.26522 1.10536 2.51957 1.29289 2.70711C1.48043 2.89464 1.73478 3 2 3ZM2 4C2.53043 4 3.03914 3.78929 3.41421 3.41421C3.78929 3.03914 4 2.53043 4 2C4 1.46957 3.78929 0.960859 3.41421 0.585786C3.03914 0.210714 2.53043 0 2 0C1.46957 0 0.960859 0.210714 0.585786 0.585786C0.210714 0.960859 0 1.46957 0 2C0 2.53043 0.210714 3.03914 0.585786 3.41421C0.960859 3.78929 1.46957 4 2 4ZM8 3C8.26522 3 8.51957 2.89464 8.70711 2.70711C8.89464 2.51957 9 2.26522 9 2C9 1.73478 8.89464 1.48043 8.70711 1.29289C8.51957 1.10536 8.26522 1 8 1C7.73478 1 7.48043 1.10536 7.29289 1.29289C7.10536 1.48043 7 1.73478 7 2C7 2.26522 7.10536 2.51957 7.29289 2.70711C7.48043 2.89464 7.73478 3 8 3ZM8 4C8.53043 4 9.03914 3.78929 9.41421 3.41421C9.78929 3.03914 10 2.53043 10 2C10 1.46957 9.78929 0.960859 9.41421 0.585786C9.03914 0.210714 8.53043 0 8 0C7.46957 0 6.96086 0.210714 6.58579 0.585786C6.21071 0.960859 6 1.46957 6 2C6 2.53043 6.21071 3.03914 6.58579 3.41421C6.96086 3.78929 7.46957 4 8 4ZM15 2C15 2.26522 14.8946 2.51957 14.7071 2.70711C14.5196 2.89464 14.2652 3 14 3C13.7348 3 13.4804 2.89464 13.2929 2.70711C13.1054 2.51957 13 2.26522 13 2C13 1.73478 13.1054 1.48043 13.2929 1.29289C13.4804 1.10536 13.7348 1 14 1C14.2652 1 14.5196 1.10536 14.7071 1.29289C14.8946 1.48043 15 1.73478 15 2ZM16 2C16 2.53043 15.7893 3.03914 15.4142 3.41421C15.0391 3.78929 14.5304 4 14 4C13.4696 4 12.9609 3.78929 12.5858 3.41421C12.2107 3.03914 12 2.53043 12 2C12 1.46957 12.2107 0.960859 12.5858 0.585786C12.9609 0.210714 13.4696 0 14 0C14.5304 0 15.0391 0.210714 15.4142 0.585786C15.7893 0.960859 16 1.46957 16 2Z" fill="var(--fill-0, #DBDBDB)"/></symbol><symbol id="i-208d5a0f-a1a3-428f-a833-57a8a04ccb5a" viewBox="0 0 19.9931 15.9962"><path id="Vector" d="M10.3798 0.177373C10.3314 0.12015 10.2709 0.0745168 10.2025 0.0438445C10.1342 0.0131722 10.0599 -0.00175564 9.98498 0.0001643C9.9101 0.00208424 9.83661 0.0208027 9.76994 0.0549367C9.70327 0.0890707 9.64512 0.137748 9.59978 0.197373L0.099782 12.6974C0.0352925 12.7835 0.000299605 12.8881 1.91521e-06 12.9957C-0.000295774 13.1033 0.0341173 13.2081 0.0981293 13.2946C0.162141 13.381 0.252338 13.4446 0.355323 13.4757C0.458308 13.5068 0.568587 13.5039 0.669782 13.4674L7.51978 11.0674L13.2398 15.8774C13.4098 16.0174 13.6398 16.0374 13.8298 15.9174L19.7598 12.1674C19.8198 12.1296 19.871 12.0794 19.9101 12.0203C19.9492 11.9612 19.9753 11.8944 19.9867 11.8244C19.998 11.7545 19.9944 11.6829 19.9759 11.6144C19.9575 11.546 19.9247 11.4822 19.8798 11.4274L10.3798 0.177373ZM1.90978 11.9774L9.99978 1.29737L18.7298 11.6274L13.5898 14.8774L7.93978 10.1174C7.87308 10.0574 7.79146 10.0164 7.70349 9.99885C7.61551 9.98125 7.52443 9.98765 7.43978 10.0174L1.90978 11.9774Z" fill="var(--fill-0, #DBDBDB)"/></symbol><symbol id="i-209e4bef-bb17-4f21-b017-ce3309d6ee9b" viewBox="0 0 16 19"><path id="Vector" fill-rule="evenodd" clip-rule="evenodd" d="M8 1C7.20435 1 6.44129 1.31607 5.87868 1.87868C5.31607 2.44129 5 3.20435 5 4V7H13.5C14.163 7 14.7989 7.26339 15.2678 7.73223C15.7366 8.20107 16 8.83696 16 9.5V16.5C16 16.8283 15.9353 17.1534 15.8097 17.4567C15.6841 17.76 15.4999 18.0356 15.2678 18.2678C15.0356 18.4999 14.76 18.6841 14.4567 18.8097C14.1534 18.9353 13.8283 19 13.5 19H2.5C2.1717 19 1.84661 18.9353 1.54329 18.8097C1.23998 18.6841 0.96438 18.4999 0.732233 18.2678C0.500087 18.0356 0.315938 17.76 0.190301 17.4567C0.0646642 17.1534 0 16.8283 0 16.5V9.5C0 8.83696 0.263392 8.20107 0.732233 7.73223C1.20107 7.26339 1.83696 7 2.5 7H4V4C4 2.93913 4.42143 1.92172 5.17157 1.17157C5.92172 0.421427 6.93913 0 8 0C9.06087 0 10.0783 0.421427 10.8284 1.17157C11.5786 1.92172 12 2.93913 12 4H11C11 3.20435 10.6839 2.44129 10.1213 1.87868C9.55871 1.31607 8.79565 1 8 1ZM7 12C7 11.7348 7.10536 11.4804 7.29289 11.2929C7.48043 11.1054 7.73478 11 8 11C8.26522 11 8.51957 11.1054 8.70711 11.2929C8.89464 11.4804 9 11.7348 9 12V14C9 14.2652 8.89464 14.5196 8.70711 14.7071C8.51957 14.8946 8.26522 15 8 15C7.73478 15 7.48043 14.8946 7.29289 14.7071C7.10536 14.5196 7 14.2652 7 14V12ZM1 9.5C1 8.67 1.67 8 2.5 8H13.5C14.33 8 15 8.67 15 9.5V16.5C15 17.33 14.33 18 13.5 18H2.5C2.10218 18 1.72064 17.842 1.43934 17.5607C1.15804 17.2794 1 16.8978 1 16.5V9.5Z" fill="var(--fill-0, #DBDBDB)"/></symbol><symbol id="i-20a88d5b-9371-4f03-bc4c-07fddb642e72" viewBox="0 0 25.918 16.999"><g id="Group">
<path id="Vector" d="M0 16.998L0.859 16.144L1.08 15.916C1.26 15.726 1.46 15.507 1.677 15.261C2.296 14.557 2.915 13.783 3.492 12.963C4.474 11.567 5.23 10.187 5.669 8.882C6.903 5.215 11.626 4.166 14.592 7.619C17.843 11.404 14.555 16.999 9.213 16.999H0.00199997L0 16.998ZM9.211 15.998C13.755 15.998 16.483 11.356 13.832 8.27C11.382 5.417 7.607 6.255 6.616 9.201C6.142 10.609 5.343 12.07 4.309 13.538C3.71 14.39 3.068 15.191 2.427 15.921L2.359 15.999H9.212L9.211 15.998Z" fill="var(--fill-0, #DBDBDB)"/>
<path id="Vector_2" d="M16.393 0L14.974 1.286C13.943 2.221 13.899 3.787 14.878 4.766L16.755 6.643C17.731 7.619 19.308 7.597 20.268 6.598L25.918 0.724L25.197 0.0310001L19.547 5.905C18.973 6.501 18.04 6.514 17.461 5.936L15.584 4.059C15.01 3.485 15.036 2.579 15.645 2.027L17.064 0.741L16.393 0Z" fill="var(--fill-0, #DBDBDB)"/>
</g></symbol><symbol id="i-246945a5-2598-46d4-b0c1-f619664777fc" viewBox="0 0 18 17.84"><path id="Vector" d="M3.03082e-06 7.35C-0.000349851 5.62102 0.596678 3.94502 1.69004 2.60565C2.78341 1.26627 4.30596 0.345796 6 0V1.02C4.79119 1.30647 3.68978 1.93334 2.82621 2.82639C1.96263 3.71944 1.37306 4.84125 1.12731 6.059C0.881565 7.27674 0.989928 8.53941 1.43957 9.69748C1.88922 10.8555 2.66131 11.8605 3.66442 12.5933C4.66753 13.3262 5.85964 13.7562 7.09959 13.8326C8.33954 13.9089 9.57538 13.6282 10.6608 13.0239C11.7462 12.4196 12.6357 11.5169 13.2239 10.4227C13.8122 9.32854 14.0746 8.08869 13.98 6.85H14.98L15 7.35C15.0046 9.16685 14.3469 10.9231 13.15 12.29L18 17.14L17.29 17.84L12.44 13C11.3553 13.9495 10.02 14.5663 8.59379 14.7766C7.16763 14.9868 5.71109 14.7816 4.39855 14.1854C3.086 13.5893 1.97307 12.6275 1.19298 11.4153C0.412895 10.203 -0.00129269 8.79158 3.03082e-06 7.35Z" fill="var(--fill-0, #DBDBDB)"/></symbol><symbol id="i-2502a872-6a70-4cfa-b961-de63ebef53c3" viewBox="0 0 19 18.35"><path id="Vector" fill-rule="evenodd" clip-rule="evenodd" d="M7 0H6V2H3.5C2.83696 2 2.20107 2.26339 1.73223 2.73223C1.26339 3.20107 1 3.83696 1 4.5V9H2V7H18V15.5C18 16.33 17.33 17 16.5 17H10V18H16.5C17.163 18 17.7989 17.7366 18.2678 17.2678C18.7366 16.7989 19 16.163 19 15.5V4.5C19 3.83696 18.7366 3.20107 18.2678 2.73223C17.7989 2.26339 17.163 2 16.5 2H14V0H13V2H7V0ZM13 4V3H7V4H6V3H3.5C2.67 3 2 3.67 2 4.5V6H18V4.5C18 3.67 17.33 3 16.5 3H14V4H13ZM7.85 14.15L4.35 10.65L3.65 11.35L6.29 14H0V15H6.3L3.65 17.65L4.35 18.35L7.85 14.85L8.21 14.5L7.85 14.15Z" fill="var(--fill-0, #DBDBDB)"/></symbol><symbol id="i-2afd19a2-f7e7-4348-b9af-af1d0bd83964" viewBox="0 0 4 4"><path id="Vector" d="M0 0H4V4H0V0Z" fill="var(--fill-0, #1CA7ED)"/></symbol><symbol id="i-30364a92-1278-4869-8a08-79ff37aa7123" viewBox="0 0 16 16"><path id="Vector" d="M1 12.5C1 13.163 1.26339 13.7989 1.73223 14.2678C2.20107 14.7366 2.83696 15 3.5 15H6V16H3.5C2.57174 16 1.6815 15.6313 1.02513 14.9749C0.368749 14.3185 0 13.4283 0 12.5V10H1V12.5ZM16 12.5C16 13.4283 15.6313 14.3185 14.9749 14.9749C14.3185 15.6313 13.4283 16 12.5 16H10V15H12.5C13.163 15 13.7989 14.7366 14.2678 14.2678C14.7366 13.7989 15 13.163 15 12.5V10H16V12.5ZM6 1H3.5C2.83696 1 2.20107 1.26339 1.73223 1.73223C1.26339 2.20107 1 2.83696 1 3.5V6H0V3.5C0 2.57174 0.368749 1.6815 1.02513 1.02513C1.6815 0.368749 2.57174 0 3.5 0H6V1ZM12.5 0C13.4283 0 14.3185 0.368749 14.9749 1.02513C15.6313 1.6815 16 2.57174 16 3.5V6H15V3.5C15 2.83696 14.7366 2.20107 14.2678 1.73223C13.7989 1.26339 13.163 1 12.5 1H10V0H12.5Z" fill="var(--fill-0, #DBDBDB)"/></symbol><symbol id="i-380f8103-cdc8-48b7-b4ac-542c5c9672a4" viewBox="0 0 24 24"><path id="Vector" fill-rule="evenodd" clip-rule="evenodd" d="M5 1H7V5H5V1ZM4 1C4 0.734784 4.10536 0.48043 4.29289 0.292893C4.48043 0.105357 4.73478 0 5 0H7C7.26522 0 7.51957 0.105357 7.70711 0.292893C7.89464 0.48043 8 0.734784 8 1V2H16V1C16 0.734784 16.1054 0.48043 16.2929 0.292893C16.4804 0.105357 16.7348 0 17 0H19C19.2652 0 19.5196 0.105357 19.7071 0.292893C19.8946 0.48043 20 0.734784 20 1V2H21C21.7956 2 22.5587 2.31607 23.1213 2.87868C23.6839 3.44129 24 4.20435 24 5V21C24 21.7956 23.6839 22.5587 23.1213 23.1213C22.5587 23.6839 21.7956 24 21 24H3C2.20435 24 1.44129 23.6839 0.878679 23.1213C0.31607 22.5587 0 21.7956 0 21V5C0 4.20435 0.31607 3.44129 0.878679 2.87868C1.44129 2.31607 2.20435 2 3 2H4V1ZM8 3H16V5C16 5.26522 16.1054 5.51957 16.2929 5.70711C16.4804 5.89464 16.7348 6 17 6H19C19.2652 6 19.5196 5.89464 19.7071 5.70711C19.8946 5.51957 20 5.26522 20 5V3H21C21.5304 3 22.0391 3.21071 22.4142 3.58579C22.7893 3.96086 23 4.46957 23 5V9H1V5C1 3.9 1.9 3 3 3H4V5C4 5.26522 4.10536 5.51957 4.29289 5.70711C4.48043 5.89464 4.73478 6 5 6H7C7.26522 6 7.51957 5.89464 7.70711 5.70711C7.89464 5.51957 8 5.26522 8 5V3ZM1 10V21C1 22.1 1.9 23 3 23H21C21.5304 23 22.0391 22.7893 22.4142 22.4142C22.7893 22.0391 23 21.5304 23 21V10H1ZM19 1H17V5H19V1Z" fill="var(--fill-0, #DBDBDB)"/></symbol><symbol id="i-398e96b5-cd4e-4d47-a025-a0b128f1d6d0" viewBox="0 0 15.8485 15.8485"><g id="Vector">
<path d="M0.424264 0.424264L15.4243 15.4243ZM15.4243 0.424264L0.424264 15.4243Z" fill="black"/>
<path d="M0.424264 0.424264L15.4243 15.4243M15.4243 0.424264L0.424264 15.4243" stroke="var(--stroke-0, white)" stroke-width="1.2"/>
</g></symbol><symbol id="i-3a91dd09-1439-4eeb-9368-773e90693014" viewBox="0 0 19 17"><path id="Vector" d="M2.5 1C1.67 1 1 1.67 1 2.5V14.5C1 15.33 1.67 16 2.5 16H16.5C17.33 16 18 15.33 18 14.5V2.5C18 1.67 17.33 1 16.5 1H2.5ZM0 2.5C0 1.83696 0.263392 1.20107 0.732233 0.732233C1.20107 0.263392 1.83696 0 2.5 0L16.5 0C17.163 0 17.7989 0.263392 18.2678 0.732233C18.7366 1.20107 19 1.83696 19 2.5V14.5C19 15.163 18.7366 15.7989 18.2678 16.2678C17.7989 16.7366 17.163 17 16.5 17H2.5C1.83696 17 1.20107 16.7366 0.732233 16.2678C0.263392 15.7989 0 15.163 0 14.5L0 2.5Z" fill="var(--fill-0, #DBDBDB)"/></symbol><symbol id="i-3b3508fa-c780-4ec5-a127-07bc26f7e114" viewBox="0 0 14 16"><path id="Vector" d="M3 0V5H0V6H4V0H3ZM9 11V7H10V11H14V12H10V16H9V12H5V11H9Z" fill="var(--fill-0, #DBDBDB)"/></symbol><symbol id="i-3d8c1e84-780b-4275-a757-833330fe3367" viewBox="0 0 5 8"><path id="Vector" d="M1 1V7H4V1H1ZM0.5 0H4.5C4.63261 0 4.75979 0.052678 4.85355 0.146446C4.94732 0.240214 5 0.367392 5 0.5V7.5C5 7.63261 4.94732 7.75979 4.85355 7.85355C4.75979 7.94732 4.63261 8 4.5 8H0.5C0.367392 8 0.240214 7.94732 0.146446 7.85355C0.052678 7.75979 0 7.63261 0 7.5V0.5C0 0.367392 0.052678 0.240214 0.146446 0.146446C0.240214 0.052678 0.367392 0 0.5 0Z" fill="var(--fill-0, #DBDBDB)"/></symbol><symbol id="i-41b4e698-9608-41a4-a25f-115796479f2a" viewBox="0 0 8.88889 16"><path id="Vector" d="M0 0V16H8.88889V0H0Z" fill="var(--fill-0, #F8F9FD)"/></symbol><symbol id="i-45521d1b-c503-4603-b275-ad2773703e02" viewBox="0 0 23 22"><g id="Group">
<path id="Vector" d="M17.449 5.505L19.552 14.617L20.526 14.392L18.423 5.28L17.449 5.505ZM10.943 11.011L18.574 15.867L19.111 15.023L11.48 10.167L10.943 11.011ZM11.379 8.716L16.191 5.107L15.591 4.307L10.779 7.916L11.379 8.716ZM7.96 10.828L3.239 17.572L4.058 18.145L8.779 11.401L7.96 10.828ZM3.331 17.67L5.641 4.582L4.656 4.408L2.346 17.496L3.331 17.67ZM6.041 4.454L8.036 7.946L8.904 7.45L6.909 3.958L6.041 4.454Z" fill="var(--fill-0, #DBDBDB)"/>
<path id="Vector_2" d="M5.5 4C6.328 4 7 3.328 7 2.5C7 1.672 6.328 1 5.5 1C4.672 1 4 1.672 4 2.5C4 3.328 4.672 4 5.5 4ZM5.5 5C4.119 5 3 3.881 3 2.5C3 1.119 4.119 0 5.5 0C6.881 0 8 1.119 8 2.5C8 3.881 6.881 5 5.5 5ZM2.5 21C3.328 21 4 20.328 4 19.5C4 18.672 3.328 18 2.5 18C1.672 18 1 18.672 1 19.5C1 20.328 1.672 21 2.5 21ZM2.5 22C1.119 22 0 20.881 0 19.5C0 18.119 1.119 17 2.5 17C3.881 17 5 18.119 5 19.5C5 20.881 3.881 22 2.5 22ZM9.5 11C10.328 11 11 10.328 11 9.5C11 8.672 10.328 8 9.5 8C8.672 8 8 8.672 8 9.5C8 10.328 8.672 11 9.5 11ZM9.5 12C8.119 12 7 10.881 7 9.5C7 8.119 8.119 7 9.5 7C10.881 7 12 8.119 12 9.5C12 10.881 10.881 12 9.5 12ZM17.5 5C18.328 5 19 4.328 19 3.5C19 2.672 18.328 2 17.5 2C16.672 2 16 2.672 16 3.5C16 4.328 16.672 5 17.5 5ZM17.5 6C16.119 6 15 4.881 15 3.5C15 2.119 16.119 1 17.5 1C18.881 1 20 2.119 20 3.5C20 4.881 18.881 6 17.5 6ZM20.5 18C21.328 18 22 17.328 22 16.5C22 15.672 21.328 15 20.5 15C19.672 15 19 15.672 19 16.5C19 17.328 19.672 18 20.5 18ZM20.5 19C19.119 19 18 17.881 18 16.5C18 15.119 19.119 14 20.5 14C21.881 14 23 15.119 23 16.5C23 17.881 21.881 19 20.5 19Z" fill="var(--fill-0, #DBDBDB)"/>
</g></symbol><symbol id="i-46fd424b-7a01-44d7-b204-e7e5c6dbcb19" viewBox="0 0 18 18"><path id="Vector" d="M0 0H18V18H0V0Z" fill="var(--fill-0, #F0F3FA)"/></symbol><symbol id="i-4a8d379b-c967-4eba-a1bb-3395e6f00afc" viewBox="0 0 22 22"><path id="Vector" d="M1.05 11C1.05 8.3611 2.0983 5.83027 3.96429 3.96429C5.83027 2.0983 8.3611 1.05 11 1.05C13.6389 1.05 16.1697 2.0983 18.0357 3.96429C19.9017 5.83027 20.95 8.3611 20.95 11C20.95 13.6389 19.9017 16.1697 18.0357 18.0357C16.1697 19.9017 13.6389 20.95 11 20.95C8.3611 20.95 5.83027 19.9017 3.96429 18.0357C2.0983 16.1697 1.05 13.6389 1.05 11ZM11 0C8.08262 0 5.28473 1.15893 3.22183 3.22183C1.15893 5.28473 0 8.08262 0 11C0 13.9174 1.15893 16.7153 3.22183 18.7782C5.28473 20.8411 8.08262 22 11 22C13.9174 22 16.7153 20.8411 18.7782 18.7782C20.8411 16.7153 22 13.9174 22 11C22 8.08262 20.8411 5.28473 18.7782 3.22183C16.7153 1.15893 13.9174 0 11 0ZM8 13.03C8.12465 12.985 8.26209 12.9913 8.3821 13.0475C8.50211 13.1038 8.59487 13.2054 8.64 13.33C8.81108 13.8195 9.13013 14.2437 9.55296 14.5438C9.97579 14.8439 10.4815 15.0051 11 15.0051C11.5185 15.0051 12.0242 14.8439 12.447 14.5438C12.8699 14.2437 13.1889 13.8195 13.36 13.33C13.4077 13.2089 13.5008 13.1112 13.6194 13.0576C13.738 13.004 13.8729 12.9988 13.9953 13.0431C14.1177 13.0874 14.218 13.1776 14.2749 13.2947C14.3318 13.4118 14.3408 13.5464 14.3 13.67C14.0588 14.3525 13.6119 14.9434 13.0209 15.3614C12.4299 15.7794 11.7239 16.0038 11 16.0038C10.2761 16.0038 9.57007 15.7794 8.97907 15.3614C8.38806 14.9434 7.94119 14.3525 7.7 13.67C7.65497 13.5453 7.66127 13.4079 7.71753 13.2879C7.77378 13.1679 7.87538 13.0751 8 13.03ZM8.5 8.5C8.23478 8.5 7.98043 8.60536 7.79289 8.79289C7.60536 8.98043 7.5 9.23478 7.5 9.5C7.5 9.76522 7.60536 10.0196 7.79289 10.2071C7.98043 10.3946 8.23478 10.5 8.5 10.5C8.76522 10.5 9.01957 10.3946 9.20711 10.2071C9.39464 10.0196 9.5 9.76522 9.5 9.5C9.5 9.23478 9.39464 8.98043 9.20711 8.79289C9.01957 8.60536 8.76522 8.5 8.5 8.5ZM13.5 8.5C13.2348 8.5 12.9804 8.60536 12.7929 8.79289C12.6054 8.98043 12.5 9.23478 12.5 9.5C12.5 9.76522 12.6054 10.0196 12.7929 10.2071C12.9804 10.3946 13.2348 10.5 13.5 10.5C13.7652 10.5 14.0196 10.3946 14.2071 10.2071C14.3946 10.0196 14.5 9.76522 14.5 9.5C14.5 9.23478 14.3946 8.98043 14.2071 8.79289C14.0196 8.60536 13.7652 8.5 13.5 8.5Z" fill="var(--fill-0, #DBDBDB)"/></symbol><symbol id="i-4f2e390b-83fd-4ed8-84aa-ecbc0b51edb8" viewBox="0 0 9 9"><path id="Vector" fill-rule="evenodd" clip-rule="evenodd" d="M4.5 8C4.95963 8 5.41475 7.90947 5.83939 7.73358C6.26403 7.55769 6.64987 7.29988 6.97487 6.97487C7.29988 6.64987 7.55769 6.26403 7.73358 5.83939C7.90947 5.41475 8 4.95963 8 4.5C8 4.04037 7.90947 3.58525 7.73358 3.16061C7.55769 2.73597 7.29988 2.35013 6.97487 2.02513C6.64987 1.70012 6.26403 1.44231 5.83939 1.26642C5.41475 1.09053 4.95963 1 4.5 1C3.57174 1 2.6815 1.36875 2.02513 2.02513C1.36875 2.6815 1 3.57174 1 4.5C1 5.42826 1.36875 6.3185 2.02513 6.97487C2.6815 7.63125 3.57174 8 4.5 8ZM4.5 9C5.69347 9 6.83807 8.52589 7.68198 7.68198C8.52589 6.83807 9 5.69347 9 4.5C9 3.30653 8.52589 2.16193 7.68198 1.31802C6.83807 0.474106 5.69347 0 4.5 0C3.30653 0 2.16193 0.474106 1.31802 1.31802C0.474106 2.16193 0 3.30653 0 4.5C0 5.69347 0.474106 6.83807 1.31802 7.68198C2.16193 8.52589 3.30653 9 4.5 9Z" fill="var(--fill-0, #DBDBDB)"/></symbol><symbol id="i-4fb30348-ed6a-4519-8c81-2f8cfde70992" viewBox="0 0 28 28"><g id="Group">
<path id="Vector" fill-rule="evenodd" clip-rule="evenodd" d="M14 0C12.1615 -2.73959e-08 10.341 0.36212 8.64243 1.06569C6.94387 1.76925 5.40053 2.80048 4.1005 4.1005C2.80048 5.40053 1.76925 6.94387 1.06569 8.64243C0.36212 10.341 0 12.1615 0 14C0 15.8385 0.36212 17.659 1.06569 19.3576C1.76925 21.0561 2.80048 22.5995 4.1005 23.8995C5.40053 25.1995 6.94387 26.2307 8.64243 26.9343C10.341 27.6379 12.1615 28 14 28C17.713 28 21.274 26.525 23.8995 23.8995C26.525 21.274 28 17.713 28 14C28 10.287 26.525 6.72601 23.8995 4.1005C21.274 1.475 17.713 5.53285e-08 14 0ZM1 14C1.00038 11.4484 1.75165 8.95332 3.16019 6.82571C4.56872 4.69811 6.57223 3.03205 8.92104 2.03516C11.2698 1.03828 13.8601 0.754652 16.369 1.21963C18.8779 1.6846 21.1944 2.87762 23.03 4.65L19.5 8.2C17.9912 6.7704 15.9852 5.98415 13.9068 6.00773C11.8284 6.03132 9.84082 6.8629 8.36485 8.32638C6.88888 9.78986 6.04044 11.7703 5.99919 13.8484C5.95794 15.9266 6.72712 17.9391 8.14384 19.46C9.56057 20.9809 11.5136 21.8907 13.5894 21.9968C15.6653 22.1029 17.7009 21.3968 19.2652 20.0282C20.8296 18.6596 21.7998 16.7359 21.9706 14.6644C22.1413 12.5929 21.4991 10.5363 20.18 8.93L23.73 5.38C25.1258 6.95532 26.1183 8.846 26.6221 10.8896C27.1259 12.9331 27.126 15.0684 26.6223 17.112C26.1187 19.1556 25.1264 21.0464 23.7307 22.6218C22.335 24.1973 20.5777 25.4103 18.6097 26.1566C16.6417 26.9029 14.522 27.1602 12.4326 26.9065C10.3432 26.6527 8.34665 25.8954 6.61454 24.6997C4.88244 23.504 3.46657 21.9055 2.48859 20.0418C1.51062 18.1781 0.999787 16.1047 1 14ZM18.79 8.9C17.4706 7.65655 15.7203 6.9735 13.9074 6.99463C12.0945 7.01577 10.3606 7.73943 9.07056 9.0133C7.78053 10.2872 7.03506 12.0119 6.99107 13.8243C6.94708 15.6368 7.608 17.3956 8.83471 18.7305C10.0614 20.0655 11.7582 20.8724 13.5679 20.9815C15.3776 21.0905 17.1591 20.4932 18.5372 19.3152C19.9154 18.1373 20.7827 16.4705 20.9567 14.6659C21.1307 12.8613 20.5977 11.0596 19.47 9.64L15.85 13.24C15.9748 13.5438 16.0229 13.8736 15.99 14.2004C15.9571 14.5271 15.8442 14.8408 15.6613 15.1136C15.4785 15.3864 15.2313 15.6099 14.9415 15.7645C14.6518 15.9191 14.3284 16 14 16C13.6803 16.0002 13.3651 15.9238 13.081 15.7772C12.7969 15.6305 12.5521 15.4179 12.3671 15.1571C12.1822 14.8963 12.0624 14.595 12.0179 14.2784C11.9734 13.9618 12.0055 13.6391 12.1114 13.3374C12.2173 13.0357 12.394 12.7639 12.6267 12.5446C12.8594 12.3253 13.1412 12.165 13.4486 12.0771C13.756 11.9892 14.08 11.9762 14.3935 12.0394C14.7069 12.1025 15.0006 12.2399 15.25 12.44L18.79 8.9Z" fill="var(--fill-0, #DBDBDB)"/>
</g></symbol><symbol id="i-506bbb02-e673-4f76-b48c-dfbde626e6cf" viewBox="0 0 22 22"><g id="Group">
<path id="Vector" d="M4.354 18.354L18.354 4.354L17.647 3.647L3.647 17.647L4.354 18.354Z" fill="var(--fill-0, #DBDBDB)"/>
<path id="Vector_2" d="M19.5 4C20.328 4 21 3.328 21 2.5C21 1.672 20.328 1 19.5 1C18.672 1 18 1.672 18 2.5C18 3.328 18.672 4 19.5 4ZM19.5 5C18.119 5 17 3.881 17 2.5C17 1.119 18.119 0 19.5 0C20.881 0 22 1.119 22 2.5C22 3.881 20.881 5 19.5 5ZM2.5 21C3.328 21 4 20.328 4 19.5C4 18.672 3.328 18 2.5 18C1.672 18 1 18.672 1 19.5C1 20.328 1.672 21 2.5 21ZM2.5 22C1.119 22 0 20.881 0 19.5C0 18.119 1.119 17 2.5 17C3.881 17 5 18.119 5 19.5C5 20.881 3.881 22 2.5 22Z" fill="var(--fill-0, #DBDBDB)"/>
</g></symbol><symbol id="i-5470c460-fc80-40a1-b961-003c5ecfb0c6" viewBox="0 0 28 28"><path id="Vector" d="M14 0C21.732 0 28 6.268 28 14C28 21.732 21.732 28 14 28C6.268 28 0 21.732 0 14C0 6.268 6.268 0 14 0ZM14 1C6.82 1 1 6.82 1 14C1 21.18 6.82 27 14 27C21.18 27 27 21.18 27 14C27 6.82 21.18 1 14 1ZM14.201 19.01C14.6928 19.0632 15.1478 19.2954 15.4795 19.6623C15.8113 20.0293 15.9965 20.5054 16 21L15.99 21.204C15.9359 21.6952 15.7033 22.1493 15.3365 22.4804C14.9697 22.8115 14.4941 22.9964 14 23L13.799 22.99C13.3424 22.9401 12.9165 22.736 12.5915 22.4115C12.2665 22.087 12.0617 21.6615 12.011 21.205L12 21C12 19.896 12.917 19 14 19L14.201 19.01ZM14 20C13.463 20 13 20.455 13 21C13 21.545 13.462 22 14 22C14.538 22 15 21.545 15 21C15 20.455 14.538 20 14 20ZM14.31 5C16.9 5 19 7.1 19 9.69C18.9998 10.4541 18.7964 11.2045 18.4107 11.8641C18.025 12.5238 17.4708 13.069 16.805 13.444L15.933 13.936C15.4982 14.1804 15.1363 14.5362 14.8844 14.9668C14.6326 15.3973 14.4999 15.8872 14.5 16.386V17H13.5V16.386C13.5 15.009 14.243 13.739 15.442 13.064L16.314 12.574C16.8258 12.2858 17.2517 11.8666 17.548 11.3594C17.8443 10.8523 18.0003 10.2754 18 9.688C17.9995 8.7097 17.6105 7.77165 16.9185 7.08007C16.2266 6.38849 15.2883 6 14.31 6H14C12.9391 6 11.9217 6.42143 11.1716 7.17157C10.4214 7.92172 10 8.93913 10 10H9C9 8.67392 9.52678 7.40215 10.4645 6.46447C11.4021 5.52678 12.6739 5 14 5H14.31Z" fill="var(--fill-0, #DBDBDB)"/></symbol><symbol id="i-5711ad98-f7b8-48e0-a048-489f24070022" viewBox="0 0 15.2399 13.2732"><path id="Vector" d="M6.73995 12.1366V1.13662L0.739946 6.63662L6.73995 12.1366ZM14.7399 12.1366V1.13662L8.73995 6.63662L14.7399 12.1366Z" stroke="var(--stroke-0, #DBDBDB)"/></symbol><symbol id="i-5ba1471c-fb4f-49da-bc62-c24118e19ed6" viewBox="0 0 13.207 10.354"><path id="Vector" d="M11.293 4.354L8.646 7L9.353 7.708L13.207 3.854L9.353 0L8.646 0.708L11.293 3.354H5.5C4.04131 3.354 2.64236 3.93346 1.61091 4.96491C0.579462 5.99636 0 7.39531 0 8.854V10.354H1V8.854C1 7.66053 1.47411 6.51593 2.31802 5.67202C3.16193 4.82811 4.30653 4.354 5.5 4.354H11.293Z" fill="var(--fill-0, #DBDBDB)"/></symbol><symbol id="i-5d28f42a-7adf-4a4b-92a1-e845e9e2eabb" viewBox="0 0 8 8"><path id="Vector" fill-rule="evenodd" clip-rule="evenodd" d="M8 4C8 5.06087 7.57857 6.07828 6.82843 6.82843C6.07828 7.57857 5.06087 8 4 8C2.93913 8 1.92172 7.57857 1.17157 6.82843C0.421427 6.07828 0 5.06087 0 4C0 2.93913 0.421427 1.92172 1.17157 1.17157C1.92172 0.421427 2.93913 0 4 0C5.06087 0 6.07828 0.421427 6.82843 1.17157C7.57857 1.92172 8 2.93913 8 4ZM7 4C7 4.39397 6.9224 4.78407 6.77164 5.14805C6.62087 5.51203 6.3999 5.84274 6.12132 6.12132C5.84274 6.3999 5.51203 6.62087 5.14805 6.77164C4.78407 6.9224 4.39397 7 4 7C3.60603 7 3.21593 6.9224 2.85195 6.77164C2.48797 6.62087 2.15726 6.3999 1.87868 6.12132C1.6001 5.84274 1.37913 5.51203 1.22836 5.14805C1.0776 4.78407 1 4.39397 1 4C1 3.20435 1.31607 2.44129 1.87868 1.87868C2.44129 1.31607 3.20435 1 4 1C4.79565 1 5.55871 1.31607 6.12132 1.87868C6.68393 2.44129 7 3.20435 7 4Z" fill="var(--fill-0, #DBDBDB)"/></symbol><symbol id="i-5f02451e-6a34-4c09-b3d6-232939a6bb7c" viewBox="0 0 4 4"><path id="Vector" d="M0 0H4V4H0V0Z" fill="var(--fill-0, #82BA22)"/></symbol><symbol id="i-6033c4b5-b14e-45cb-9533-490516f465dc" viewBox="0 0 15 18"><path id="Vector" d="M1 1.5C1 1.22 1.22 1 1.5 1H7V17H5V18H10V17H8V1H13.5C13.78 1 14 1.22 14 1.5V4H15V1.5C15 0.67 14.33 0 13.5 0H1.5C0.67 0 0 0.67 0 1.5V4H1V1.5Z" fill="var(--fill-0, #DBDBDB)"/></symbol><symbol id="i-613b43e9-8329-4817-9b54-525455057186" viewBox="0 0 5 8"><path id="Vector" d="M1 1V7H4V1H1ZM0.5 0H4.5C4.63261 0 4.75979 0.052678 4.85355 0.146446C4.94732 0.240214 5 0.367392 5 0.5V7.5C5 7.63261 4.94732 7.75979 4.85355 7.85355C4.75979 7.94732 4.63261 8 4.5 8H0.5C0.367392 8 0.240214 7.94732 0.146446 7.85355C0.052678 7.75979 0 7.63261 0 7.5V0.5C0 0.367392 0.052678 0.240214 0.146446 0.146446C0.240214 0.052678 0.367392 0 0.5 0Z" fill="var(--fill-0, #DBDBDB)"/></symbol><symbol id="i-69a545bf-3957-4476-aef2-eab4663403a6" viewBox="0 0 5.586 10.157"><path id="Vector" d="M1.128 10.157L0 9.167L3.591 5.079L0.000999928 0.99L1.129 0L5.586 5.079L1.128 10.157Z" fill="var(--fill-0, #DBDBDB)"/></symbol><symbol id="i-70a8cc2f-24a5-416d-85fc-9ff675c5f354" viewBox="0 0 19.6 19.6"><path id="Vector" d="M0 0H19.6V19.6H0V0Z" fill="var(--fill-0, #38518F)"/></symbol><symbol id="i-735ca0bd-2481-4b64-bdeb-ebd3c25265b3" viewBox="0 0 4.708 4.708"><path id="Vector" d="M0 0.708L4 4.708L4.708 4L0.708 0L0 0.708Z" fill="var(--fill-0, #DBDBDB)"/></symbol><symbol id="i-742616c3-5f50-4027-bde4-2abd712eae35" viewBox="0 0 16 13"><path id="Vector" d="M16 5.2L8 13L0 5.2L2.667 0H13.333L16 5.2ZM1.226 5L8 11.602L14.773 5L12.723 1H3.277L1.226 5ZM8.5 4H10V7H8.5V9H7.5V7H6V4H7.5V2H8.5V4Z" fill="var(--fill-0, #DBDBDB)"/></symbol><symbol id="i-747539e4-f2ef-40e5-9d5a-d88b206f3c03" viewBox="0 0 18 20"><path id="Vector" d="M13 3H18V4H15.99L14.66 18.64C14.625 19.0131 14.4517 19.3596 14.1741 19.6113C13.8965 19.863 13.5347 20.0016 13.16 20H4.84C4.46701 19.9991 4.10771 19.8593 3.83222 19.6079C3.55673 19.3564 3.38481 19.0114 3.35 18.64L2.01 4H0V3H5V2C5 0.9 5.9 0 7 0H11C11.5304 0 12.0391 0.210714 12.4142 0.585786C12.7893 0.960859 13 1.46957 13 2V3ZM7 1C6.73478 1 6.48043 1.10536 6.29289 1.29289C6.10536 1.48043 6 1.73478 6 2V3H12V2C12 1.73478 11.8946 1.48043 11.7071 1.29289C11.5196 1.10536 11.2652 1 11 1H7ZM3.02 4L4.34 18.54C4.35008 18.6656 4.40717 18.7827 4.49987 18.868C4.59257 18.9533 4.71404 19.0004 4.84 19H13.17C13.296 19.0004 13.4174 18.9533 13.5101 18.868C13.6028 18.7827 13.6599 18.6656 13.67 18.54L14.99 4H3.02Z" fill="var(--fill-0, #DBDBDB)"/></symbol><symbol id="i-776fa8d6-7bbd-4de8-927d-0ff642a41584" viewBox="0 0 7 7"><path id="Vector" d="M3 4H0V3H3V0H4V3H7V4H4V7H3V4Z" fill="var(--fill-0, #DBDBDB)"/></symbol><symbol id="i-78448166-fe20-4add-aa40-565092259c48" viewBox="0 0 19.6 19.6"><path id="Vector" d="M11.9778 0V4.35556H19.6V0H11.9778ZM11.9778 7.62222V11.9778H19.6V7.62222H11.9778ZM0 15.2444V19.6H19.6V15.2444H0Z" fill="var(--fill-0, #EF5350)"/></symbol><symbol id="i-7863c51c-de1d-4c56-80a2-452fb568e464" viewBox="0 0 21 17"><path id="Vector" fill-rule="evenodd" clip-rule="evenodd" d="M8.118 1C8.02522 1 7.93427 1.02582 7.85533 1.07456C7.77639 1.12331 7.71256 1.19305 7.671 1.276L6.809 3H2.5C2.10218 3 1.72064 3.15804 1.43934 3.43934C1.15804 3.72064 1 4.10218 1 4.5V14.5C1 14.8978 1.15804 15.2794 1.43934 15.5607C1.72064 15.842 2.10218 16 2.5 16H18.5C18.8978 16 19.2794 15.842 19.5607 15.5607C19.842 15.2794 20 14.8978 20 14.5V4.5C20 4.10218 19.842 3.72064 19.5607 3.43934C19.2794 3.15804 18.8978 3 18.5 3H14.191L13.329 1.276C13.2874 1.19305 13.2236 1.12331 13.1447 1.07456C13.0657 1.02582 12.9748 1 12.882 1H8.118ZM6.776 0.83C6.90049 0.580633 7.092 0.370884 7.32904 0.224278C7.56608 0.0776728 7.83928 9.41502e-06 8.118 0H12.882C13.1607 9.41502e-06 13.4339 0.0776728 13.671 0.224278C13.908 0.370884 14.0995 0.580633 14.224 0.83L14.809 2H18.5C18.8283 2 19.1534 2.06466 19.4567 2.1903C19.76 2.31594 20.0356 2.50009 20.2678 2.73223C20.4999 2.96438 20.6841 3.23998 20.8097 3.54329C20.9353 3.84661 21 4.1717 21 4.5V14.5C21 14.8283 20.9353 15.1534 20.8097 15.4567C20.6841 15.76 20.4999 16.0356 20.2678 16.2678C20.0356 16.4999 19.76 16.6841 19.4567 16.8097C19.1534 16.9353 18.8283 17 18.5 17H2.5C1.83696 17 1.20107 16.7366 0.732233 16.2678C0.263392 15.7989 0 15.163 0 14.5V4.5C0 3.83696 0.263392 3.20107 0.732233 2.73223C1.20107 2.26339 1.83696 2 2.5 2H6.191L6.776 0.83Z" fill="var(--fill-0, #DBDBDB)"/></symbol><symbol id="i-7e0d8cd1-eb4d-4200-ba6a-3e1d40985636" viewBox="0 0 9 9"><path id="Vector" d="M5 0H4V4H0V5H4V9H5V5H9V4H5V0Z" fill="var(--fill-0, #3179F5)"/></symbol><symbol id="i-7eb7bc47-07e7-4fe1-97f4-96398696e9d8" viewBox="0 0 16 16"><path id="Vector" fill-rule="evenodd" clip-rule="evenodd" d="M8 16C10.1217 16 12.1566 15.1571 13.6569 13.6569C15.1571 12.1566 16 10.1217 16 8C16 5.87827 15.1571 3.84344 13.6569 2.34315C12.1566 0.842855 10.1217 0 8 0C5.87827 0 3.84344 0.842855 2.34315 2.34315C0.842855 3.84344 0 5.87827 0 8C0 10.1217 0.842855 12.1566 2.34315 13.6569C3.84344 15.1571 5.87827 16 8 16ZM7 12C7 12.2652 7.10536 12.5196 7.29289 12.7071C7.48043 12.8946 7.73478 13 8 13C8.26522 13 8.51957 12.8946 8.70711 12.7071C8.89464 12.5196 9 12.2652 9 12C9 11.7348 8.89464 11.4804 8.70711 11.2929C8.51957 11.1054 8.26522 11 8 11C7.73478 11 7.48043 11.1054 7.29289 11.2929C7.10536 11.4804 7 11.7348 7 12ZM9.83 8.48C9.34 8.91 8.86 9.33 8.77 10H7.26C7.34 8.82 8 8.31 8.58 7.87C9.07 7.49 9.5 7.16 9.5 6.5C9.5 5.67 8.82 5 8 5C7.18 5 6.5 5.67 6.5 6.5V7H5V6.5C5 5.70435 5.31607 4.94129 5.87868 4.37868C6.44129 3.81607 7.20435 3.5 8 3.5C8.79565 3.5 9.55871 3.81607 10.1213 4.37868C10.6839 4.94129 11 5.70435 11 6.5C11 7.46 10.4 7.98 9.83 8.48Z" fill="var(--fill-0, #575757)"/></symbol><symbol id="i-81ca8012-9dab-4a36-bd2d-1e468c334eae" viewBox="0 0 16 23.257"><path id="Vector" d="M8 1C6.14348 1 4.36301 1.7375 3.05025 3.05025C1.7375 4.36301 1 6.14348 1 8V11H5V8C5 7.60603 5.0776 7.21593 5.22836 6.85195C5.37913 6.48797 5.6001 6.15726 5.87868 5.87868C6.15726 5.6001 6.48797 5.37913 6.85195 5.22836C7.21593 5.0776 7.60603 5 8 5C8.39397 5 8.78407 5.0776 9.14805 5.22836C9.51203 5.37913 9.84274 5.6001 10.1213 5.87868C10.3999 6.15726 10.6209 6.48797 10.7716 6.85195C10.9224 7.21593 11 7.60603 11 8V11H15V8C15 6.14348 14.2625 4.36301 12.9497 3.05025C11.637 1.7375 9.85652 1 8 1ZM15 12H11V15H15V12ZM5 12H1V15H5V12ZM0 8C0 5.87827 0.842854 3.84344 2.34315 2.34315C3.84344 0.842855 5.87827 0 8 0C10.1217 0 12.1566 0.842855 13.6569 2.34315C15.1571 3.84344 16 5.87827 16 8V16H10V8C10 7.46957 9.78929 6.96086 9.41421 6.58579C9.03914 6.21071 8.53043 6 8 6C7.46957 6 6.96086 6.21071 6.58579 6.58579C6.21071 6.96086 6 7.46957 6 8V16H0V8ZM3.293 19.294L2.071 17.257L2.929 16.743L4.706 19.706L2.706 20.706L3.929 22.743L3.071 23.257L1.293 20.294L3.293 19.294ZM13.071 16.743L13.929 17.257L12.706 19.294L14.706 20.294L12.929 23.257L12.071 22.743L13.294 20.706L11.294 19.706L13.071 16.743Z" fill="var(--fill-0, #DBDBDB)"/></symbol><symbol id="i-82b20457-7ccb-4235-8f44-6a6bdcb0eb97" viewBox="0 0 26 15"><path id="Vector" d="M26 5.66L20.16 0L19.46 0.72L25.3 6.38L26 5.66ZM0 5.66L5.84 0L6.54 0.72L0.7 6.38L0 5.66ZM13 7V14H8V15H14V7H13Z" fill="var(--fill-0, #DBDBDB)"/></symbol><symbol id="i-87119c86-d6a0-42bd-81b6-ede13ea4b2a8" viewBox="0 0 19 17"><path id="Vector" d="M2.5 1C1.67 1 1 1.67 1 2.5V14.5C1 15.33 1.67 16 2.5 16H16.5C17.33 16 18 15.33 18 14.5V2.5C18 1.67 17.33 1 16.5 1H2.5ZM0 2.5C0 1.83696 0.263392 1.20107 0.732233 0.732233C1.20107 0.263392 1.83696 0 2.5 0L16.5 0C17.163 0 17.7989 0.263392 18.2678 0.732233C18.7366 1.20107 19 1.83696 19 2.5V14.5C19 15.163 18.7366 15.7989 18.2678 16.2678C17.7989 16.7366 17.163 17 16.5 17H2.5C1.83696 17 1.20107 16.7366 0.732233 16.2678C0.263392 15.7989 0 15.163 0 14.5L0 2.5Z" fill="var(--fill-0, #DBDBDB)"/></symbol><symbol id="i-887a40f3-3a48-4183-890d-8f745684510e" viewBox="0 0 8.98969 12.9846"><path id="Vector" d="M5.99484 0.992281V4.99228H7.99484C8.17493 4.99321 8.35142 5.04275 8.50568 5.13567C8.65994 5.22859 8.78624 5.36145 8.87125 5.5202C8.95626 5.67896 8.99683 5.85773 8.98866 6.03763C8.98049 6.21753 8.92389 6.39188 8.82484 6.54228L4.82484 12.5423C4.70568 12.7196 4.53286 12.8541 4.33169 12.9261C4.13053 12.9981 3.9116 13.0037 3.70699 12.9422C3.50237 12.8807 3.32284 12.7553 3.19468 12.5844C3.06653 12.4134 2.99649 12.2059 2.99484 11.9923V7.99228H0.994844C0.814761 7.99135 0.638271 7.94181 0.484011 7.84889C0.329751 7.75597 0.203447 7.62311 0.118435 7.46436C0.0334238 7.3056 -0.00713908 7.12683 0.00102947 6.94693C0.00919802 6.76704 0.0657949 6.59268 0.164844 6.44228L4.16484 0.442281C4.284 0.264942 4.45683 0.130429 4.65799 0.0584526C4.85916 -0.0135233 5.07809 -0.0191778 5.2827 0.0423179C5.48731 0.103814 5.66685 0.229226 5.79501 0.400178C5.92316 0.57113 5.99319 0.778633 5.99484 0.992281ZM3.99484 11.9923L7.99484 5.99228H4.99484V0.992281L0.994844 6.99228H3.99484V11.9923Z" fill="var(--fill-0, #DBDBDB)"/></symbol><symbol id="i-88fb87a6-d2b9-4b58-988d-8e3568d63f95" viewBox="0 0 34 34"><path id="Vector" d="M17 0C19.2325 -3.32664e-08 21.4431 0.439718 23.5056 1.29405C25.5682 2.14838 27.4422 3.40059 29.0208 4.97919C30.5994 6.55778 31.8516 8.43185 32.706 10.4944C33.5603 12.5569 34 14.7675 34 17C34 19.2325 33.5603 21.4431 32.706 23.5056C31.8516 25.5682 30.5994 27.4422 29.0208 29.0208C27.4422 30.5994 25.5682 31.8516 23.5056 32.706C21.4431 33.5603 19.2325 34 17 34C12.4913 34 8.1673 32.2089 4.97918 29.0208C1.79107 25.8327 0 21.5087 0 17C0 12.4913 1.79107 8.1673 4.97918 4.97919C8.1673 1.79107 12.4913 6.71846e-08 17 0ZM9 22C8.73478 22 8.48043 22.1054 8.29289 22.2929C8.10536 22.4804 8 22.7348 8 23V25C8 25.2652 8.10536 25.5196 8.29289 25.7071C8.48043 25.8946 8.73478 26 9 26H11C11.2652 26 11.5196 25.8946 11.7071 25.7071C11.8946 25.5196 12 25.2652 12 25V23C12 22.7348 11.8946 22.4804 11.7071 22.2929C11.5196 22.1054 11.2652 22 11 22H9ZM16 22C15.7348 22 15.4804 22.1054 15.2929 22.2929C15.1054 22.4804 15 22.7348 15 23V25C15 25.2652 15.1054 25.5196 15.2929 25.7071C15.4804 25.8946 15.7348 26 16 26H18C18.2652 26 18.5196 25.8946 18.7071 25.7071C18.8946 25.5196 19 25.2652 19 25V23C19 22.7348 18.8946 22.4804 18.7071 22.2929C18.5196 22.1054 18.2652 22 18 22H16ZM23 22C22.7348 22 22.4804 22.1054 22.2929 22.2929C22.1054 22.4804 22 22.7348 22 23V25C22 25.2652 22.1054 25.5196 22.2929 25.7071C22.4804 25.8946 22.7348 26 23 26H25C25.2652 26 25.5196 25.8946 25.7071 25.7071C25.8946 25.5196 26 25.2652 26 25V23C26 22.7348 25.8946 22.4804 25.7071 22.2929C25.5196 22.1054 25.2652 22 25 22H23ZM9 15C8.73478 15 8.48043 15.1054 8.29289 15.2929C8.10536 15.4804 8 15.7348 8 16V18C8 18.2652 8.10536 18.5196 8.29289 18.7071C8.48043 18.8946 8.73478 19 9 19H11C11.2652 19 11.5196 18.8946 11.7071 18.7071C11.8946 18.5196 12 18.2652 12 18V16C12 15.7348 11.8946 15.4804 11.7071 15.2929C11.5196 15.1054 11.2652 15 11 15H9ZM16 15C15.7348 15 15.4804 15.1054 15.2929 15.2929C15.1054 15.4804 15 15.7348 15 16V18C15 18.2652 15.1054 18.5196 15.2929 18.7071C15.4804 18.8946 15.7348 19 16 19H18C18.2652 19 18.5196 18.8946 18.7071 18.7071C18.8946 18.5196 19 18.2652 19 18V16C19 15.7348 18.8946 15.4804 18.7071 15.2929C18.5196 15.1054 18.2652 15 18 15H16ZM23 15C22.7348 15 22.4804 15.1054 22.2929 15.2929C22.1054 15.4804 22 15.7348 22 16V18C22 18.2652 22.1054 18.5196 22.2929 18.7071C22.4804 18.8946 22.7348 19 23 19H25C25.2652 19 25.5196 18.8946 25.7071 18.7071C25.8946 18.5196 26 18.2652 26 18V16C26 15.7348 25.8946 15.4804 25.7071 15.2929C25.5196 15.1054 25.2652 15 25 15H23ZM9 8C8.73478 8 8.48043 8.10536 8.29289 8.29289C8.10536 8.48043 8 8.73478 8 9V11C8 11.2652 8.10536 11.5196 8.29289 11.7071C8.48043 11.8946 8.73478 12 9 12H11C11.2652 12 11.5196 11.8946 11.7071 11.7071C11.8946 11.5196 12 11.2652 12 11V9C12 8.73478 11.8946 8.48043 11.7071 8.29289C11.5196 8.10536 11.2652 8 11 8H9ZM16 8C15.7348 8 15.4804 8.10536 15.2929 8.29289C15.1054 8.48043 15 8.73478 15 9V11C15 11.2652 15.1054 11.5196 15.2929 11.7071C15.4804 11.8946 15.7348 12 16 12H18C18.2652 12 18.5196 11.8946 18.7071 11.7071C18.8946 11.5196 19 11.2652 19 11V9C19 8.73478 18.8946 8.48043 18.7071 8.29289C18.5196 8.10536 18.2652 8 18 8H16ZM23 8C22.7348 8 22.4804 8.10536 22.2929 8.29289C22.1054 8.48043 22 8.73478 22 9V11C22 11.2652 22.1054 11.5196 22.2929 11.7071C22.4804 11.8946 22.7348 12 23 12H25C25.2652 12 25.5196 11.8946 25.7071 11.7071C25.8946 11.5196 26 11.2652 26 11V9C26 8.73478 25.8946 8.48043 25.7071 8.29289C25.5196 8.10536 25.2652 8 25 8H23Z" fill="var(--fill-0, #DBDBDB)"/></symbol><symbol id="i-8d98204f-9c7e-4bcf-923b-81315d3adfdf" viewBox="0 0 21 17"><path id="Vector" fill-rule="evenodd" clip-rule="evenodd" d="M8.118 1C8.02522 1 7.93427 1.02582 7.85533 1.07456C7.77639 1.12331 7.71256 1.19305 7.671 1.276L6.809 3H2.5C2.10218 3 1.72064 3.15804 1.43934 3.43934C1.15804 3.72064 1 4.10218 1 4.5V14.5C1 14.8978 1.15804 15.2794 1.43934 15.5607C1.72064 15.842 2.10218 16 2.5 16H18.5C18.8978 16 19.2794 15.842 19.5607 15.5607C19.842 15.2794 20 14.8978 20 14.5V4.5C20 4.10218 19.842 3.72064 19.5607 3.43934C19.2794 3.15804 18.8978 3 18.5 3H14.191L13.329 1.276C13.2874 1.19305 13.2236 1.12331 13.1447 1.07456C13.0657 1.02582 12.9748 1 12.882 1H8.118ZM6.776 0.83C6.90049 0.580633 7.092 0.370884 7.32904 0.224278C7.56608 0.0776728 7.83928 9.41502e-06 8.118 0H12.882C13.1607 9.41502e-06 13.4339 0.0776728 13.671 0.224278C13.908 0.370884 14.0995 0.580633 14.224 0.83L14.809 2H18.5C18.8283 2 19.1534 2.06466 19.4567 2.1903C19.76 2.31594 20.0356 2.50009 20.2678 2.73223C20.4999 2.96438 20.6841 3.23998 20.8097 3.54329C20.9353 3.84661 21 4.1717 21 4.5V14.5C21 14.8283 20.9353 15.1534 20.8097 15.4567C20.6841 15.76 20.4999 16.0356 20.2678 16.2678C20.0356 16.4999 19.76 16.6841 19.4567 16.8097C19.1534 16.9353 18.8283 17 18.5 17H2.5C1.83696 17 1.20107 16.7366 0.732233 16.2678C0.263392 15.7989 0 15.163 0 14.5V4.5C0 3.83696 0.263392 3.20107 0.732233 2.73223C1.20107 2.26339 1.83696 2 2.5 2H6.191L6.776 0.83Z" fill="var(--fill-0, #DBDBDB)"/></symbol><symbol id="i-8da3f6fd-923b-438c-89ae-8d2ebeb6b73e" viewBox="0 0 16 13"><path id="Vector" d="M16 5.2L8 13L0 5.2L2.667 0H13.333L16 5.2ZM1.226 5L8 11.602L14.773 5L12.723 1H3.277L1.226 5ZM8.5 4H10V7H8.5V9H7.5V7H6V4H7.5V2H8.5V4Z" fill="var(--fill-0, #DBDBDB)"/></symbol><symbol id="i-9125317e-365d-433a-8a1f-4698f4aa2c49" viewBox="0 0 9.30497 9.17633"><path id="Vector" d="M1.29981 0.053104C1.30806 0.0371075 1.32055 0.0236899 1.33591 0.0143226C1.35128 0.00495534 1.36893 0 1.38692 0C1.40492 0 1.42257 0.00495534 1.43793 0.0143226C1.4533 0.0236899 1.46579 0.0371075 1.47403 0.053104L1.76803 0.826215C1.77892 0.869771 1.82248 0.891548 1.85515 0.891548L2.6827 0.935104C2.76981 0.935104 2.80248 1.04399 2.73715 1.10933L2.08381 1.6211C2.06959 1.63492 2.0599 1.65273 2.05601 1.67217C2.05212 1.69161 2.05422 1.71177 2.06203 1.72999L2.27981 2.51399C2.28644 2.53388 2.28652 2.55536 2.28004 2.57529C2.27356 2.59523 2.26086 2.61256 2.24381 2.62474C2.22675 2.63692 2.20624 2.64332 2.18528 2.64298C2.16432 2.64265 2.14403 2.6356 2.12737 2.62288L1.44137 2.17644C1.42525 2.16567 1.40631 2.15992 1.38692 2.15992C1.36754 2.15992 1.34859 2.16567 1.33248 2.17644L0.646479 2.62288C0.629821 2.6356 0.609523 2.64265 0.588566 2.64298C0.567609 2.64332 0.547096 2.63692 0.530041 2.62474C0.512985 2.61256 0.500284 2.59523 0.493804 2.57529C0.487323 2.55536 0.487404 2.53388 0.494035 2.51399L0.711812 1.7191C0.718363 1.69981 0.718736 1.67895 0.712882 1.65944C0.707027 1.63992 0.695235 1.62272 0.679146 1.61022L0.0367013 1.10933C0.0213203 1.097 0.0100157 1.08031 0.00426401 1.06146C-0.00148769 1.0426 -0.00141911 1.02245 0.00446093 1.00363C0.010341 0.984817 0.021759 0.968211 0.0372236 0.955986C0.0526882 0.94376 0.0714805 0.936483 0.0911457 0.935104L0.918701 0.891548C0.951368 0.891548 0.994924 0.869771 1.00581 0.826215L1.29981 0.0639929V0.053104ZM1.29981 3.31977C1.30806 3.30377 1.32055 3.29036 1.33591 3.28099C1.35128 3.27162 1.36893 3.26667 1.38692 3.26667C1.40492 3.26667 1.42257 3.27162 1.43793 3.28099C1.4533 3.29036 1.46579 3.30377 1.47403 3.31977L1.76803 4.09288C1.77892 4.13644 1.82248 4.15821 1.85515 4.15821L2.6827 4.20177C2.76981 4.20177 2.80248 4.31066 2.73715 4.37599L2.08381 4.88777C2.06959 4.90159 2.0599 4.91939 2.05601 4.93883C2.05212 4.95827 2.05422 4.97844 2.06203 4.99666L2.27981 5.78066C2.28644 5.80054 2.28652 5.82203 2.28004 5.84196C2.27356 5.86189 2.26086 5.87922 2.24381 5.89141C2.22675 5.90359 2.20624 5.90998 2.18528 5.90965C2.16432 5.90931 2.14403 5.90227 2.12737 5.88955L1.44137 5.4431C1.42525 5.43234 1.40631 5.42659 1.38692 5.42659C1.36754 5.42659 1.34859 5.43234 1.33248 5.4431L0.646479 5.88955C0.629821 5.90227 0.609523 5.90931 0.588566 5.90965C0.567609 5.90998 0.547096 5.90359 0.530041 5.89141C0.512985 5.87922 0.500284 5.86189 0.493804 5.84196C0.487323 5.82203 0.487404 5.80054 0.494035 5.78066L0.711812 4.98577C0.718363 4.96648 0.718736 4.94562 0.712882 4.92611C0.707027 4.90659 0.695235 4.88938 0.679146 4.87688L0.0367013 4.37599C0.0213203 4.36366 0.0100157 4.34698 0.00426401 4.32812C-0.00148769 4.30927 -0.00141911 4.28912 0.00446093 4.2703C0.010341 4.25148 0.021759 4.23488 0.0372236 4.22265C0.0526882 4.21043 0.0714805 4.20315 0.0911457 4.20177L0.918701 4.15821C0.951368 4.15821 0.994924 4.13644 1.00581 4.09288L1.29981 3.33066V3.31977ZM1.29981 6.58644C1.30806 6.57044 1.32055 6.55702 1.33591 6.54766C1.35128 6.53829 1.36893 6.53333 1.38692 6.53333C1.40492 6.53333 1.42257 6.53829 1.43793 6.54766C1.4533 6.55702 1.46579 6.57044 1.47403 6.58644L1.76803 7.35955C1.77892 7.4031 1.82248 7.42488 1.85515 7.42488L2.6827 7.46844C2.76981 7.46844 2.80248 7.57733 2.73715 7.64266L2.08381 8.15444C2.06959 8.16825 2.0599 8.18606 2.05601 8.2055C2.05212 8.22494 2.05422 8.2451 2.06203 8.26333L2.27981 9.04733C2.28644 9.06721 2.28652 9.0887 2.28004 9.10863C2.27356 9.12856 2.26086 9.14589 2.24381 9.15807C2.22675 9.17026 2.20624 9.17665 2.18528 9.17631C2.16432 9.17598 2.14403 9.16894 2.12737 9.15621L1.44137 8.70977C1.42525 8.699 1.40631 8.69326 1.38692 8.69326C1.36754 8.69326 1.34859 8.699 1.33248 8.70977L0.646479 9.15621C0.629821 9.16894 0.609523 9.17598 0.588566 9.17631C0.567609 9.17665 0.547096 9.17026 0.530041 9.15807C0.512985 9.14589 0.500284 9.12856 0.493804 9.10863C0.487323 9.0887 0.487404 9.06721 0.494035 9.04733L0.711812 8.25244C0.718363 8.23314 0.718736 8.21229 0.712882 8.19277C0.707027 8.17326 0.695235 8.15605 0.679146 8.14355L0.0367013 7.64266C0.0213203 7.63033 0.0100157 7.61365 0.00426401 7.59479C-0.00148769 7.57593 -0.00141911 7.55578 0.00446093 7.53697C0.010341 7.51815 0.021759 7.50154 0.0372236 7.48932C0.0526882 7.47709 0.0714805 7.46982 0.0911457 7.46844L0.918701 7.42488C0.951368 7.42488 0.994924 7.4031 1.00581 7.35955L1.29981 6.59733V6.58644ZM4.56648 0.053104C4.57472 0.0371075 4.58721 0.0236899 4.60258 0.0143226C4.61795 0.00495534 4.63559 0 4.65359 0C4.67159 0 4.68923 0.00495534 4.7046 0.0143226C4.71997 0.0236899 4.73246 0.0371075 4.7407 0.053104L5.0347 0.826215C5.04559 0.869771 5.08915 0.891548 5.12181 0.891548L5.94937 0.935104C6.03648 0.935104 6.06915 1.04399 6.00381 1.10933L5.35048 1.6211C5.33626 1.63492 5.32657 1.65273 5.32268 1.67217C5.31879 1.69161 5.32089 1.71177 5.3287 1.72999L5.54648 2.51399C5.55311 2.53388 5.55319 2.55536 5.54671 2.57529C5.54023 2.59523 5.52753 2.61256 5.51047 2.62474C5.49342 2.63692 5.47291 2.64332 5.45195 2.64298C5.43099 2.64265 5.41069 2.6356 5.39403 2.62288L4.70804 2.17644C4.69192 2.16567 4.67297 2.15992 4.65359 2.15992C4.63421 2.15992 4.61526 2.16567 4.59915 2.17644L3.91315 2.62288C3.89649 2.6356 3.87619 2.64265 3.85523 2.64298C3.83428 2.64332 3.81376 2.63692 3.79671 2.62474C3.77965 2.61256 3.76695 2.59523 3.76047 2.57529C3.75399 2.55536 3.75407 2.53388 3.7607 2.51399L3.97848 1.7191C3.98503 1.69981 3.9854 1.67895 3.97955 1.65944C3.97369 1.63992 3.9619 1.62272 3.94581 1.61022L3.30337 1.10933C3.28799 1.097 3.27668 1.08031 3.27093 1.06146C3.26518 1.0426 3.26525 1.02245 3.27113 1.00363C3.27701 0.984817 3.28843 0.968211 3.30389 0.955986C3.31936 0.94376 3.33815 0.936483 3.35781 0.935104L4.18537 0.891548C4.21803 0.891548 4.26159 0.869771 4.27248 0.826215L4.56648 0.0639929V0.053104ZM4.56648 3.31977C4.57472 3.30377 4.58721 3.29036 4.60258 3.28099C4.61795 3.27162 4.63559 3.26667 4.65359 3.26667C4.67159 3.26667 4.68923 3.27162 4.7046 3.28099C4.71997 3.29036 4.73246 3.30377 4.7407 3.31977L5.0347 4.09288C5.04559 4.13644 5.08915 4.15821 5.12181 4.15821L5.94937 4.20177C6.03648 4.20177 6.06915 4.31066 6.00381 4.37599L5.35048 4.88777C5.33626 4.90159 5.32657 4.91939 5.32268 4.93883C5.31879 4.95827 5.32089 4.97844 5.3287 4.99666L5.54648 5.78066C5.55311 5.80054 5.55319 5.82203 5.54671 5.84196C5.54023 5.86189 5.52753 5.87922 5.51047 5.89141C5.49342 5.90359 5.47291 5.90998 5.45195 5.90965C5.43099 5.90931 5.41069 5.90227 5.39403 5.88955L4.70804 5.4431C4.69192 5.43234 4.67297 5.42659 4.65359 5.42659C4.63421 5.42659 4.61526 5.43234 4.59915 5.4431L3.91315 5.88955C3.89649 5.90227 3.87619 5.90931 3.85523 5.90965C3.83428 5.90998 3.81376 5.90359 3.79671 5.89141C3.77965 5.87922 3.76695 5.86189 3.76047 5.84196C3.75399 5.82203 3.75407 5.80054 3.7607 5.78066L3.97848 4.98577C3.98503 4.96648 3.9854 4.94562 3.97955 4.92611C3.97369 4.90659 3.9619 4.88938 3.94581 4.87688L3.30337 4.37599C3.28799 4.36366 3.27668 4.34698 3.27093 4.32812C3.26518 4.30927 3.26525 4.28912 3.27113 4.2703C3.27701 4.25148 3.28843 4.23488 3.30389 4.22265C3.31936 4.21043 3.33815 4.20315 3.35781 4.20177L4.18537 4.15821C4.21803 4.15821 4.26159 4.13644 4.27248 4.09288L4.56648 3.33066V3.31977ZM4.56648 6.58644C4.57472 6.57044 4.58721 6.55702 4.60258 6.54766C4.61795 6.53829 4.63559 6.53333 4.65359 6.53333C4.67159 6.53333 4.68923 6.53829 4.7046 6.54766C4.71997 6.55702 4.73246 6.57044 4.7407 6.58644L5.0347 7.35955C5.04559 7.4031 5.08915 7.42488 5.12181 7.42488L5.94937 7.46844C6.03648 7.46844 6.06915 7.57733 6.00381 7.64266L5.35048 8.15444C5.33626 8.16825 5.32657 8.18606 5.32268 8.2055C5.31879 8.22494 5.32089 8.2451 5.3287 8.26333L5.54648 9.04733C5.55311 9.06721 5.55319 9.0887 5.54671 9.10863C5.54023 9.12856 5.52753 9.14589 5.51047 9.15807C5.49342 9.17026 5.47291 9.17665 5.45195 9.17631C5.43099 9.17598 5.41069 9.16894 5.39403 9.15621L4.70804 8.70977C4.69192 8.699 4.67297 8.69326 4.65359 8.69326C4.63421 8.69326 4.61526 8.699 4.59915 8.70977L3.91315 9.15621C3.89649 9.16894 3.87619 9.17598 3.85523 9.17631C3.83428 9.17665 3.81376 9.17026 3.79671 9.15807C3.77965 9.14589 3.76695 9.12856 3.76047 9.10863C3.75399 9.0887 3.75407 9.06721 3.7607 9.04733L3.97848 8.25244C3.98503 8.23314 3.9854 8.21229 3.97955 8.19277C3.97369 8.17326 3.9619 8.15605 3.94581 8.14355L3.30337 7.64266C3.28799 7.63033 3.27668 7.61365 3.27093 7.59479C3.26518 7.57593 3.26525 7.55578 3.27113 7.53697C3.27701 7.51815 3.28843 7.50154 3.30389 7.48932C3.31936 7.47709 3.33815 7.46982 3.35781 7.46844L4.18537 7.42488C4.21803 7.42488 4.26159 7.4031 4.27248 7.35955L4.56648 6.59733V6.58644ZM7.83315 0.053104C7.84139 0.0371075 7.85388 0.0236899 7.86925 0.0143226C7.88461 0.00495534 7.90226 0 7.92026 0C7.93825 0 7.9559 0.00495534 7.97127 0.0143226C7.98663 0.0236899 7.99912 0.0371075 8.00737 0.053104L8.30137 0.826215C8.31226 0.869771 8.35581 0.891548 8.38848 0.891548L9.21603 0.935104C9.30315 0.935104 9.33581 1.04399 9.27048 1.10933L8.61715 1.6211C8.60293 1.63492 8.59323 1.65273 8.58935 1.67217C8.58546 1.69161 8.58756 1.71177 8.59537 1.72999L8.81315 2.51399C8.81978 2.53388 8.81986 2.55536 8.81338 2.57529C8.8069 2.59523 8.7942 2.61256 8.77714 2.62474C8.76008 2.63692 8.73957 2.64332 8.71861 2.64298C8.69766 2.64265 8.67736 2.6356 8.6607 2.62288L7.9747 2.17644C7.95859 2.16567 7.93964 2.15992 7.92026 2.15992C7.90088 2.15992 7.88193 2.16567 7.86581 2.17644L7.17981 2.62288C7.16315 2.6356 7.14286 2.64265 7.1219 2.64298C7.10094 2.64332 7.08043 2.63692 7.06337 2.62474C7.04632 2.61256 7.03362 2.59523 7.02714 2.57529C7.02066 2.55536 7.02074 2.53388 7.02737 2.51399L7.24515 1.7191C7.2517 1.69981 7.25207 1.67895 7.24622 1.65944C7.24036 1.63992 7.22857 1.62272 7.21248 1.61022L6.57004 1.10933C6.55465 1.097 6.54335 1.08031 6.5376 1.06146C6.53185 1.0426 6.53191 1.02245 6.53779 1.00363C6.54367 0.984817 6.55509 0.968211 6.57056 0.955986C6.58602 0.94376 6.60481 0.936483 6.62448 0.935104L7.45203 0.891548C7.4847 0.891548 7.52826 0.869771 7.53915 0.826215L7.83315 0.0639929V0.053104ZM7.83315 3.31977C7.84139 3.30377 7.85388 3.29036 7.86925 3.28099C7.88461 3.27162 7.90226 3.26667 7.92026 3.26667C7.93825 3.26667 7.9559 3.27162 7.97127 3.28099C7.98663 3.29036 7.99912 3.30377 8.00737 3.31977L8.30137 4.09288C8.31226 4.13644 8.35581 4.15821 8.38848 4.15821L9.21603 4.20177C9.30315 4.20177 9.33581 4.31066 9.27048 4.37599L8.61715 4.88777C8.60293 4.90159 8.59323 4.91939 8.58935 4.93883C8.58546 4.95827 8.58756 4.97844 8.59537 4.99666L8.81315 5.78066C8.81978 5.80054 8.81986 5.82203 8.81338 5.84196C8.8069 5.86189 8.7942 5.87922 8.77714 5.89141C8.76008 5.90359 8.73957 5.90998 8.71861 5.90965C8.69766 5.90931 8.67736 5.90227 8.6607 5.88955L7.9747 5.4431C7.95859 5.43234 7.93964 5.42659 7.92026 5.42659C7.90088 5.42659 7.88193 5.43234 7.86581 5.4431L7.17981 5.88955C7.16315 5.90227 7.14286 5.90931 7.1219 5.90965C7.10094 5.90998 7.08043 5.90359 7.06337 5.89141C7.04632 5.87922 7.03362 5.86189 7.02714 5.84196C7.02066 5.82203 7.02074 5.80054 7.02737 5.78066L7.24515 4.98577C7.2517 4.96648 7.25207 4.94562 7.24622 4.92611C7.24036 4.90659 7.22857 4.88938 7.21248 4.87688L6.57004 4.37599C6.55465 4.36366 6.54335 4.34698 6.5376 4.32812C6.53185 4.30927 6.53191 4.28912 6.53779 4.2703C6.54367 4.25148 6.55509 4.23488 6.57056 4.22265C6.58602 4.21043 6.60481 4.20315 6.62448 4.20177L7.45203 4.15821C7.4847 4.15821 7.52826 4.13644 7.53915 4.09288L7.83315 3.33066V3.31977ZM7.83315 6.58644C7.84139 6.57044 7.85388 6.55702 7.86925 6.54766C7.88461 6.53829 7.90226 6.53333 7.92026 6.53333C7.93825 6.53333 7.9559 6.53829 7.97127 6.54766C7.98663 6.55702 7.99912 6.57044 8.00737 6.58644L8.30137 7.35955C8.31226 7.4031 8.35581 7.42488 8.38848 7.42488L9.21603 7.46844C9.30315 7.46844 9.33581 7.57733 9.27048 7.64266L8.61715 8.15444C8.60293 8.16825 8.59323 8.18606 8.58935 8.2055C8.58546 8.22494 8.58756 8.2451 8.59537 8.26333L8.81315 9.04733C8.81978 9.06721 8.81986 9.0887 8.81338 9.10863C8.8069 9.12856 8.7942 9.14589 8.77714 9.15807C8.76008 9.17026 8.73957 9.17665 8.71861 9.17631C8.69766 9.17598 8.67736 9.16894 8.6607 9.15621L7.9747 8.70977C7.95859 8.699 7.93964 8.69326 7.92026 8.69326C7.90088 8.69326 7.88193 8.699 7.86581 8.70977L7.17981 9.15621C7.16315 9.16894 7.14286 9.17598 7.1219 9.17631C7.10094 9.17665 7.08043 9.17026 7.06337 9.15807C7.04632 9.14589 7.03362 9.12856 7.02714 9.10863C7.02066 9.0887 7.02074 9.06721 7.02737 9.04733L7.24515 8.25244C7.2517 8.23314 7.25207 8.21229 7.24622 8.19277C7.24036 8.17326 7.22857 8.15605 7.21248 8.14355L6.57004 7.64266C6.55465 7.63033 6.54335 7.61365 6.5376 7.59479C6.53185 7.57593 6.53191 7.55578 6.53779 7.53697C6.54367 7.51815 6.55509 7.50154 6.57056 7.48932C6.58602 7.47709 6.60481 7.46982 6.62448 7.46844L7.45203 7.42488C7.4847 7.42488 7.52826 7.4031 7.53915 7.35955L7.83315 6.59733V6.58644Z" fill="var(--fill-0, #F8F9FD)"/></symbol><symbol id="i-9343ff15-0066-4249-9392-1dfe2a48894e" viewBox="0 0 21.9995 21"><path id="Vector" d="M2.49949 16C3.69949 16 4.71949 16.86 4.94949 18H21.9995V19H4.94949C4.85489 19.4635 4.63074 19.8906 4.30309 20.2317C3.97544 20.5729 3.55772 20.8141 3.09846 20.9273C2.6392 21.0405 2.15724 21.0212 1.70855 20.8714C1.25987 20.7217 0.862869 20.4477 0.563671 20.0813C0.264473 19.715 0.0753509 19.2712 0.0182707 18.8017C-0.0388095 18.3321 0.0384944 17.856 0.241204 17.4286C0.443914 17.0013 0.763711 16.6402 1.16345 16.3873C1.56319 16.1344 2.02648 16.0001 2.49949 16ZM2.49949 17C2.10167 17 1.72014 17.158 1.43883 17.4393C1.15753 17.7206 0.999491 18.1022 0.999491 18.5C0.999491 18.8978 1.15753 19.2794 1.43883 19.5607C1.72014 19.842 2.10167 20 2.49949 20C2.89732 20 3.27885 19.842 3.56015 19.5607C3.84146 19.2794 3.99949 18.8978 3.99949 18.5C3.99949 18.1022 3.84146 17.7206 3.56015 17.4393C3.27885 17.158 2.89732 17 2.49949 17ZM21.9995 14H1.99949V13H21.9995V14ZM10.9995 10H13.9995V11H9.99949V5H10.9995V10ZM2.49949 0C3.69949 0 4.71949 0.86 4.94949 2H21.9995V3H4.94949C4.85489 3.46346 4.63074 3.89057 4.30309 4.23172C3.97544 4.57288 3.55772 4.81408 3.09846 4.92731C2.6392 5.04054 2.15724 5.02116 1.70855 4.87141C1.25987 4.72167 0.862869 4.4477 0.563671 4.08134C0.264473 3.71497 0.0753509 3.27124 0.0182707 2.80168C-0.0388095 2.33212 0.0384944 1.85601 0.241204 1.42863C0.443914 1.00125 0.763711 0.640151 1.16345 0.387268C1.56319 0.134385 2.02648 9.65457e-05 2.49949 0ZM2.49949 1C2.10167 1 1.72014 1.15804 1.43883 1.43934C1.15753 1.72064 0.999491 2.10218 0.999491 2.5C0.999491 2.89782 1.15753 3.27936 1.43883 3.56066C1.72014 3.84196 2.10167 4 2.49949 4C2.89732 4 3.27885 3.84196 3.56015 3.56066C3.84146 3.27936 3.99949 2.89782 3.99949 2.5C3.99949 2.10218 3.84146 1.72064 3.56015 1.43934C3.27885 1.15804 2.89732 1 2.49949 1Z" fill="var(--fill-0, #DBDBDB)"/></symbol><symbol id="i-9363192f-26a5-434a-9bd2-8af3aeac11d8" viewBox="0 0 12.0658 12"><path id="Vector" d="M11.57 0H1C0.734784 0 0.48043 0.105357 0.292893 0.292893C0.105357 0.48043 0 0.734784 0 1L0 11C0 11.2652 0.105357 11.5196 0.292893 11.7071C0.48043 11.8946 0.734784 12 1 12H11.57C11.6604 11.9992 11.7489 11.974 11.8261 11.9269C11.9033 11.8798 11.9663 11.8127 12.0083 11.7327C12.0504 11.6526 12.07 11.5627 12.065 11.4724C12.06 11.3821 12.0306 11.2949 11.98 11.22L8.68 6.28C8.62411 6.19732 8.59425 6.0998 8.59425 6C8.59425 5.9002 8.62411 5.80268 8.68 5.72L11.98 0.78C12.0306 0.705096 12.06 0.617863 12.065 0.527588C12.07 0.437313 12.0504 0.347373 12.0083 0.267343C11.9663 0.187312 11.9033 0.120186 11.8261 0.0731088C11.7489 0.0260317 11.6604 0.000765652 11.57 0Z" fill="var(--fill-0, #636363)"/></symbol><symbol id="i-995c3e1f-2501-4705-8597-8a80990f3bb6" viewBox="0 0 1 20"><path id="Vector" d="M0 0H1V3.5H0V0ZM0 16.5H1V20H0V16.5Z" fill="var(--fill-0, #DBDBDB)"/></symbol><symbol id="i-9b247a09-d08a-4b07-a570-53b26c435527" viewBox="0 0 10.157 5.586"><path id="Vector" d="M10.157 1.128L9.167 0L5.079 3.591L0.99 0.000999928L0 1.129L5.079 5.586L10.157 1.128Z" fill="var(--fill-0, #DBDBDB)"/></symbol><symbol id="i-9e70a39c-d1c8-4917-b2d4-a08fba1d64cb" viewBox="0 0 20 18.5"><path id="Vector" d="M16.04 0L20 4.32L19.26 5L15.3 0.68L16.04 0ZM3.96 0L0 4.32L0.74 5L4.7 0.68L3.96 0ZM16.24 5.83C17.0633 7.06473 17.5018 8.51595 17.5 10V10.5H18.5V10C18.5 8.31886 18.0015 6.67547 17.0675 5.27765C16.1335 3.87983 14.806 2.79037 13.2528 2.14702C11.6996 1.50368 9.99057 1.33535 8.34173 1.66333C6.69289 1.9913 5.17834 2.80085 3.98959 3.98959C2.80085 5.17834 1.9913 6.69289 1.66333 8.34173C1.33535 9.99057 1.50368 11.6996 2.14702 13.2528C2.79037 14.806 3.87983 16.1335 5.27765 17.0675C6.67547 18.0015 8.31886 18.5 10 18.5H10.5V17.5H10C8.7047 17.4989 7.43176 17.1624 6.30515 16.5232C5.17854 15.8841 4.23668 14.964 3.5713 13.8527C2.90593 12.7413 2.53971 11.4766 2.50834 10.1817C2.47696 8.88677 2.78149 7.60579 3.39226 6.46353C4.00303 5.32127 4.89922 4.35667 5.99355 3.66367C7.08787 2.97067 8.34303 2.5729 9.63675 2.5091C10.9305 2.44531 12.2187 2.71766 13.3759 3.29964C14.5331 3.88161 15.5198 4.75337 16.24 5.83Z" fill="var(--fill-0, #DBDBDB)"/></symbol><symbol id="i-a38156f5-305d-4421-8f8a-561d4e33d5dd" viewBox="0 0 8 8"><path id="Vector" fill-rule="evenodd" clip-rule="evenodd" d="M8 4C8 5.06087 7.57857 6.07828 6.82843 6.82843C6.07828 7.57857 5.06087 8 4 8C2.93913 8 1.92172 7.57857 1.17157 6.82843C0.421427 6.07828 0 5.06087 0 4C0 2.93913 0.421427 1.92172 1.17157 1.17157C1.92172 0.421427 2.93913 0 4 0C5.06087 0 6.07828 0.421427 6.82843 1.17157C7.57857 1.92172 8 2.93913 8 4ZM7 4C7 4.39397 6.9224 4.78407 6.77164 5.14805C6.62087 5.51203 6.3999 5.84274 6.12132 6.12132C5.84274 6.3999 5.51203 6.62087 5.14805 6.77164C4.78407 6.9224 4.39397 7 4 7C3.60603 7 3.21593 6.9224 2.85195 6.77164C2.48797 6.62087 2.15726 6.3999 1.87868 6.12132C1.6001 5.84274 1.37913 5.51203 1.22836 5.14805C1.0776 4.78407 1 4.39397 1 4C1 3.20435 1.31607 2.44129 1.87868 1.87868C2.44129 1.31607 3.20435 1 4 1C4.79565 1 5.55871 1.31607 6.12132 1.87868C6.68393 2.44129 7 3.20435 7 4Z" fill="var(--fill-0, #DBDBDB)"/></symbol><symbol id="i-a3c3032b-ccc4-40dc-8156-3b1d1e2c0c31" viewBox="0 0 27 8.5"><path id="Vector" d="M1.5 0C1.10218 0 0.720644 0.158035 0.43934 0.43934C0.158035 0.720644 0 1.10218 0 1.5V7C0 7.39782 0.158035 7.77935 0.43934 8.06066C0.720644 8.34196 1.10218 8.5 1.5 8.5H25.5C25.8978 8.5 26.2794 8.34196 26.5607 8.06066C26.842 7.77935 27 7.39782 27 7V1.5C27 1.10218 26.842 0.720644 26.5607 0.43934C26.2794 0.158035 25.8978 0 25.5 0H1.5ZM1.5 1H4.5V3.5H5.5V1H8.75V4.9H9.75V1H13V3.5H14V1H17.25V4.9H18.25V1H21.5V3.5H22.5V1H25.5C25.6326 1 25.7598 1.05268 25.8536 1.14645C25.9473 1.24021 26 1.36739 26 1.5V7C26 7.13261 25.9473 7.25979 25.8536 7.35355C25.7598 7.44732 25.6326 7.5 25.5 7.5H1.5C1.36739 7.5 1.24021 7.44732 1.14645 7.35355C1.05268 7.25979 1 7.13261 1 7V1.5C1 1.36739 1.05268 1.24021 1.14645 1.14645C1.24021 1.05268 1.36739 1 1.5 1Z" fill="var(--fill-0, #DBDBDB)"/></symbol><symbol id="i-a98c3495-e374-46df-9b13-7c20dbac44d7" viewBox="0 0 16 16"><path id="Vector" fill-rule="evenodd" clip-rule="evenodd" d="M8 16C10.1217 16 12.1566 15.1571 13.6569 13.6569C15.1571 12.1566 16 10.1217 16 8C16 5.87827 15.1571 3.84344 13.6569 2.34315C12.1566 0.842855 10.1217 0 8 0C5.87827 0 3.84344 0.842855 2.34315 2.34315C0.842855 3.84344 0 5.87827 0 8C0 10.1217 0.842855 12.1566 2.34315 13.6569C3.84344 15.1571 5.87827 16 8 16ZM7 12C7 12.2652 7.10536 12.5196 7.29289 12.7071C7.48043 12.8946 7.73478 13 8 13C8.26522 13 8.51957 12.8946 8.70711 12.7071C8.89464 12.5196 9 12.2652 9 12C9 11.7348 8.89464 11.4804 8.70711 11.2929C8.51957 11.1054 8.26522 11 8 11C7.73478 11 7.48043 11.1054 7.29289 11.2929C7.10536 11.4804 7 11.7348 7 12ZM9.83 8.48C9.34 8.91 8.86 9.33 8.77 10H7.26C7.34 8.82 8 8.31 8.58 7.87C9.07 7.49 9.5 7.16 9.5 6.5C9.5 5.67 8.82 5 8 5C7.18 5 6.5 5.67 6.5 6.5V7H5V6.5C5 5.70435 5.31607 4.94129 5.87868 4.37868C6.44129 3.81607 7.20435 3.5 8 3.5C8.79565 3.5 9.55871 3.81607 10.1213 4.37868C10.6839 4.94129 11 5.70435 11 6.5C11 7.46 10.4 7.98 9.83 8.48Z" fill="var(--fill-0, #8C8C8C)"/></symbol><symbol id="i-acda95a1-750e-40e6-a8f2-f8936a44be3b" viewBox="0 0 4 4"><path id="Vector" d="M0 0H4V4H0V0Z" fill="var(--fill-0, #F0502A)"/></symbol><symbol id="i-b5e160d3-7dee-4d76-ae38-59014b31a847" viewBox="0 0 7 7"><path id="Vector" d="M3 4H0V3H3V0H4V3H7V4H4V7H3V4Z" fill="var(--fill-0, white)"/></symbol><symbol id="i-ba5e2ffe-d41d-4e3e-8c05-bbb8388606f5" viewBox="0 0 12.0658 12"><path id="Vector" d="M11.57 0H1C0.734784 0 0.48043 0.105357 0.292893 0.292893C0.105357 0.48043 0 0.734784 0 1L0 11C0 11.2652 0.105357 11.5196 0.292893 11.7071C0.48043 11.8946 0.734784 12 1 12H11.57C11.6604 11.9992 11.7489 11.974 11.8261 11.9269C11.9033 11.8798 11.9663 11.8127 12.0083 11.7327C12.0504 11.6526 12.07 11.5627 12.065 11.4724C12.06 11.3821 12.0306 11.2949 11.98 11.22L8.68 6.28C8.62411 6.19732 8.59425 6.0998 8.59425 6C8.59425 5.9002 8.62411 5.80268 8.68 5.72L11.98 0.78C12.0306 0.705096 12.06 0.617863 12.065 0.527588C12.07 0.437313 12.0504 0.347373 12.0083 0.267343C11.9663 0.187312 11.9033 0.120186 11.8261 0.0731088C11.7489 0.0260317 11.6604 0.000765652 11.57 0Z" fill="var(--fill-0, #575757)"/></symbol><symbol id="i-bb04adf2-ff0b-43b8-8d2b-4f2ee84ff697" viewBox="0 0 5.586 10.157"><path id="Vector" d="M1.128 10.157L0 9.167L3.591 5.079L0.000999928 0.99L1.129 0L5.586 5.079L1.128 10.157Z" fill="var(--fill-0, white)"/></symbol><symbol id="i-bc2f9040-81e9-4886-84f3-7b28c3c0f10d" viewBox="0 0 10.16 5.6"><path id="Vector" d="M0 1.14L5.08 5.6L10.16 1.14L9.16 0.00999975L5.08 3.6L0.99 0L0 1.14Z" fill="var(--fill-0, #8C8C8C)"/></symbol><symbol id="i-c3824bcf-0716-45d5-88d7-1982302dae8b" viewBox="0 0 9 9"><path id="Vector" d="M5 0H4V4H0V5H4V9H5V5H9V4H5V0Z" fill="var(--fill-0, #5B9CF6)"/></symbol><symbol id="i-c7e6d694-7df2-4ae2-996e-9e149466ff4a" viewBox="0 0 22 22"><path id="Vector" d="M1 0C0.665 0 0.331 0.00799976 0 0.0229998V1.025C0.331 1.008 0.665 1 1 1C12.046 1 21 9.954 21 21C21 21.335 20.992 21.669 20.975 22H21.977C21.992 21.669 22 21.335 22 21C22 9.402 12.598 0 1 0Z" fill="var(--fill-0, #DBDBDB)"/></symbol><symbol id="i-c963c381-d706-4c75-ab3b-d69e423607f9" viewBox="0 0 20 18.5"><path id="Vector" d="M16.04 0L20 4.32L19.26 5L15.3 0.68L16.04 0ZM3.96 0L0 4.32L0.74 5L4.7 0.68L3.96 0ZM16.24 5.83C17.0633 7.06473 17.5018 8.51595 17.5 10V10.5H18.5V10C18.5 8.31886 18.0015 6.67547 17.0675 5.27765C16.1335 3.87983 14.806 2.79037 13.2528 2.14702C11.6996 1.50368 9.99057 1.33535 8.34173 1.66333C6.69289 1.9913 5.17834 2.80085 3.98959 3.98959C2.80085 5.17834 1.9913 6.69289 1.66333 8.34173C1.33535 9.99057 1.50368 11.6996 2.14702 13.2528C2.79037 14.806 3.87983 16.1335 5.27765 17.0675C6.67547 18.0015 8.31886 18.5 10 18.5H10.5V17.5H10C8.7047 17.4989 7.43176 17.1624 6.30515 16.5232C5.17854 15.8841 4.23668 14.964 3.5713 13.8527C2.90593 12.7413 2.53971 11.4766 2.50834 10.1817C2.47696 8.88677 2.78149 7.60579 3.39226 6.46353C4.00303 5.32127 4.89922 4.35667 5.99355 3.66367C7.08787 2.97067 8.34303 2.5729 9.63675 2.5091C10.9305 2.44531 12.2187 2.71766 13.3759 3.29964C14.5331 3.88161 15.5198 4.75337 16.24 5.83Z" fill="var(--fill-0, #DBDBDB)"/></symbol><symbol id="i-ca307c11-9f74-4eda-91f3-7ae97884d424" viewBox="0 0 15.2399 13.2732"><path id="Vector" d="M6.73995 12.1366V1.13662L0.739946 6.63662L6.73995 12.1366ZM14.7399 12.1366V1.13662L8.73995 6.63662L14.7399 12.1366Z" stroke="var(--stroke-0, #DBDBDB)"/></symbol><symbol id="i-cb0bdbe9-652e-49f7-9724-e410ff72e609" viewBox="0 0 18 17.84"><path id="Vector" d="M3.03082e-06 7.35C-0.000349851 5.62102 0.596678 3.94502 1.69004 2.60565C2.78341 1.26627 4.30596 0.345796 6 0V1.02C4.79119 1.30647 3.68978 1.93334 2.82621 2.82639C1.96263 3.71944 1.37306 4.84125 1.12731 6.059C0.881565 7.27674 0.989928 8.53941 1.43957 9.69748C1.88922 10.8555 2.66131 11.8605 3.66442 12.5933C4.66753 13.3262 5.85964 13.7562 7.09959 13.8326C8.33954 13.9089 9.57538 13.6282 10.6608 13.0239C11.7462 12.4196 12.6357 11.5169 13.2239 10.4227C13.8122 9.32854 14.0746 8.08869 13.98 6.85H14.98L15 7.35C15.0046 9.16685 14.3469 10.9231 13.15 12.29L18 17.14L17.29 17.84L12.44 13C11.3553 13.9495 10.02 14.5663 8.59379 14.7766C7.16763 14.9868 5.71109 14.7816 4.39855 14.1854C3.086 13.5893 1.97307 12.6275 1.19298 11.4153C0.412895 10.203 -0.00129269 8.79158 3.03082e-06 7.35Z" fill="var(--fill-0, #DBDBDB)"/></symbol><symbol id="i-cccb7bf3-a5e7-4936-b47e-bdb38f4015eb" viewBox="0 0 24.01 24.71"><path id="Vector" fill-rule="evenodd" clip-rule="evenodd" d="M1 3.5C1 2.83696 1.26339 2.20107 1.73223 1.73223C2.20107 1.26339 2.83696 1 3.5 1H16.5C17.163 1 17.7989 1.26339 18.2678 1.73223C18.7366 2.20107 19 2.83696 19 3.5V12.5C19 13.163 18.7366 13.7989 18.2678 14.2678C17.7989 14.7366 17.163 15 16.5 15H4.3L4.15 15.15L1 18.29V3.5ZM3.5 0C2.57174 0 1.6815 0.368749 1.02513 1.02513C0.368749 1.6815 0 2.57174 0 3.5V20.7L0.85 19.85L4.71 16H9V16.5C9 17.4283 9.36875 18.3185 10.0251 18.9749C10.6815 19.6313 11.5717 20 12.5 20H19.3L23.16 23.85L24.01 24.71V11.5C24.01 10.5717 23.6413 9.6815 22.9849 9.02513C22.3285 8.36875 21.4383 8 20.51 8H20V3.5C20 2.57174 19.6313 1.6815 18.9749 1.02513C18.3185 0.368749 17.4283 0 16.5 0H3.5ZM20 9V12.5C20 13.4283 19.6313 14.3185 18.9749 14.9749C18.3185 15.6313 17.4283 16 16.5 16H10V16.5C10 17.163 10.2634 17.7989 10.7322 18.2678C11.2011 18.7366 11.837 19 12.5 19H19.7L19.85 19.15L23 22.29V11.5C23 10.837 22.7366 10.2011 22.2678 9.73223C21.7989 9.26339 21.163 9 20.5 9H20Z" fill="var(--fill-0, #DBDBDB)"/></symbol><symbol id="i-cf6ac11c-94cc-4d7b-83e4-9a94dcd5b988" viewBox="0 0 16 16"><path id="Vector" fill-rule="evenodd" clip-rule="evenodd" d="M2 1H5C5.26522 1 5.51957 1.10536 5.70711 1.29289C5.89464 1.48043 6 1.73478 6 2V5C6 5.26522 5.89464 5.51957 5.70711 5.70711C5.51957 5.89464 5.26522 6 5 6H2C1.73478 6 1.48043 5.89464 1.29289 5.70711C1.10536 5.51957 1 5.26522 1 5V2C1 1.73478 1.10536 1.48043 1.29289 1.29289C1.48043 1.10536 1.73478 1 2 1ZM0 2C0 0.9 0.9 0 2 0H5C5.53043 0 6.03914 0.210714 6.41421 0.585786C6.78929 0.960859 7 1.46957 7 2V5C7 5.53043 6.78929 6.03914 6.41421 6.41421C6.03914 6.78929 5.53043 7 5 7H2C1.46957 7 0.960859 6.78929 0.585786 6.41421C0.210714 6.03914 0 5.53043 0 5V2ZM11 1H14C14.2652 1 14.5196 1.10536 14.7071 1.29289C14.8946 1.48043 15 1.73478 15 2V5C15 5.26522 14.8946 5.51957 14.7071 5.70711C14.5196 5.89464 14.2652 6 14 6H11C10.7348 6 10.4804 5.89464 10.2929 5.70711C10.1054 5.51957 10 5.26522 10 5V2C10 1.73478 10.1054 1.48043 10.2929 1.29289C10.4804 1.10536 10.7348 1 11 1ZM9 2C9 0.9 9.9 0 11 0H14C14.5304 0 15.0391 0.210714 15.4142 0.585786C15.7893 0.960859 16 1.46957 16 2V5C16 5.53043 15.7893 6.03914 15.4142 6.41421C15.0391 6.78929 14.5304 7 14 7H11C10.4696 7 9.96086 6.78929 9.58579 6.41421C9.21071 6.03914 9 5.53043 9 5V2ZM5 10H2C1.73478 10 1.48043 10.1054 1.29289 10.2929C1.10536 10.4804 1 10.7348 1 11V14C1 14.2652 1.10536 14.5196 1.29289 14.7071C1.48043 14.8946 1.73478 15 2 15H5C5.26522 15 5.51957 14.8946 5.70711 14.7071C5.89464 14.5196 6 14.2652 6 14V11C6 10.7348 5.89464 10.4804 5.70711 10.2929C5.51957 10.1054 5.26522 10 5 10ZM2 9C1.46957 9 0.960859 9.21071 0.585786 9.58579C0.210714 9.96086 0 10.4696 0 11V14C0 15.1 0.9 16 2 16H5C5.53043 16 6.03914 15.7893 6.41421 15.4142C6.78929 15.0391 7 14.5304 7 14V11C7 10.4696 6.78929 9.96086 6.41421 9.58579C6.03914 9.21071 5.53043 9 5 9H2ZM11 10H14C14.2652 10 14.5196 10.1054 14.7071 10.2929C14.8946 10.4804 15 10.7348 15 11V14C15 14.2652 14.8946 14.5196 14.7071 14.7071C14.5196 14.8946 14.2652 15 14 15H11C10.7348 15 10.4804 14.8946 10.2929 14.7071C10.1054 14.5196 10 14.2652 10 14V11C10 10.7348 10.1054 10.4804 10.2929 10.2929C10.4804 10.1054 10.7348 10 11 10ZM9 11C9 9.9 9.9 9 11 9H14C14.5304 9 15.0391 9.21071 15.4142 9.58579C15.7893 9.96086 16 10.4696 16 11V14C16 14.5304 15.7893 15.0391 15.4142 15.4142C15.0391 15.7893 14.5304 16 14 16H11C10.4696 16 9.96086 15.7893 9.58579 15.4142C9.21071 15.0391 9 14.5304 9 14V11Z" fill="var(--fill-0, #DBDBDB)"/></symbol><symbol id="i-d109b523-0b49-41f9-9cff-193716e5b8a9" viewBox="0 0 16 16"><path id="Vector" d="M0 0V16H3.55556V0H0ZM12.4444 0V16H16V0H12.4444Z" fill="var(--fill-0, #EF5350)"/></symbol><symbol id="i-d2227767-e303-432b-b129-9f30eb852781" viewBox="0 0 16 16"><path id="Vector" fill-rule="evenodd" clip-rule="evenodd" d="M2 0C1.46957 0 0.960859 0.210714 0.585786 0.585786C0.210714 0.960859 0 1.46957 0 2V5C0 5.53043 0.210714 6.03914 0.585786 6.41421C0.960859 6.78929 1.46957 7 2 7H5C5.53043 7 6.03914 6.78929 6.41421 6.41421C6.78929 6.03914 7 5.53043 7 5V2C7 1.46957 6.78929 0.960859 6.41421 0.585786C6.03914 0.210714 5.53043 0 5 0H2ZM5 1H2C1.73478 1 1.48043 1.10536 1.29289 1.29289C1.10536 1.48043 1 1.73478 1 2V5C1 5.26522 1.10536 5.51957 1.29289 5.70711C1.48043 5.89464 1.73478 6 2 6H5C5.26522 6 5.51957 5.89464 5.70711 5.70711C5.89464 5.51957 6 5.26522 6 5V2C6 1.73478 5.89464 1.48043 5.70711 1.29289C5.51957 1.10536 5.26522 1 5 1ZM2 9C1.46957 9 0.960859 9.21071 0.585786 9.58579C0.210714 9.96086 0 10.4696 0 11V14C0 14.5304 0.210714 15.0391 0.585786 15.4142C0.960859 15.7893 1.46957 16 2 16H5C5.53043 16 6.03914 15.7893 6.41421 15.4142C6.78929 15.0391 7 14.5304 7 14V11C7 10.4696 6.78929 9.96086 6.41421 9.58579C6.03914 9.21071 5.53043 9 5 9H2ZM5 10H2C1.73478 10 1.48043 10.1054 1.29289 10.2929C1.10536 10.4804 1 10.7348 1 11V14C1 14.2652 1.10536 14.5196 1.29289 14.7071C1.48043 14.8946 1.73478 15 2 15H5C5.26522 15 5.51957 14.8946 5.70711 14.7071C5.89464 14.5196 6 14.2652 6 14V11C6 10.7348 5.89464 10.4804 5.70711 10.2929C5.51957 10.1054 5.26522 10 5 10ZM9 2C9 1.46957 9.21071 0.960859 9.58579 0.585786C9.96086 0.210714 10.4696 0 11 0H14C14.5304 0 15.0391 0.210714 15.4142 0.585786C15.7893 0.960859 16 1.46957 16 2V5C16 5.53043 15.7893 6.03914 15.4142 6.41421C15.0391 6.78929 14.5304 7 14 7H11C10.4696 7 9.96086 6.78929 9.58579 6.41421C9.21071 6.03914 9 5.53043 9 5V2ZM11 1H14C14.2652 1 14.5196 1.10536 14.7071 1.29289C14.8946 1.48043 15 1.73478 15 2V5C15 5.26522 14.8946 5.51957 14.7071 5.70711C14.5196 5.89464 14.2652 6 14 6H11C10.7348 6 10.4804 5.89464 10.2929 5.70711C10.1054 5.51957 10 5.26522 10 5V2C10 1.73478 10.1054 1.48043 10.2929 1.29289C10.4804 1.10536 10.7348 1 11 1Z" fill="var(--fill-0, white)"/></symbol><symbol id="i-d9e5841b-7843-433f-a91b-474b7f8a0969" viewBox="0 0 9.54956 6.49802"><path id="Vector" d="M9.54956 2.47785C9.01451 1.65468 8.26688 0.991468 7.38578 0.558405C6.50468 0.125342 5.52289 -0.0614628 4.54432 0.0177603C3.56575 0.0969833 2.62679 0.439287 1.82683 1.00844C1.02687 1.5776 0.395659 2.35244 0 3.25096H5.52938V6.49803L9.54956 2.47785Z" fill="var(--fill-0, white)"/></symbol><symbol id="i-d9eff488-7de6-4c70-ba99-b95950c9d184" viewBox="0 0 14 16"><path id="Vector" d="M3 0V5H0V6H4V0H3ZM9 11V7H10V11H14V12H10V16H9V12H5V11H9Z" fill="var(--fill-0, #DBDBDB)"/></symbol><symbol id="i-dadc2e13-e071-4f6f-9ec5-88c7fb354149" viewBox="0 0 16 16"><path id="Vector" fill-rule="evenodd" clip-rule="evenodd" d="M2 0C1.46957 0 0.960859 0.210714 0.585786 0.585786C0.210714 0.960859 0 1.46957 0 2V5C0 5.53043 0.210714 6.03914 0.585786 6.41421C0.960859 6.78929 1.46957 7 2 7H5C5.53043 7 6.03914 6.78929 6.41421 6.41421C6.78929 6.03914 7 5.53043 7 5V2C7 1.46957 6.78929 0.960859 6.41421 0.585786C6.03914 0.210714 5.53043 0 5 0H2ZM5 1H2C1.73478 1 1.48043 1.10536 1.29289 1.29289C1.10536 1.48043 1 1.73478 1 2V5C1 5.26522 1.10536 5.51957 1.29289 5.70711C1.48043 5.89464 1.73478 6 2 6H5C5.26522 6 5.51957 5.89464 5.70711 5.70711C5.89464 5.51957 6 5.26522 6 5V2C6 1.73478 5.89464 1.48043 5.70711 1.29289C5.51957 1.10536 5.26522 1 5 1ZM2 9C1.46957 9 0.960859 9.21071 0.585786 9.58579C0.210714 9.96086 0 10.4696 0 11V14C0 14.5304 0.210714 15.0391 0.585786 15.4142C0.960859 15.7893 1.46957 16 2 16H5C5.53043 16 6.03914 15.7893 6.41421 15.4142C6.78929 15.0391 7 14.5304 7 14V11C7 10.4696 6.78929 9.96086 6.41421 9.58579C6.03914 9.21071 5.53043 9 5 9H2ZM5 10H2C1.73478 10 1.48043 10.1054 1.29289 10.2929C1.10536 10.4804 1 10.7348 1 11V14C1 14.2652 1.10536 14.5196 1.29289 14.7071C1.48043 14.8946 1.73478 15 2 15H5C5.26522 15 5.51957 14.8946 5.70711 14.7071C5.89464 14.5196 6 14.2652 6 14V11C6 10.7348 5.89464 10.4804 5.70711 10.2929C5.51957 10.1054 5.26522 10 5 10ZM9 2C9 1.46957 9.21071 0.960859 9.58579 0.585786C9.96086 0.210714 10.4696 0 11 0H14C14.5304 0 15.0391 0.210714 15.4142 0.585786C15.7893 0.960859 16 1.46957 16 2V5C16 5.53043 15.7893 6.03914 15.4142 6.41421C15.0391 6.78929 14.5304 7 14 7H11C10.4696 7 9.96086 6.78929 9.58579 6.41421C9.21071 6.03914 9 5.53043 9 5V2ZM11 1H14C14.2652 1 14.5196 1.10536 14.7071 1.29289C14.8946 1.48043 15 1.73478 15 2V5C15 5.26522 14.8946 5.51957 14.7071 5.70711C14.5196 5.89464 14.2652 6 14 6H11C10.7348 6 10.4804 5.89464 10.2929 5.70711C10.1054 5.51957 10 5.26522 10 5V2C10 1.73478 10.1054 1.48043 10.2929 1.29289C10.4804 1.10536 10.7348 1 11 1Z" fill="var(--fill-0, #DBDBDB)"/></symbol><symbol id="i-db75606a-e362-4792-b059-bc26e92bd566" viewBox="0 0 10.157 5.586"><path id="Vector" d="M10.157 1.128L9.167 0L5.079 3.591L0.99 0.000999928L0 1.129L5.079 5.586L10.157 1.128Z" fill="var(--fill-0, white)"/></symbol><symbol id="i-dfbfddc7-7297-4861-8d2e-fa75c48203fb" viewBox="0 0 21 18"><path id="Vector" fill-rule="evenodd" clip-rule="evenodd" d="M5 0H16L21 9L16 18H5L0 9L5 0ZM1.14 9L5.6 1H15.42L19.87 9L15.42 17H5.6L1.15 9H1.14Z" fill="var(--fill-0, #DBDBDB)"/></symbol><symbol id="i-e2fdfd85-f5a8-4e14-a351-0034d03e4551" viewBox="0 0 17 11"><path id="Vector" fill-rule="evenodd" clip-rule="evenodd" d="M13 0C12.7348 0 12.4804 0.105357 12.2929 0.292893C12.1054 0.48043 12 0.734784 12 1V5H9V4C9 3.73478 8.89464 3.48043 8.70711 3.29289C8.51957 3.10536 8.26522 3 8 3H5C4.73478 3 4.48043 3.10536 4.29289 3.29289C4.10536 3.48043 4 3.73478 4 4V6H1C0.734784 6 0.48043 6.10536 0.292893 6.29289C0.105357 6.48043 0 6.73478 0 7V11H17V1C17 0.734784 16.8946 0.48043 16.7071 0.292893C16.5196 0.105357 16.2652 0 16 0H13ZM13 10H16V1H13V10ZM12 10V6H9V10H12ZM8 5.5V10H5V4H8V5.5ZM4 10V7H1V10H4Z" fill="var(--fill-0, #DBDBDB)"/></symbol><symbol id="i-e3f48c7b-63be-4d5a-8623-654abe59bfeb" viewBox="0 0 19.6 10.8889"><path id="Vector" d="M11.9778 0V3.26667H19.6V0H11.9778ZM0 7.62222V10.8889H19.6V7.62222H0Z" fill="var(--fill-0, #F8F9FD)"/></symbol><symbol id="i-ec725f13-772a-4f9b-aec3-29ea40f498e7" viewBox="0 0 12 9"><path id="Vector" d="M12 0H0V1H12V0ZM12 4H0V5H12V4ZM0 8H12V9H0V8Z" fill="var(--fill-0, #DBDBDB)"/></symbol><symbol id="i-ec900fc0-d13f-4549-97ea-e682d706e67f" viewBox="0 0 21.9 22.06"><path id="Vector" fill-rule="evenodd" clip-rule="evenodd" d="M1.55 7.82L1.14 7.1L1.11 7.06L1.14 7.02C1.71858 5.97348 2.42023 4.9999 3.23 4.12C4.7 2.52 6.83 1 9.55 1C12.28 1 14.4 2.53 15.88 4.12C16.6862 5.00051 17.3845 5.97406 17.96 7.02L17.99 7.06L17.96 7.1C17.3814 8.14652 16.6798 9.1201 15.87 10C14.4 11.6 12.27 13.12 9.55 13.12C6.82 13.12 4.7 11.59 3.22 10C2.60132 9.3255 2.04567 8.59579 1.56 7.82H1.55ZM19 6.84L18.55 7.06L19 7.28L18.99 7.3C18.943 7.39489 18.8929 7.48827 18.84 7.58C18.223 8.6986 17.4743 9.73934 16.61 10.68C15.05 12.37 12.67 14.12 9.55 14.12C6.43 14.12 4.05 12.37 2.49 10.68C1.55385 9.66099 0.753837 8.52484 0.11 7.3V7.28H0.0999999L0.55 7.06L0.0999999 6.84L0.11 6.82C0.157243 6.72522 0.207265 6.63184 0.26 6.54C0.876912 5.42135 1.62558 4.3806 2.49 3.44C4.05 1.75 6.43 0 9.55 0C12.67 0 15.05 1.75 16.61 3.44C17.5461 4.45908 18.3461 5.59522 18.99 6.82V6.84H19ZM18.55 7.06L19 6.84L19.1 7.06L19 7.28L18.55 7.06ZM0.0999999 6.84L0.55 7.06L0.0999999 7.28L0 7.06L0.0999999 6.84ZM6.9 7.06C6.9052 6.71769 6.97796 6.37979 7.11408 6.06567C7.25021 5.75155 7.44703 5.46741 7.69325 5.22956C7.93947 4.9917 8.23024 4.80481 8.54887 4.67961C8.8675 4.55442 9.20772 4.49338 9.55 4.5C9.89228 4.49338 10.2325 4.55442 10.5511 4.67961C10.8698 4.80481 11.1605 4.9917 11.4067 5.22956C11.653 5.46741 11.8498 5.75155 11.9859 6.06567C12.122 6.37979 12.1948 6.71769 12.2 7.06C12.1948 7.40231 12.122 7.74021 11.9859 8.05433C11.8498 8.36845 11.653 8.65259 11.4067 8.89044C11.1605 9.1283 10.8698 9.31519 10.5511 9.44039C10.2325 9.56558 9.89228 9.62662 9.55 9.62C9.20772 9.62662 8.8675 9.56558 8.54887 9.44039C8.23024 9.31519 7.93947 9.1283 7.69325 8.89044C7.44703 8.65259 7.25021 8.36845 7.11408 8.05433C6.97796 7.74021 6.9052 7.40231 6.9 7.06ZM9.55 3.5C9.0764 3.49339 8.60615 3.58031 8.1662 3.75577C7.72625 3.93123 7.32524 4.19178 6.98617 4.52249C6.64709 4.8532 6.37661 5.24758 6.19023 5.68301C6.00384 6.11845 5.90522 6.58638 5.9 7.06C5.90522 7.53362 6.00384 8.00155 6.19023 8.43699C6.37661 8.87242 6.64709 9.2668 6.98617 9.59751C7.32524 9.92822 7.72625 10.1888 8.1662 10.3642C8.60615 10.5397 9.0764 10.6266 9.55 10.62C11.55 10.62 13.2 9.04 13.2 7.06C13.1948 6.58638 13.0962 6.11845 12.9098 5.68301C12.7234 5.24758 12.4529 4.8532 12.1138 4.52249C11.7748 4.19178 11.3738 3.93123 10.9338 3.75577C10.4939 3.58031 10.0236 3.49339 9.55 3.5ZM17.4 15.5L18.2 14.7L18.9 15.41L18.11 16.21C18.0184 16.3035 17.9671 16.4291 17.9671 16.56C17.9671 16.6909 18.0184 16.8165 18.11 16.91L18.7 17.5C18.9 17.7 19.2 17.7 19.4 17.5L21.2 15.7L21.9 16.41L20.11 18.21C19.8287 18.4909 19.4475 18.6487 19.05 18.6487C18.6525 18.6487 18.2713 18.4909 17.99 18.21L17.4 17.62C17.1191 17.3387 16.9613 16.9575 16.9613 16.56C16.9613 16.1625 17.1191 15.7813 17.4 15.5ZM13.05 18.56L12.7 18.21C12.6744 18.231 12.651 18.2544 12.63 18.28L11.63 19.78L10.63 21.28C10.5789 21.3556 10.5494 21.4438 10.5449 21.5349C10.5403 21.6261 10.5607 21.7167 10.604 21.7971C10.6473 21.8774 10.7117 21.9444 10.7903 21.9908C10.8689 22.0371 10.9587 22.0611 11.05 22.06H15.05C15.7053 22.0401 16.3266 21.7636 16.78 21.29C17.2536 20.8366 17.5301 20.2153 17.55 19.56C17.5301 18.9047 17.2536 18.2834 16.78 17.83C16.3266 17.3564 15.7053 17.0799 15.05 17.06C14.4557 17.091 13.8829 17.2923 13.4 17.64C13.1551 17.8038 12.9243 17.9877 12.71 18.19V18.2H12.7L13.05 18.56ZM13.44 18.88L12.47 20.34L11.98 21.06H15.05C15.39 21.06 15.77 20.89 16.07 20.58C16.37 20.28 16.55 19.9 16.55 19.56C16.55 19.22 16.38 18.84 16.07 18.54C15.77 18.24 15.39 18.06 15.05 18.06C14.7 18.06 14.3 18.24 13.95 18.48C13.7701 18.6002 13.5996 18.7339 13.44 18.88Z" fill="var(--fill-0, #DBDBDB)"/></symbol><symbol id="i-efa9d9f5-48e0-4204-a42d-a52ece5c08e4" viewBox="0 0 23.5 19.6583"><path id="Vector" d="M11.34 0.128278C11.4896 0.0441765 11.6584 0 11.83 0C12.0016 0 12.1704 0.0441765 12.32 0.128278L22.73 6.05828C22.8815 6.14618 23.0073 6.27236 23.0948 6.42416C23.1822 6.57597 23.2282 6.74809 23.2282 6.92328C23.2282 7.09847 23.1822 7.27058 23.0948 7.42239C23.0073 7.5742 22.8815 7.70037 22.73 7.78828L12.33 13.7183C12.1792 13.8042 12.0086 13.8494 11.835 13.8494C11.6614 13.8494 11.4908 13.8042 11.34 13.7183L0.78 7.79828C0.623698 7.7118 0.493415 7.58503 0.402693 7.43115C0.311971 7.27728 0.264123 7.10191 0.264123 6.92328C0.264123 6.74465 0.311971 6.56928 0.402693 6.4154C0.493415 6.26152 0.623698 6.13476 0.78 6.04828L11.34 0.128278ZM11.83 0.998278L1.27 6.92828L11.83 12.8583L22.23 6.92828L11.84 0.998278H11.83ZM23.5 12.8583L11.84 19.6583L0 12.9983L0.5 12.1283L11.83 18.5083L22.99 11.9983L23.49 12.8683L23.5 12.8583Z" fill="var(--fill-0, #DBDBDB)"/></symbol><symbol id="i-f33914e6-8ee1-4559-aabe-24d5ec21b292" viewBox="0 0 18 20"><path id="Vector" d="M11 1H16.3L0 17.3L0.7 18L17 1.7V7H18V0H11V1ZM0.7 2L6.93 8.22L6.23 8.92L0 2.7L0.7 2ZM16.3 19L9.05 11.76L9.75 11.06L17 18.28V13H18V20H11V19H16.3Z" fill="var(--fill-0, #DBDBDB)"/></symbol><symbol id="i-f9ffaf7a-04dc-4756-893f-559b3de4e76c" viewBox="0 0 17.6497 7.75638"><path id="Vector" d="M0.353553 7.40283L5.15355 2.60283C5.34048 2.4196 5.5918 2.31697 5.85355 2.31697C6.11531 2.31697 6.36662 2.4196 6.55355 2.60283L9.25355 5.30283C9.42246 5.47223 9.6465 5.57548 9.88502 5.59383C10.1235 5.61217 10.3607 5.54441 10.5536 5.40283L17.3536 0.402826" stroke="var(--stroke-0, #DBDBDB)"/></symbol><symbol id="i-fb1099c1-d784-4dc0-917d-b5d9b17092e7" viewBox="0 0 21 21.1745"><path id="Vector" d="M14.27 0.734469C14.0378 0.501653 13.7619 0.316939 13.4582 0.190907C13.1544 0.0648743 12.8288 0 12.5 0C12.1712 0 11.8456 0.0648743 11.5418 0.190907C11.2381 0.316939 10.9622 0.501653 10.73 0.734469L10.15 1.32447L1.15 10.3245L0.15 11.3245L0 11.4645V16.1745H4.7L4.85 16.0245L5.85 15.0245L14.85 6.02447L15.44 5.44447C15.6728 5.21224 15.8575 4.93636 15.9836 4.63264C16.1096 4.32891 16.1745 4.00331 16.1745 3.67447C16.1745 3.34563 16.1096 3.02003 15.9836 2.7163C15.8575 2.41258 15.6728 2.1367 15.44 1.90447L14.27 0.734469ZM11.44 1.43447C11.7213 1.15357 12.1025 0.995789 12.5 0.995789C12.8975 0.995789 13.2787 1.15357 13.56 1.43447L14.73 2.61447C15.0109 2.89572 15.1687 3.27697 15.1687 3.67447C15.1687 4.07197 15.0109 4.45322 14.73 4.73447L14.5 4.96447L11.2 1.67447L11.44 1.44447V1.43447ZM10.5 2.38447L13.8 5.67447L5.5 13.9745L2.2 10.6745L10.5 2.37447V2.38447ZM1.5 11.3845L4.8 14.6745L4.3 15.1745H1V11.8745L1.5 11.3745V11.3845ZM18 11.6745C18 11.2766 17.842 10.8951 17.5607 10.6138C17.2794 10.3325 16.8978 10.1745 16.5 10.1745C16.1022 10.1745 15.7206 10.3325 15.4393 10.6138C15.158 10.8951 15 11.2766 15 11.6745V14.1745H19.5C20.33 14.1745 21 14.8445 21 15.6745V19.6745C21 20.5045 20.33 21.1745 19.5 21.1745H13.5C13.1022 21.1745 12.7206 21.0164 12.4393 20.7351C12.158 20.4538 12 20.0723 12 19.6745V15.6745C12 14.8445 12.67 14.1745 13.5 14.1745H14V11.6745C14 11.0114 14.2634 10.3755 14.7322 9.9067C15.2011 9.43786 15.837 9.17447 16.5 9.17447C17.163 9.17447 17.7989 9.43786 18.2678 9.9067C18.7366 10.3755 19 11.0114 19 11.6745V12.1745H18V11.6745ZM13.5 15.1745C13.3674 15.1745 13.2402 15.2271 13.1464 15.3209C13.0527 15.4147 13 15.5419 13 15.6745V19.6745C13 19.9545 13.22 20.1745 13.5 20.1745H19.5C19.6326 20.1745 19.7598 20.1218 19.8536 20.028C19.9473 19.9343 20 19.8071 20 19.6745V15.6745C20 15.5419 19.9473 15.4147 19.8536 15.3209C19.7598 15.2271 19.6326 15.1745 19.5 15.1745H13.5ZM16 19.1745V17.1745H17V19.1745H16Z" fill="var(--fill-0, #DBDBDB)"/></symbol><symbol id="i-fe0f43fe-e039-4572-ac19-5f46ee664c34" viewBox="0 0 13.208 10.354"><path id="Vector" d="M1.915 4.354L4.562 7L3.855 7.708L0 3.854L3.853 0L4.561 0.708L1.915 3.354H7.708C8.43027 3.354 9.14547 3.49626 9.81276 3.77266C10.4801 4.04906 11.0864 4.45419 11.5971 4.96491C12.1078 5.47563 12.5129 6.08195 12.7893 6.74924C13.0657 7.41653 13.208 8.13173 13.208 8.854V10.354H12.208V8.854C12.208 8.26305 12.0916 7.67789 11.8655 7.13192C11.6393 6.58596 11.3078 6.08988 10.89 5.67202C10.4721 5.25416 9.97604 4.92269 9.43007 4.69654C8.88411 4.4704 8.29895 4.354 7.708 4.354H1.915Z" fill="var(--fill-0, #DBDBDB)"/></symbol><symbol id="i-ff08400a-c304-4128-9e8c-dc6003197f9b" viewBox="0 0 8.98969 12.9846"><path id="Vector" d="M5.99484 0.992281V4.99228H7.99484C8.17493 4.99321 8.35142 5.04275 8.50568 5.13567C8.65994 5.22859 8.78624 5.36145 8.87125 5.5202C8.95626 5.67896 8.99683 5.85773 8.98866 6.03763C8.98049 6.21753 8.92389 6.39188 8.82484 6.54228L4.82484 12.5423C4.70568 12.7196 4.53286 12.8541 4.33169 12.9261C4.13053 12.9981 3.9116 13.0037 3.70699 12.9422C3.50237 12.8807 3.32284 12.7553 3.19468 12.5844C3.06653 12.4134 2.99649 12.2059 2.99484 11.9923V7.99228H0.994844C0.814761 7.99135 0.638271 7.94181 0.484011 7.84889C0.329751 7.75597 0.203447 7.62311 0.118435 7.46436C0.0334238 7.3056 -0.00713908 7.12683 0.00102947 6.94693C0.00919802 6.76704 0.0657949 6.59268 0.164844 6.44228L4.16484 0.442281C4.284 0.264942 4.45683 0.130429 4.65799 0.0584526C4.85916 -0.0135233 5.07809 -0.0191778 5.2827 0.0423179C5.48731 0.103814 5.66685 0.229226 5.79501 0.400178C5.92316 0.57113 5.99319 0.778633 5.99484 0.992281ZM3.99484 11.9923L7.99484 5.99228H4.99484V0.992281L0.994844 6.99228H3.99484V11.9923Z" fill="var(--fill-0, #DBDBDB)"/></symbol><symbol id="i-ff58bddb-dcb2-40c8-89a2-a207fe321b0c" viewBox="0 0 9 9"><path id="Vector" fill-rule="evenodd" clip-rule="evenodd" d="M4.5 8C4.95963 8 5.41475 7.90947 5.83939 7.73358C6.26403 7.55769 6.64987 7.29988 6.97487 6.97487C7.29988 6.64987 7.55769 6.26403 7.73358 5.83939C7.90947 5.41475 8 4.95963 8 4.5C8 4.04037 7.90947 3.58525 7.73358 3.16061C7.55769 2.73597 7.29988 2.35013 6.97487 2.02513C6.64987 1.70012 6.26403 1.44231 5.83939 1.26642C5.41475 1.09053 4.95963 1 4.5 1C3.57174 1 2.6815 1.36875 2.02513 2.02513C1.36875 2.6815 1 3.57174 1 4.5C1 5.42826 1.36875 6.3185 2.02513 6.97487C2.6815 7.63125 3.57174 8 4.5 8ZM4.5 9C5.69347 9 6.83807 8.52589 7.68198 7.68198C8.52589 6.83807 9 5.69347 9 4.5C9 3.30653 8.52589 2.16193 7.68198 1.31802C6.83807 0.474106 5.69347 0 4.5 0C3.30653 0 2.16193 0.474106 1.31802 1.31802C0.474106 2.16193 0 3.30653 0 4.5C0 5.69347 0.474106 6.83807 1.31802 7.68198C2.16193 8.52589 3.30653 9 4.5 9Z" fill="var(--fill-0, #DBDBDB)"/></symbol></svg>