<svg preserveAspectRatio="none" width="100%" height="100%" overflow="visible" style="display: block;" viewBox="0 0 5 14" fill="none" xmlns="http://www.w3.org/2000/svg">
<path id="Vector" d="M1 1V13H4V1H1ZM0.5 0H4.5C4.63261 0 4.75979 0.0526785 4.85355 0.146447C4.94732 0.240215 5 0.367392 5 0.5V13.5C5 13.6326 4.94732 13.7598 4.85355 13.8536C4.75979 13.9473 4.63261 14 4.5 14H0.5C0.367392 14 0.240214 13.9473 0.146446 13.8536C0.052678 13.7598 0 13.6326 0 13.5V0.5C0 0.367392 0.052678 0.240215 0.146446 0.146447C0.240214 0.0526785 0.367392 0 0.5 0Z" fill="var(--fill-0, #DBDBDB)"/>
</svg>
