<svg preserveAspectRatio="none" width="100%" height="100%" overflow="visible" style="display: block;" viewBox="0 0 16 19" fill="none" xmlns="http://www.w3.org/2000/svg">
<path id="Vector" fill-rule="evenodd" clip-rule="evenodd" d="M8 1C7.20435 1 6.44129 1.31607 5.87868 1.87868C5.31607 2.44129 5 3.20435 5 4V7H13.5C14.163 7 14.7989 7.26339 15.2678 7.73223C15.7366 8.20107 16 8.83696 16 9.5V16.5C16 16.8283 15.9353 17.1534 15.8097 17.4567C15.6841 17.76 15.4999 18.0356 15.2678 18.2678C15.0356 18.4999 14.76 18.6841 14.4567 18.8097C14.1534 18.9353 13.8283 19 13.5 19H2.5C2.1717 19 1.84661 18.9353 1.54329 18.8097C1.23998 18.6841 0.96438 18.4999 0.732233 18.2678C0.500087 18.0356 0.315938 17.76 0.190301 17.4567C0.0646642 17.1534 0 16.8283 0 16.5V9.5C0 8.83696 0.263392 8.20107 0.732233 7.73223C1.20107 7.26339 1.83696 7 2.5 7H4V4C4 2.93913 4.42143 1.92172 5.17157 1.17157C5.92172 0.421427 6.93913 0 8 0C9.06087 0 10.0783 0.421427 10.8284 1.17157C11.5786 1.92172 12 2.93913 12 4H11C11 3.20435 10.6839 2.44129 10.1213 1.87868C9.55871 1.31607 8.79565 1 8 1ZM7 12C7 11.7348 7.10536 11.4804 7.29289 11.2929C7.48043 11.1054 7.73478 11 8 11C8.26522 11 8.51957 11.1054 8.70711 11.2929C8.89464 11.4804 9 11.7348 9 12V14C9 14.2652 8.89464 14.5196 8.70711 14.7071C8.51957 14.8946 8.26522 15 8 15C7.73478 15 7.48043 14.8946 7.29289 14.7071C7.10536 14.5196 7 14.2652 7 14V12ZM1 9.5C1 8.67 1.67 8 2.5 8H13.5C14.33 8 15 8.67 15 9.5V16.5C15 17.33 14.33 18 13.5 18H2.5C2.10218 18 1.72064 17.842 1.43934 17.5607C1.15804 17.2794 1 16.8978 1 16.5V9.5Z" fill="var(--fill-0, #DBDBDB)"/>
</svg>
