<svg preserveAspectRatio="none" width="100%" height="100%" overflow="visible" style="display: block;" viewBox="0 0 19 18.35" fill="none" xmlns="http://www.w3.org/2000/svg">
<path id="Vector" fill-rule="evenodd" clip-rule="evenodd" d="M7 0H6V2H3.5C2.83696 2 2.20107 2.26339 1.73223 2.73223C1.26339 3.20107 1 3.83696 1 4.5V9H2V7H18V15.5C18 16.33 17.33 17 16.5 17H10V18H16.5C17.163 18 17.7989 17.7366 18.2678 17.2678C18.7366 16.7989 19 16.163 19 15.5V4.5C19 3.83696 18.7366 3.20107 18.2678 2.73223C17.7989 2.26339 17.163 2 16.5 2H14V0H13V2H7V0ZM13 4V3H7V4H6V3H3.5C2.67 3 2 3.67 2 4.5V6H18V4.5C18 3.67 17.33 3 16.5 3H14V4H13ZM7.85 14.15L4.35 10.65L3.65 11.35L6.29 14H0V15H6.3L3.65 17.65L4.35 18.35L7.85 14.85L8.21 14.5L7.85 14.15Z" fill="var(--fill-0, #DBDBDB)"/>
</svg>
