<svg preserveAspectRatio="none" width="100%" height="100%" overflow="visible" style="display: block;" viewBox="0 0 16 16" fill="none" xmlns="http://www.w3.org/2000/svg">
<path id="Vector" d="M1 12.5C1 13.163 1.26339 13.7989 1.73223 14.2678C2.20107 14.7366 2.83696 15 3.5 15H6V16H3.5C2.57174 16 1.6815 15.6313 1.02513 14.9749C0.368749 14.3185 0 13.4283 0 12.5V10H1V12.5ZM16 12.5C16 13.4283 15.6313 14.3185 14.9749 14.9749C14.3185 15.6313 13.4283 16 12.5 16H10V15H12.5C13.163 15 13.7989 14.7366 14.2678 14.2678C14.7366 13.7989 15 13.163 15 12.5V10H16V12.5ZM6 1H3.5C2.83696 1 2.20107 1.26339 1.73223 1.73223C1.26339 2.20107 1 2.83696 1 3.5V6H0V3.5C0 2.57174 0.368749 1.6815 1.02513 1.02513C1.6815 0.368749 2.57174 0 3.5 0H6V1ZM12.5 0C13.4283 0 14.3185 0.368749 14.9749 1.02513C15.6313 1.6815 16 2.57174 16 3.5V6H15V3.5C15 2.83696 14.7366 2.20107 14.2678 1.73223C13.7989 1.26339 13.163 1 12.5 1H10V0H12.5Z" fill="var(--fill-0, #DBDBDB)"/>
</svg>
