<svg preserveAspectRatio="none" width="100%" height="100%" overflow="visible" style="display: block;" viewBox="0 0 23 22" fill="none" xmlns="http://www.w3.org/2000/svg">
<g id="Group">
<path id="Vector" d="M17.449 5.505L19.552 14.617L20.526 14.392L18.423 5.28L17.449 5.505ZM10.943 11.011L18.574 15.867L19.111 15.023L11.48 10.167L10.943 11.011ZM11.379 8.716L16.191 5.107L15.591 4.307L10.779 7.916L11.379 8.716ZM7.96 10.828L3.239 17.572L4.058 18.145L8.779 11.401L7.96 10.828ZM3.331 17.67L5.641 4.582L4.656 4.408L2.346 17.496L3.331 17.67ZM6.041 4.454L8.036 7.946L8.904 7.45L6.909 3.958L6.041 4.454Z" fill="var(--fill-0, #DBDBDB)"/>
<path id="Vector_2" d="M5.5 4C6.328 4 7 3.328 7 2.5C7 1.672 6.328 1 5.5 1C4.672 1 4 1.672 4 2.5C4 3.328 4.672 4 5.5 4ZM5.5 5C4.119 5 3 3.881 3 2.5C3 1.119 4.119 0 5.5 0C6.881 0 8 1.119 8 2.5C8 3.881 6.881 5 5.5 5ZM2.5 21C3.328 21 4 20.328 4 19.5C4 18.672 3.328 18 2.5 18C1.672 18 1 18.672 1 19.5C1 20.328 1.672 21 2.5 21ZM2.5 22C1.119 22 0 20.881 0 19.5C0 18.119 1.119 17 2.5 17C3.881 17 5 18.119 5 19.5C5 20.881 3.881 22 2.5 22ZM9.5 11C10.328 11 11 10.328 11 9.5C11 8.672 10.328 8 9.5 8C8.672 8 8 8.672 8 9.5C8 10.328 8.672 11 9.5 11ZM9.5 12C8.119 12 7 10.881 7 9.5C7 8.119 8.119 7 9.5 7C10.881 7 12 8.119 12 9.5C12 10.881 10.881 12 9.5 12ZM17.5 5C18.328 5 19 4.328 19 3.5C19 2.672 18.328 2 17.5 2C16.672 2 16 2.672 16 3.5C16 4.328 16.672 5 17.5 5ZM17.5 6C16.119 6 15 4.881 15 3.5C15 2.119 16.119 1 17.5 1C18.881 1 20 2.119 20 3.5C20 4.881 18.881 6 17.5 6ZM20.5 18C21.328 18 22 17.328 22 16.5C22 15.672 21.328 15 20.5 15C19.672 15 19 15.672 19 16.5C19 17.328 19.672 18 20.5 18ZM20.5 19C19.119 19 18 17.881 18 16.5C18 15.119 19.119 14 20.5 14C21.881 14 23 15.119 23 16.5C23 17.881 21.881 19 20.5 19Z" fill="var(--fill-0, #DBDBDB)"/>
</g>
</svg>
