<svg preserveAspectRatio="none" width="100%" height="100%" overflow="visible" style="display: block;" viewBox="0 0 9 9" fill="none" xmlns="http://www.w3.org/2000/svg">
<path id="Vector" fill-rule="evenodd" clip-rule="evenodd" d="M4.5 8C4.95963 8 5.41475 7.90947 5.83939 7.73358C6.26403 7.55769 6.64987 7.29988 6.97487 6.97487C7.29988 6.64987 7.55769 6.26403 7.73358 5.83939C7.90947 5.41475 8 4.95963 8 4.5C8 4.04037 7.90947 3.58525 7.73358 3.16061C7.55769 2.73597 7.29988 2.35013 6.97487 2.02513C6.64987 1.70012 6.26403 1.44231 5.83939 1.26642C5.41475 1.09053 4.95963 1 4.5 1C3.57174 1 2.6815 1.36875 2.02513 2.02513C1.36875 2.6815 1 3.57174 1 4.5C1 5.42826 1.36875 6.3185 2.02513 6.97487C2.6815 7.63125 3.57174 8 4.5 8ZM4.5 9C5.69347 9 6.83807 8.52589 7.68198 7.68198C8.52589 6.83807 9 5.69347 9 4.5C9 3.30653 8.52589 2.16193 7.68198 1.31802C6.83807 0.474106 5.69347 0 4.5 0C3.30653 0 2.16193 0.474106 1.31802 1.31802C0.474106 2.16193 0 3.30653 0 4.5C0 5.69347 0.474106 6.83807 1.31802 7.68198C2.16193 8.52589 3.30653 9 4.5 9Z" fill="var(--fill-0, #DBDBDB)"/>
</svg>
