<svg preserveAspectRatio="none" width="100%" height="100%" overflow="visible" style="display: block;" viewBox="0 0 28 28" fill="none" xmlns="http://www.w3.org/2000/svg">
<g id="Group">
<path id="Vector" fill-rule="evenodd" clip-rule="evenodd" d="M14 0C12.1615 -2.73959e-08 10.341 0.36212 8.64243 1.06569C6.94387 1.76925 5.40053 2.80048 4.1005 4.1005C2.80048 5.40053 1.76925 6.94387 1.06569 8.64243C0.36212 10.341 0 12.1615 0 14C0 15.8385 0.36212 17.659 1.06569 19.3576C1.76925 21.0561 2.80048 22.5995 4.1005 23.8995C5.40053 25.1995 6.94387 26.2307 8.64243 26.9343C10.341 27.6379 12.1615 28 14 28C17.713 28 21.274 26.525 23.8995 23.8995C26.525 21.274 28 17.713 28 14C28 10.287 26.525 6.72601 23.8995 4.1005C21.274 1.475 17.713 5.53285e-08 14 0ZM1 14C1.00038 11.4484 1.75165 8.95332 3.16019 6.82571C4.56872 4.69811 6.57223 3.03205 8.92104 2.03516C11.2698 1.03828 13.8601 0.754652 16.369 1.21963C18.8779 1.6846 21.1944 2.87762 23.03 4.65L19.5 8.2C17.9912 6.7704 15.9852 5.98415 13.9068 6.00773C11.8284 6.03132 9.84082 6.8629 8.36485 8.32638C6.88888 9.78986 6.04044 11.7703 5.99919 13.8484C5.95794 15.9266 6.72712 17.9391 8.14384 19.46C9.56057 20.9809 11.5136 21.8907 13.5894 21.9968C15.6653 22.1029 17.7009 21.3968 19.2652 20.0282C20.8296 18.6596 21.7998 16.7359 21.9706 14.6644C22.1413 12.5929 21.4991 10.5363 20.18 8.93L23.73 5.38C25.1258 6.95532 26.1183 8.846 26.6221 10.8896C27.1259 12.9331 27.126 15.0684 26.6223 17.112C26.1187 19.1556 25.1264 21.0464 23.7307 22.6218C22.335 24.1973 20.5777 25.4103 18.6097 26.1566C16.6417 26.9029 14.522 27.1602 12.4326 26.9065C10.3432 26.6527 8.34665 25.8954 6.61454 24.6997C4.88244 23.504 3.46657 21.9055 2.48859 20.0418C1.51062 18.1781 0.999787 16.1047 1 14ZM18.79 8.9C17.4706 7.65655 15.7203 6.9735 13.9074 6.99463C12.0945 7.01577 10.3606 7.73943 9.07056 9.0133C7.78053 10.2872 7.03506 12.0119 6.99107 13.8243C6.94708 15.6368 7.608 17.3956 8.83471 18.7305C10.0614 20.0655 11.7582 20.8724 13.5679 20.9815C15.3776 21.0905 17.1591 20.4932 18.5372 19.3152C19.9154 18.1373 20.7827 16.4705 20.9567 14.6659C21.1307 12.8613 20.5977 11.0596 19.47 9.64L15.85 13.24C15.9748 13.5438 16.0229 13.8736 15.99 14.2004C15.9571 14.5271 15.8442 14.8408 15.6613 15.1136C15.4785 15.3864 15.2313 15.6099 14.9415 15.7645C14.6518 15.9191 14.3284 16 14 16C13.6803 16.0002 13.3651 15.9238 13.081 15.7772C12.7969 15.6305 12.5521 15.4179 12.3671 15.1571C12.1822 14.8963 12.0624 14.595 12.0179 14.2784C11.9734 13.9618 12.0055 13.6391 12.1114 13.3374C12.2173 13.0357 12.394 12.7639 12.6267 12.5446C12.8594 12.3253 13.1412 12.165 13.4486 12.0771C13.756 11.9892 14.08 11.9762 14.3935 12.0394C14.7069 12.1025 15.0006 12.2399 15.25 12.44L18.79 8.9Z" fill="var(--fill-0, #DBDBDB)"/>
</g>
</svg>
