<svg preserveAspectRatio="none" width="100%" height="100%" overflow="visible" style="display: block;" viewBox="0 0 21 17" fill="none" xmlns="http://www.w3.org/2000/svg">
<path id="Vector" fill-rule="evenodd" clip-rule="evenodd" d="M8.118 1C8.02522 1 7.93427 1.02582 7.85533 1.07456C7.77639 1.12331 7.71256 1.19305 7.671 1.276L6.809 3H2.5C2.10218 3 1.72064 3.15804 1.43934 3.43934C1.15804 3.72064 1 4.10218 1 4.5V14.5C1 14.8978 1.15804 15.2794 1.43934 15.5607C1.72064 15.842 2.10218 16 2.5 16H18.5C18.8978 16 19.2794 15.842 19.5607 15.5607C19.842 15.2794 20 14.8978 20 14.5V4.5C20 4.10218 19.842 3.72064 19.5607 3.43934C19.2794 3.15804 18.8978 3 18.5 3H14.191L13.329 1.276C13.2874 1.19305 13.2236 1.12331 13.1447 1.07456C13.0657 1.02582 12.9748 1 12.882 1H8.118ZM6.776 0.83C6.90049 0.580633 7.092 0.370884 7.32904 0.224278C7.56608 0.0776728 7.83928 9.41502e-06 8.118 0H12.882C13.1607 9.41502e-06 13.4339 0.0776728 13.671 0.224278C13.908 0.370884 14.0995 0.580633 14.224 0.83L14.809 2H18.5C18.8283 2 19.1534 2.06466 19.4567 2.1903C19.76 2.31594 20.0356 2.50009 20.2678 2.73223C20.4999 2.96438 20.6841 3.23998 20.8097 3.54329C20.9353 3.84661 21 4.1717 21 4.5V14.5C21 14.8283 20.9353 15.1534 20.8097 15.4567C20.6841 15.76 20.4999 16.0356 20.2678 16.2678C20.0356 16.4999 19.76 16.6841 19.4567 16.8097C19.1534 16.9353 18.8283 17 18.5 17H2.5C1.83696 17 1.20107 16.7366 0.732233 16.2678C0.263392 15.7989 0 15.163 0 14.5V4.5C0 3.83696 0.263392 3.20107 0.732233 2.73223C1.20107 2.26339 1.83696 2 2.5 2H6.191L6.776 0.83Z" fill="var(--fill-0, #DBDBDB)"/>
</svg>
