<svg preserveAspectRatio="none" width="100%" height="100%" overflow="visible" style="display: block;" viewBox="0 0 16 16" fill="none" xmlns="http://www.w3.org/2000/svg">
<path id="Vector" fill-rule="evenodd" clip-rule="evenodd" d="M8 16C10.1217 16 12.1566 15.1571 13.6569 13.6569C15.1571 12.1566 16 10.1217 16 8C16 5.87827 15.1571 3.84344 13.6569 2.34315C12.1566 0.842855 10.1217 0 8 0C5.87827 0 3.84344 0.842855 2.34315 2.34315C0.842855 3.84344 0 5.87827 0 8C0 10.1217 0.842855 12.1566 2.34315 13.6569C3.84344 15.1571 5.87827 16 8 16ZM7 12C7 12.2652 7.10536 12.5196 7.29289 12.7071C7.48043 12.8946 7.73478 13 8 13C8.26522 13 8.51957 12.8946 8.70711 12.7071C8.89464 12.5196 9 12.2652 9 12C9 11.7348 8.89464 11.4804 8.70711 11.2929C8.51957 11.1054 8.26522 11 8 11C7.73478 11 7.48043 11.1054 7.29289 11.2929C7.10536 11.4804 7 11.7348 7 12ZM9.83 8.48C9.34 8.91 8.86 9.33 8.77 10H7.26C7.34 8.82 8 8.31 8.58 7.87C9.07 7.49 9.5 7.16 9.5 6.5C9.5 5.67 8.82 5 8 5C7.18 5 6.5 5.67 6.5 6.5V7H5V6.5C5 5.70435 5.31607 4.94129 5.87868 4.37868C6.44129 3.81607 7.20435 3.5 8 3.5C8.79565 3.5 9.55871 3.81607 10.1213 4.37868C10.6839 4.94129 11 5.70435 11 6.5C11 7.46 10.4 7.98 9.83 8.48Z" fill="var(--fill-0, #575757)"/>
</svg>
