<svg preserveAspectRatio="none" width="100%" height="100%" overflow="visible" style="display: block;" viewBox="0 0 19 17" fill="none" xmlns="http://www.w3.org/2000/svg">
<path id="Vector" d="M2.5 1C1.67 1 1 1.67 1 2.5V14.5C1 15.33 1.67 16 2.5 16H16.5C17.33 16 18 15.33 18 14.5V2.5C18 1.67 17.33 1 16.5 1H2.5ZM0 2.5C0 1.83696 0.263392 1.20107 0.732233 0.732233C1.20107 0.263392 1.83696 0 2.5 0L16.5 0C17.163 0 17.7989 0.263392 18.2678 0.732233C18.7366 1.20107 19 1.83696 19 2.5V14.5C19 15.163 18.7366 15.7989 18.2678 16.2678C17.7989 16.7366 17.163 17 16.5 17H2.5C1.83696 17 1.20107 16.7366 0.732233 16.2678C0.263392 15.7989 0 15.163 0 14.5L0 2.5Z" fill="var(--fill-0, #DBDBDB)"/>
</svg>
