<svg preserveAspectRatio="none" width="100%" height="100%" overflow="visible" style="display: block;" viewBox="0 0 21.9995 21" fill="none" xmlns="http://www.w3.org/2000/svg">
<path id="Vector" d="M2.49949 16C3.69949 16 4.71949 16.86 4.94949 18H21.9995V19H4.94949C4.85489 19.4635 4.63074 19.8906 4.30309 20.2317C3.97544 20.5729 3.55772 20.8141 3.09846 20.9273C2.6392 21.0405 2.15724 21.0212 1.70855 20.8714C1.25987 20.7217 0.862869 20.4477 0.563671 20.0813C0.264473 19.715 0.0753509 19.2712 0.0182707 18.8017C-0.0388095 18.3321 0.0384944 17.856 0.241204 17.4286C0.443914 17.0013 0.763711 16.6402 1.16345 16.3873C1.56319 16.1344 2.02648 16.0001 2.49949 16ZM2.49949 17C2.10167 17 1.72014 17.158 1.43883 17.4393C1.15753 17.7206 0.999491 18.1022 0.999491 18.5C0.999491 18.8978 1.15753 19.2794 1.43883 19.5607C1.72014 19.842 2.10167 20 2.49949 20C2.89732 20 3.27885 19.842 3.56015 19.5607C3.84146 19.2794 3.99949 18.8978 3.99949 18.5C3.99949 18.1022 3.84146 17.7206 3.56015 17.4393C3.27885 17.158 2.89732 17 2.49949 17ZM21.9995 14H1.99949V13H21.9995V14ZM10.9995 10H13.9995V11H9.99949V5H10.9995V10ZM2.49949 0C3.69949 0 4.71949 0.86 4.94949 2H21.9995V3H4.94949C4.85489 3.46346 4.63074 3.89057 4.30309 4.23172C3.97544 4.57288 3.55772 4.81408 3.09846 4.92731C2.6392 5.04054 2.15724 5.02116 1.70855 4.87141C1.25987 4.72167 0.862869 4.4477 0.563671 4.08134C0.264473 3.71497 0.0753509 3.27124 0.0182707 2.80168C-0.0388095 2.33212 0.0384944 1.85601 0.241204 1.42863C0.443914 1.00125 0.763711 0.640151 1.16345 0.387268C1.56319 0.134385 2.02648 9.65457e-05 2.49949 0ZM2.49949 1C2.10167 1 1.72014 1.15804 1.43883 1.43934C1.15753 1.72064 0.999491 2.10218 0.999491 2.5C0.999491 2.89782 1.15753 3.27936 1.43883 3.56066C1.72014 3.84196 2.10167 4 2.49949 4C2.89732 4 3.27885 3.84196 3.56015 3.56066C3.84146 3.27936 3.99949 2.89782 3.99949 2.5C3.99949 2.10218 3.84146 1.72064 3.56015 1.43934C3.27885 1.15804 2.89732 1 2.49949 1Z" fill="var(--fill-0, #DBDBDB)"/>
</svg>
