<svg preserveAspectRatio="none" width="100%" height="100%" overflow="visible" style="display: block;" viewBox="0 0 12.0658 12" fill="none" xmlns="http://www.w3.org/2000/svg">
<path id="Vector" d="M11.57 0H1C0.734784 0 0.48043 0.105357 0.292893 0.292893C0.105357 0.48043 0 0.734784 0 1L0 11C0 11.2652 0.105357 11.5196 0.292893 11.7071C0.48043 11.8946 0.734784 12 1 12H11.57C11.6604 11.9992 11.7489 11.974 11.8261 11.9269C11.9033 11.8798 11.9663 11.8127 12.0083 11.7327C12.0504 11.6526 12.07 11.5627 12.065 11.4724C12.06 11.3821 12.0306 11.2949 11.98 11.22L8.68 6.28C8.62411 6.19732 8.59425 6.0998 8.59425 6C8.59425 5.9002 8.62411 5.80268 8.68 5.72L11.98 0.78C12.0306 0.705096 12.06 0.617863 12.065 0.527588C12.07 0.437313 12.0504 0.347373 12.0083 0.267343C11.9663 0.187312 11.9033 0.120186 11.8261 0.0731088C11.7489 0.0260317 11.6604 0.000765652 11.57 0Z" fill="var(--fill-0, #636363)"/>
</svg>
