<svg preserveAspectRatio="none" width="100%" height="100%" overflow="visible" style="display: block;" viewBox="0 0 8 8" fill="none" xmlns="http://www.w3.org/2000/svg">
<path id="Vector" fill-rule="evenodd" clip-rule="evenodd" d="M8 4C8 5.06087 7.57857 6.07828 6.82843 6.82843C6.07828 7.57857 5.06087 8 4 8C2.93913 8 1.92172 7.57857 1.17157 6.82843C0.421427 6.07828 0 5.06087 0 4C0 2.93913 0.421427 1.92172 1.17157 1.17157C1.92172 0.421427 2.93913 0 4 0C5.06087 0 6.07828 0.421427 6.82843 1.17157C7.57857 1.92172 8 2.93913 8 4ZM7 4C7 4.39397 6.9224 4.78407 6.77164 5.14805C6.62087 5.51203 6.3999 5.84274 6.12132 6.12132C5.84274 6.3999 5.51203 6.62087 5.14805 6.77164C4.78407 6.9224 4.39397 7 4 7C3.60603 7 3.21593 6.9224 2.85195 6.77164C2.48797 6.62087 2.15726 6.3999 1.87868 6.12132C1.6001 5.84274 1.37913 5.51203 1.22836 5.14805C1.0776 4.78407 1 4.39397 1 4C1 3.20435 1.31607 2.44129 1.87868 1.87868C2.44129 1.31607 3.20435 1 4 1C4.79565 1 5.55871 1.31607 6.12132 1.87868C6.68393 2.44129 7 3.20435 7 4Z" fill="var(--fill-0, #DBDBDB)"/>
</svg>
