<svg xmlns="http://www.w3.org/2000/svg" viewBox="0 0 24 24"><circle cx="12" cy="12" r="12" fill="#f7931a"/><path d="M16.2 10.7c.2-1.3-.8-2-2.2-2.4l.4-1.8-1.1-.3-.4 1.7-.9-.2.4-1.7-1.1-.3-.4 1.8-.7-.2-1.5-.4-.3 1.2s.8.2.8.2c.4.1.5.4.5.6l-.5 2c0 .1 0 .1.1.1l-.6 2.5c0 .1-.2.3-.5.2 0 0-.8-.2-.8-.2l-.6 1.3 1.4.4.8.2-.4 1.8 1.1.3.4-1.8.9.2-.4 1.8 1.1.3.4-1.8c1.9.4 3.4.2 4-1.5.5-1.4 0-2.2-1-2.6.7-.2 1.3-.7 1.4-1.7zm-2.5 3.6c-.3 1.4-2.7.6-3.5.4l.6-2.4c.8.2 3.2.6 2.9 2zm.3-3.6c-.3 1.3-2.3.6-2.9.5l.5-2.2c.7.2 2.7.5 2.4 1.7z" fill="#fff"/></svg>
