<svg preserveAspectRatio="none" width="100%" height="100%" overflow="visible" style="display: block;" viewBox="0 0 20 18.5" fill="none" xmlns="http://www.w3.org/2000/svg">
<path id="Vector" d="M16.04 0L20 4.32L19.26 5L15.3 0.68L16.04 0ZM3.96 0L0 4.32L0.74 5L4.7 0.68L3.96 0ZM16.24 5.83C17.0633 7.06473 17.5018 8.51595 17.5 10V10.5H18.5V10C18.5 8.31886 18.0015 6.67547 17.0675 5.27765C16.1335 3.87983 14.806 2.79037 13.2528 2.14702C11.6996 1.50368 9.99057 1.33535 8.34173 1.66333C6.69289 1.9913 5.17834 2.80085 3.98959 3.98959C2.80085 5.17834 1.9913 6.69289 1.66333 8.34173C1.33535 9.99057 1.50368 11.6996 2.14702 13.2528C2.79037 14.806 3.87983 16.1335 5.27765 17.0675C6.67547 18.0015 8.31886 18.5 10 18.5H10.5V17.5H10C8.7047 17.4989 7.43176 17.1624 6.30515 16.5232C5.17854 15.8841 4.23668 14.964 3.5713 13.8527C2.90593 12.7413 2.53971 11.4766 2.50834 10.1817C2.47696 8.88677 2.78149 7.60579 3.39226 6.46353C4.00303 5.32127 4.89922 4.35667 5.99355 3.66367C7.08787 2.97067 8.34303 2.5729 9.63675 2.5091C10.9305 2.44531 12.2187 2.71766 13.3759 3.29964C14.5331 3.88161 15.5198 4.75337 16.24 5.83Z" fill="var(--fill-0, #DBDBDB)"/>
</svg>
