<svg preserveAspectRatio="none" width="100%" height="100%" overflow="visible" style="display: block;" viewBox="0 0 19.9935 20" fill="none" xmlns="http://www.w3.org/2000/svg">
<path id="Vector" d="M9.1335 18.6193C7.1064 18.405 5.21841 17.4874 3.79755 16.0258C2.3767 14.5642 1.51279 12.6511 1.35591 10.6187C1.19902 8.58637 1.75909 6.56328 2.93879 4.90095C4.1185 3.23862 5.84329 2.0421 7.8135 1.51929C9.201 1.1637 10.6547 1.15538 12.0462 1.49506C13.4377 1.83473 14.7241 2.51195 15.7917 3.46686C16.8593 4.42176 17.6752 5.62495 18.1674 6.97008C18.6595 8.31521 18.8127 9.76087 18.6135 11.1793H19.9335L19.9935 9.63928C19.9196 7.59265 19.2191 5.61805 17.9868 3.98239C16.7544 2.34672 15.0495 1.12888 13.1026 0.493482C11.1557 -0.14192 9.06065 -0.16424 7.10065 0.429538C5.14065 1.02332 3.41022 2.20456 2.14327 3.81359C0.876311 5.42262 0.133927 7.38186 0.0164661 9.42645C-0.100994 11.471 0.412133 13.5024 1.48649 15.2459C2.56084 16.9895 4.14461 18.3611 6.02371 19.1755C7.90282 19.9898 9.98664 20.2075 11.9935 19.7993C13.0643 19.6146 14.0979 19.2565 15.0535 18.7393V18.7193L15.0135 18.6793H10.3335C9.7935 18.6793 9.3935 18.6793 9.1335 18.6393V18.6193Z" fill="var(--fill-0, #06070B)"/>
</svg>
