<svg preserveAspectRatio="none" width="100%" height="100%" overflow="visible" style="display: block;" viewBox="0 0 21.9 22.06" fill="none" xmlns="http://www.w3.org/2000/svg">
<path id="Vector" fill-rule="evenodd" clip-rule="evenodd" d="M1.55 7.82L1.14 7.1L1.11 7.06L1.14 7.02C1.71858 5.97348 2.42023 4.9999 3.23 4.12C4.7 2.52 6.83 1 9.55 1C12.28 1 14.4 2.53 15.88 4.12C16.6862 5.00051 17.3845 5.97406 17.96 7.02L17.99 7.06L17.96 7.1C17.3814 8.14652 16.6798 9.1201 15.87 10C14.4 11.6 12.27 13.12 9.55 13.12C6.82 13.12 4.7 11.59 3.22 10C2.60132 9.3255 2.04567 8.59579 1.56 7.82H1.55ZM19 6.84L18.55 7.06L19 7.28L18.99 7.3C18.943 7.39489 18.8929 7.48827 18.84 7.58C18.223 8.6986 17.4743 9.73934 16.61 10.68C15.05 12.37 12.67 14.12 9.55 14.12C6.43 14.12 4.05 12.37 2.49 10.68C1.55385 9.66099 0.753837 8.52484 0.11 7.3V7.28H0.0999999L0.55 7.06L0.0999999 6.84L0.11 6.82C0.157243 6.72522 0.207265 6.63184 0.26 6.54C0.876912 5.42135 1.62558 4.3806 2.49 3.44C4.05 1.75 6.43 0 9.55 0C12.67 0 15.05 1.75 16.61 3.44C17.5461 4.45908 18.3461 5.59522 18.99 6.82V6.84H19ZM18.55 7.06L19 6.84L19.1 7.06L19 7.28L18.55 7.06ZM0.0999999 6.84L0.55 7.06L0.0999999 7.28L0 7.06L0.0999999 6.84ZM6.9 7.06C6.9052 6.71769 6.97796 6.37979 7.11408 6.06567C7.25021 5.75155 7.44703 5.46741 7.69325 5.22956C7.93947 4.9917 8.23024 4.80481 8.54887 4.67961C8.8675 4.55442 9.20772 4.49338 9.55 4.5C9.89228 4.49338 10.2325 4.55442 10.5511 4.67961C10.8698 4.80481 11.1605 4.9917 11.4067 5.22956C11.653 5.46741 11.8498 5.75155 11.9859 6.06567C12.122 6.37979 12.1948 6.71769 12.2 7.06C12.1948 7.40231 12.122 7.74021 11.9859 8.05433C11.8498 8.36845 11.653 8.65259 11.4067 8.89044C11.1605 9.1283 10.8698 9.31519 10.5511 9.44039C10.2325 9.56558 9.89228 9.62662 9.55 9.62C9.20772 9.62662 8.8675 9.56558 8.54887 9.44039C8.23024 9.31519 7.93947 9.1283 7.69325 8.89044C7.44703 8.65259 7.25021 8.36845 7.11408 8.05433C6.97796 7.74021 6.9052 7.40231 6.9 7.06ZM9.55 3.5C9.0764 3.49339 8.60615 3.58031 8.1662 3.75577C7.72625 3.93123 7.32524 4.19178 6.98617 4.52249C6.64709 4.8532 6.37661 5.24758 6.19023 5.68301C6.00384 6.11845 5.90522 6.58638 5.9 7.06C5.90522 7.53362 6.00384 8.00155 6.19023 8.43699C6.37661 8.87242 6.64709 9.2668 6.98617 9.59751C7.32524 9.92822 7.72625 10.1888 8.1662 10.3642C8.60615 10.5397 9.0764 10.6266 9.55 10.62C11.55 10.62 13.2 9.04 13.2 7.06C13.1948 6.58638 13.0962 6.11845 12.9098 5.68301C12.7234 5.24758 12.4529 4.8532 12.1138 4.52249C11.7748 4.19178 11.3738 3.93123 10.9338 3.75577C10.4939 3.58031 10.0236 3.49339 9.55 3.5ZM17.4 15.5L18.2 14.7L18.9 15.41L18.11 16.21C18.0184 16.3035 17.9671 16.4291 17.9671 16.56C17.9671 16.6909 18.0184 16.8165 18.11 16.91L18.7 17.5C18.9 17.7 19.2 17.7 19.4 17.5L21.2 15.7L21.9 16.41L20.11 18.21C19.8287 18.4909 19.4475 18.6487 19.05 18.6487C18.6525 18.6487 18.2713 18.4909 17.99 18.21L17.4 17.62C17.1191 17.3387 16.9613 16.9575 16.9613 16.56C16.9613 16.1625 17.1191 15.7813 17.4 15.5ZM13.05 18.56L12.7 18.21C12.6744 18.231 12.651 18.2544 12.63 18.28L11.63 19.78L10.63 21.28C10.5789 21.3556 10.5494 21.4438 10.5449 21.5349C10.5403 21.6261 10.5607 21.7167 10.604 21.7971C10.6473 21.8774 10.7117 21.9444 10.7903 21.9908C10.8689 22.0371 10.9587 22.0611 11.05 22.06H15.05C15.7053 22.0401 16.3266 21.7636 16.78 21.29C17.2536 20.8366 17.5301 20.2153 17.55 19.56C17.5301 18.9047 17.2536 18.2834 16.78 17.83C16.3266 17.3564 15.7053 17.0799 15.05 17.06C14.4557 17.091 13.8829 17.2923 13.4 17.64C13.1551 17.8038 12.9243 17.9877 12.71 18.19V18.2H12.7L13.05 18.56ZM13.44 18.88L12.47 20.34L11.98 21.06H15.05C15.39 21.06 15.77 20.89 16.07 20.58C16.37 20.28 16.55 19.9 16.55 19.56C16.55 19.22 16.38 18.84 16.07 18.54C15.77 18.24 15.39 18.06 15.05 18.06C14.7 18.06 14.3 18.24 13.95 18.48C13.7701 18.6002 13.5996 18.7339 13.44 18.88Z" fill="var(--fill-0, #DBDBDB)"/>
</svg>
