<svg preserveAspectRatio="none" width="100%" height="100%" overflow="visible" style="display: block;" viewBox="0 0 23.5 19.6583" fill="none" xmlns="http://www.w3.org/2000/svg">
<path id="Vector" d="M11.34 0.128278C11.4896 0.0441765 11.6584 0 11.83 0C12.0016 0 12.1704 0.0441765 12.32 0.128278L22.73 6.05828C22.8815 6.14618 23.0073 6.27236 23.0948 6.42416C23.1822 6.57597 23.2282 6.74809 23.2282 6.92328C23.2282 7.09847 23.1822 7.27058 23.0948 7.42239C23.0073 7.5742 22.8815 7.70037 22.73 7.78828L12.33 13.7183C12.1792 13.8042 12.0086 13.8494 11.835 13.8494C11.6614 13.8494 11.4908 13.8042 11.34 13.7183L0.78 7.79828C0.623698 7.7118 0.493415 7.58503 0.402693 7.43115C0.311971 7.27728 0.264123 7.10191 0.264123 6.92328C0.264123 6.74465 0.311971 6.56928 0.402693 6.4154C0.493415 6.26152 0.623698 6.13476 0.78 6.04828L11.34 0.128278ZM11.83 0.998278L1.27 6.92828L11.83 12.8583L22.23 6.92828L11.84 0.998278H11.83ZM23.5 12.8583L11.84 19.6583L0 12.9983L0.5 12.1283L11.83 18.5083L22.99 11.9983L23.49 12.8683L23.5 12.8583Z" fill="var(--fill-0, #DBDBDB)"/>
</svg>
