<svg preserveAspectRatio="none" width="100%" height="100%" overflow="visible" style="display: block;" viewBox="0 0 13.208 10.354" fill="none" xmlns="http://www.w3.org/2000/svg">
<path id="Vector" d="M1.915 4.354L4.562 7L3.855 7.708L0 3.854L3.853 0L4.561 0.708L1.915 3.354H7.708C8.43027 3.354 9.14547 3.49626 9.81276 3.77266C10.4801 4.04906 11.0864 4.45419 11.5971 4.96491C12.1078 5.47563 12.5129 6.08195 12.7893 6.74924C13.0657 7.41653 13.208 8.13173 13.208 8.854V10.354H12.208V8.854C12.208 8.26305 12.0916 7.67789 11.8655 7.13192C11.6393 6.58596 11.3078 6.08988 10.89 5.67202C10.4721 5.25416 9.97604 4.92269 9.43007 4.69654C8.88411 4.4704 8.29895 4.354 7.708 4.354H1.915Z" fill="var(--fill-0, #DBDBDB)"/>
</svg>
