<svg preserveAspectRatio="none" width="100%" height="100%" overflow="visible" style="display: block;" viewBox="0 0 8.98969 12.9846" fill="none" xmlns="http://www.w3.org/2000/svg">
<path id="Vector" d="M5.99484 0.992281V4.99228H7.99484C8.17493 4.99321 8.35142 5.04275 8.50568 5.13567C8.65994 5.22859 8.78624 5.36145 8.87125 5.5202C8.95626 5.67896 8.99683 5.85773 8.98866 6.03763C8.98049 6.21753 8.92389 6.39188 8.82484 6.54228L4.82484 12.5423C4.70568 12.7196 4.53286 12.8541 4.33169 12.9261C4.13053 12.9981 3.9116 13.0037 3.70699 12.9422C3.50237 12.8807 3.32284 12.7553 3.19468 12.5844C3.06653 12.4134 2.99649 12.2059 2.99484 11.9923V7.99228H0.994844C0.814761 7.99135 0.638271 7.94181 0.484011 7.84889C0.329751 7.75597 0.203447 7.62311 0.118435 7.46436C0.0334238 7.3056 -0.00713908 7.12683 0.00102947 6.94693C0.00919802 6.76704 0.0657949 6.59268 0.164844 6.44228L4.16484 0.442281C4.284 0.264942 4.45683 0.130429 4.65799 0.0584526C4.85916 -0.0135233 5.07809 -0.0191778 5.2827 0.0423179C5.48731 0.103814 5.66685 0.229226 5.79501 0.400178C5.92316 0.57113 5.99319 0.778633 5.99484 0.992281ZM3.99484 11.9923L7.99484 5.99228H4.99484V0.992281L0.994844 6.99228H3.99484V11.9923Z" fill="var(--fill-0, #DBDBDB)"/>
</svg>
