<svg preserveAspectRatio="none" width="100%" height="100%" overflow="visible" style="display: block;" viewBox="0 0 10 10" fill="none" xmlns="http://www.w3.org/2000/svg">
<path id="Vector" d="M5.013 0.0170002C5.142 0.207 5.438 0.642 5.68 1.207C5.435 1.466 5.193 1.773 5.001 2.119C4.81201 1.78834 4.58368 1.48178 4.321 1.206C4.564 0.642 4.861 0.206 4.989 0.0170002L5.001 0L5.013 0.0170002ZM3.29 0.32C3.48 0.458 3.903 0.765 4.32 1.206C4.18 1.533 4.059 1.901 3.999 2.292C3.7071 2.04528 3.38644 1.83475 3.044 1.665C3.026 2.017 3.04 2.407 3.12 2.792C2.75998 2.65766 2.38485 2.56799 2.003 2.525C1.869 2.08309 1.77988 1.62879 1.737 1.169L1.77 1.179C1.998 1.244 2.5 1.389 3.044 1.665C3.074 1.064 3.199 0.563 3.256 0.334L3.264 0.301L3.29 0.32ZM4.988 9.983C4.72732 9.60908 4.50392 9.21051 4.321 8.793C4.58275 8.51741 4.81069 8.21158 5 7.882C5.192 8.228 5.434 8.533 5.68 8.795C5.437 9.359 5.14 9.795 5.012 9.984L5 10L4.988 9.983ZM2.003 7.475C2.38497 7.43099 2.7601 7.34031 3.12 7.205C3.04 7.595 3.026 7.981 3.044 8.335C3.364 8.174 3.697 7.967 3.999 7.708C4.059 8.098 4.181 8.467 4.321 8.793C3.903 9.234 3.481 9.542 3.29 9.68L3.264 9.699L3.256 9.666C3.199 9.437 3.074 8.936 3.044 8.336C2.482 8.62 1.964 8.766 1.748 8.826L1.738 8.829C1.759 8.615 1.815 8.079 2.003 7.475ZM2.003 7.475C2.109 7.137 2.259 6.777 2.467 6.44C2.08233 6.44627 1.69838 6.40462 1.324 6.316C0.952 6.803 0.718 7.271 0.614 7.478L0.602 7.501L0.629 7.503C0.864 7.518 1.392 7.551 2.003 7.475ZM6.706 9.677C6.514 9.537 6.092 9.232 5.679 8.794C5.819 8.467 5.939 8.097 5.999 7.708C6.301 7.968 6.634 8.174 6.954 8.335C6.974 7.981 6.958 7.595 6.88 7.205C7.254 7.35 7.64 7.432 7.995 7.475C8.177 8.055 8.235 8.57 8.26 8.801L8.263 8.829H8.259C8.044 8.769 7.522 8.623 6.954 8.335C6.924 8.944 6.798 9.45 6.742 9.675L6.736 9.699L6.706 9.677ZM2.467 3.56C2.27079 3.2353 2.11529 2.88769 2.004 2.525C1.393 2.449 0.864 2.482 0.63 2.497L0.603 2.499L0.615 2.521C0.719 2.729 0.953 3.196 1.325 3.681C1.69967 3.59437 2.0825 3.55374 2.467 3.56ZM7.996 7.475C7.88593 7.11186 7.73036 6.76409 7.533 6.44C7.936 6.45 8.326 6.397 8.675 6.316C9.061 6.82 9.299 7.302 9.395 7.499L9.397 7.501L9.372 7.503C9.14 7.517 8.611 7.551 7.996 7.475ZM1.325 3.681C0.709 3.821 0.217 4.037 0.00899982 4.128L0 4.132L0.0380001 4.167C0.217 4.334 0.59 4.68 1.088 5C0.714445 5.24339 0.364277 5.52091 0.0419998 5.829L0 5.868L0.0370002 5.884C0.258 5.979 0.734 6.184 1.324 6.316C1.541 6.035 1.806 5.748 2.12 5.5C1.75707 5.37638 1.41079 5.20844 1.089 5C1.41048 4.79163 1.75642 4.62369 2.119 4.5C1.82184 4.26087 1.55518 3.98515 1.325 3.681ZM7.882 5.5C8.262 5.374 8.609 5.193 8.912 5C9.419 5.323 9.796 5.676 9.97 5.84L10 5.868L9.972 5.88C9.55481 6.067 9.12044 6.21302 8.675 6.316C8.44466 6.01291 8.17838 5.73891 7.882 5.5ZM8.912 5C8.5906 4.7915 8.24464 4.62355 7.882 4.5C8.194 4.252 8.46 3.965 8.675 3.682C9.1304 3.78802 9.57422 3.93875 10 4.132L9.974 4.156C9.64697 4.47011 9.29206 4.75269 8.912 5ZM9.395 2.501C9.1951 2.91744 8.95389 3.31376 8.675 3.682C8.30037 3.59515 7.91651 3.55351 7.532 3.56C7.742 3.221 7.89 2.863 7.996 2.525C8.45275 2.47219 8.91348 2.46281 9.372 2.497L9.397 2.499L9.395 2.501ZM7.996 2.525C7.61484 2.56823 7.2404 2.6579 6.881 2.792C6.959 2.405 6.975 2.017 6.955 1.665C6.635 1.826 6.302 2.033 6 2.292C5.94 1.901 5.82 1.533 5.68 1.207C6.093 0.769 6.515 0.462 6.707 0.323L6.737 0.301L6.743 0.326C6.799 0.55 6.924 1.056 6.955 1.665C7.504 1.387 8.01 1.242 8.237 1.177L8.264 1.169L8.261 1.195C8.21684 1.646 8.12808 2.09152 7.996 2.525Z" fill="var(--fill-0, #168A44)"/>
</svg>
