<svg preserveAspectRatio="none" width="100%" height="100%" overflow="visible" style="display: block;" viewBox="0 0 15.8313 14.1646" fill="none" xmlns="http://www.w3.org/2000/svg">
<path id="Vector" d="M8.22466 0.164637L14.033 7.17297C14.0774 7.22691 14.1099 7.28954 14.1286 7.35683C14.1473 7.42412 14.1517 7.49458 14.1415 7.56366C14.1313 7.63275 14.1067 7.69893 14.0694 7.75795C14.032 7.81696 13.9827 7.8675 13.9247 7.9063L10.3163 10.2563L6.20799 6.71464L2.80799 7.93964C2.35799 8.1063 1.97466 7.57297 2.26633 7.18964L7.48299 0.189637C7.66633 -0.0603628 8.02466 -0.0603628 8.23299 0.172971L8.22466 0.164637ZM13.3913 10.298L15.758 13.548C15.9413 13.8063 15.758 14.1646 15.458 14.1646H0.37466C0.0663262 14.1646 -0.108674 13.8063 0.0746594 13.5563L2.57466 10.1063C2.62055 10.044 2.68459 9.99744 2.75799 9.97297L5.84133 8.92297C5.96633 8.8813 6.09133 8.9063 6.19133 8.97297L9.97466 11.7813C10.0913 11.8646 10.258 11.873 10.3913 11.798L12.8913 10.198C13.058 10.098 13.283 10.1396 13.3913 10.298Z" fill="var(--fill-0, #22AB67)"/>
</svg>
