<svg preserveAspectRatio="none" width="100%" height="100%" overflow="visible" style="display: block;" viewBox="0 0 24.0101 16" fill="none" xmlns="http://www.w3.org/2000/svg">
<path id="Vector" d="M6.4 5.68C6.93581 4.14656 7.98823 2.84719 9.37692 2.00455C10.7656 1.16191 12.4041 0.828448 14.0117 1.06131C15.6193 1.29417 17.0958 2.07886 18.1884 3.28091C19.2809 4.48297 19.9213 6.02755 20 7.65L20.01 8.02L20.37 8.11C21.1954 8.32198 21.9152 8.82784 22.3942 9.53269C22.8732 10.2375 23.0786 11.093 22.9719 11.9385C22.8651 12.784 22.4535 13.5615 21.8143 14.1251C21.1751 14.6888 20.3522 14.9999 19.5 15H5.5C4.88955 15.0057 4.28432 14.8871 3.72116 14.6514C3.158 14.4157 2.64868 14.068 2.22419 13.6292C1.7997 13.1905 1.46892 12.67 1.25198 12.0993C1.03504 11.5287 0.936473 10.9199 0.962283 10.3099C0.988093 9.70001 1.13774 9.1017 1.40211 8.55144C1.66648 8.00117 2.04006 7.51045 2.50009 7.10914C2.96013 6.70783 3.49701 6.40432 4.07807 6.21708C4.65913 6.02984 5.27221 5.96279 5.88 6.02L6.26 6.05L6.39 5.68H6.4ZM13 9.03475e-07C11.4058 -0.000756577 9.8477 0.47481 8.52564 1.36569C7.20358 2.25657 6.17783 3.52213 5.58 5C4.85175 4.99208 4.12913 5.12835 3.45378 5.40096C2.77843 5.67356 2.1637 6.07712 1.64502 6.58837C1.12633 7.09961 0.713944 7.70845 0.431614 8.37979C0.149285 9.05114 0.00259567 9.77171 0 10.5C0 11.9587 0.579463 13.3576 1.61091 14.3891C2.64236 15.4205 4.04131 16 5.5 16H19.5C20.5669 16.0024 21.6 15.6256 22.4149 14.9369C23.2298 14.2481 23.7734 13.2922 23.9488 12.2398C24.1242 11.1874 23.92 10.1069 23.3725 9.19106C22.8251 8.27526 21.97 7.58378 20.96 7.24C20.771 5.2595 19.8508 3.42048 18.379 2.08183C16.9073 0.743174 14.9895 0.000950459 13 9.03475e-07ZM11.35 11.85L16.85 6.35L16.15 5.65L11 10.79L8.85 8.65L8.15 9.35L10.65 11.85L11 12.21L11.35 11.85Z" fill="var(--fill-0, #8C8C8C)"/>
</svg>
