<svg preserveAspectRatio="none" width="100%" height="100%" overflow="visible" style="display: block;" viewBox="0 0 8.35231 4.56041" fill="none" xmlns="http://www.w3.org/2000/svg">
<path id="Vector" d="M0.143493 0.28041C0.383493 0.000409842 0.793493 -0.0195899 1.06349 0.21041L4.14349 2.84041L7.22349 0.21041C7.28564 0.142716 7.36144 0.0889687 7.44588 0.0527158C7.53033 0.0164629 7.6215 -0.00147193 7.71338 9.44365e-05C7.80527 0.0016608 7.89578 0.0226928 7.97893 0.0618029C8.06209 0.100913 8.13602 0.157212 8.19582 0.226985C8.25563 0.296759 8.29996 0.378421 8.32589 0.466584C8.35182 0.554746 8.35876 0.647406 8.34626 0.738448C8.33375 0.829491 8.30209 0.916847 8.25335 0.994753C8.2046 1.07266 8.1399 1.13934 8.06349 1.19041L4.14349 4.56041L0.223493 1.19041C0.0946108 1.07834 0.0150151 0.920051 0.00191601 0.749762C-0.0111831 0.579473 0.0432669 0.410871 0.153493 0.28041H0.143493Z" fill="var(--fill-0, #DBDBDB)"/>
</svg>
