<svg preserveAspectRatio="none" width="100%" height="100%" overflow="visible" style="display: block;" viewBox="0 0 146.083 24.6461" fill="none" xmlns="http://www.w3.org/2000/svg">
<path id="Vector" d="M4.793 19.1701H8.495V4.66507H13.338V1.16607H0V4.66607H4.793V19.1701ZM13.343 19.1701H16.817V13.1101C16.817 11.0051 17.907 9.73707 19.557 9.73707C20.139 9.73707 20.596 9.83807 21.128 10.0161V6.49107C20.7493 6.38156 20.3561 6.3303 19.962 6.33907C18.542 6.33907 17.249 7.27707 16.817 8.51907V6.49207H13.343V19.1701ZM27.796 19.4491C29.546 19.4491 30.864 18.5611 31.448 17.7491V19.1691H34.922V6.49207H31.448V7.91207C30.864 7.10107 29.546 6.21307 27.796 6.21307C24.424 6.21307 21.837 9.25607 21.837 12.8311C21.837 16.4071 24.424 19.4501 27.797 19.4501L27.796 19.4491ZM28.532 16.2791C26.604 16.2791 25.336 14.8341 25.336 12.8311C25.336 10.8271 26.604 9.38107 28.532 9.38107C30.459 9.38107 31.727 10.8271 31.727 12.8311C31.727 14.8341 30.459 16.2791 28.532 16.2791ZM43.193 19.4491C44.943 19.4491 46.261 18.5611 46.844 17.7491V19.1691H50.318V0.153073H46.844V7.91307C46.261 7.10107 44.943 6.21307 43.193 6.21307C39.82 6.21307 37.233 9.25607 37.233 12.8311C37.233 16.4071 39.82 19.4501 43.193 19.4501V19.4491ZM43.928 16.2791C42.001 16.2791 40.733 14.8341 40.733 12.8311C40.733 10.8271 42.001 9.38107 43.928 9.38107C45.855 9.38107 47.123 10.8271 47.123 12.8311C47.123 14.8341 45.855 16.2791 43.928 16.2791ZM55.166 4.55807C55.4576 4.56058 55.7469 4.50542 56.0171 4.39577C56.2873 4.28611 56.5332 4.12413 56.7406 3.91912C56.9481 3.71412 57.1129 3.47014 57.2257 3.20121C57.3385 2.93228 57.3971 2.6437 57.398 2.35207C57.3971 2.06044 57.3385 1.77187 57.2257 1.50294C57.1129 1.23401 56.9481 0.990028 56.7406 0.785024C56.5332 0.58002 56.2873 0.418035 56.0171 0.308381C55.7469 0.198728 55.4576 0.143568 55.166 0.146073C54.5824 0.150778 54.024 0.384706 53.6113 0.797396C53.1986 1.21009 52.9647 1.76846 52.96 2.35207C52.9647 2.93569 53.1986 3.49406 53.6113 3.90675C54.024 4.31944 54.5824 4.55337 55.166 4.55807ZM53.442 19.1701H56.916V6.63607H53.442V19.1701ZM59.998 19.1701H63.472V12.9831C63.472 10.5481 64.664 9.38207 66.287 9.38207C67.732 9.38207 68.519 10.4981 68.519 12.3231V19.1701H71.993V11.7401C71.993 8.44407 70.167 6.21207 67.099 6.21207C65.45 6.21207 64.157 6.92207 63.472 7.93607V6.49107H59.998V19.1701ZM80.833 15.7961C79.083 15.7961 77.613 14.4771 77.613 12.5501C77.613 10.5981 79.083 9.30407 80.833 9.30407C82.583 9.30407 84.053 10.5981 84.053 12.5501C84.053 14.4771 82.583 15.7961 80.833 15.7961ZM80.427 24.6461C84.307 24.6461 87.249 22.6681 87.249 18.1031V6.41407H83.775V7.83407C83.09 6.84607 81.72 6.13607 80.098 6.13607C76.776 6.13607 74.113 8.97607 74.113 12.5511C74.113 16.1011 76.776 18.9411 80.098 18.9411C81.721 18.9411 83.09 18.2061 83.775 17.2681V18.1301C83.775 20.1591 82.431 21.6041 80.377 21.6041C78.957 21.6041 77.537 21.1221 76.421 20.0321L74.519 22.6181C75.964 24.0131 78.221 24.6461 80.427 24.6461ZM94.594 19.1701H97.864L105.32 1.16607H101.263L96.242 13.6671L91.145 1.16607H87.164L94.594 19.1701ZM108.508 4.41207C108.8 4.41445 109.089 4.35919 109.359 4.24948C109.629 4.13976 109.875 3.97776 110.082 3.77277C110.289 3.56778 110.454 3.32384 110.567 3.05498C110.68 2.78611 110.738 2.49762 110.739 2.20607C110.738 1.91453 110.68 1.62603 110.567 1.35717C110.454 1.08831 110.289 0.844371 110.082 0.639381C109.875 0.43439 109.629 0.272384 109.359 0.162671C109.089 0.0529579 108.8 -0.00229951 108.508 7.32994e-05C107.316 7.32994e-05 106.301 0.988073 106.301 2.20607C106.301 3.42307 107.316 4.41207 108.508 4.41207ZM106.783 19.1701H110.257V6.49107H106.783V19.1701ZM119.248 19.4491C121.91 19.4491 123.939 18.3331 125.131 16.6091L122.544 14.6821C121.961 15.5691 120.871 16.2791 119.273 16.2791C117.6 16.2791 116.104 15.3411 115.901 13.6421H125.384C125.46 13.1091 125.435 12.7541 125.435 12.4501C125.435 8.31707 122.519 6.21207 119.197 6.21207C115.343 6.21207 112.528 9.07707 112.528 12.8301C112.528 16.8371 115.47 19.4491 119.248 19.4491ZM116.027 11.2841C116.357 9.73707 117.802 9.07707 119.096 9.07707C120.389 9.07707 121.657 9.76207 121.961 11.2841H116.027ZM138.45 19.1701H141.899L146.083 6.49107H142.355L139.972 14.6051L137.385 6.49107H134.723L132.162 14.6051L129.753 6.49107H126.05L130.26 19.1701H133.708L136.067 11.9681L138.45 19.1701Z" fill="var(--fill-0, white)"/>
</svg>
