<svg preserveAspectRatio="none" width="100%" height="100%" overflow="visible" style="display: block;" viewBox="0 0 28 28" fill="none" xmlns="http://www.w3.org/2000/svg">
<path id="Vector" d="M14 0C21.732 0 28 6.268 28 14C28 21.732 21.732 28 14 28C6.268 28 0 21.732 0 14C0 6.268 6.268 0 14 0ZM14 1C6.82 1 1 6.82 1 14C1 21.18 6.82 27 14 27C21.18 27 27 21.18 27 14C27 6.82 21.18 1 14 1ZM14.201 19.01C14.6928 19.0632 15.1478 19.2954 15.4795 19.6623C15.8113 20.0293 15.9965 20.5054 16 21L15.99 21.204C15.9359 21.6952 15.7033 22.1493 15.3365 22.4804C14.9697 22.8115 14.4941 22.9964 14 23L13.799 22.99C13.3424 22.9401 12.9165 22.736 12.5915 22.4115C12.2665 22.087 12.0617 21.6615 12.011 21.205L12 21C12 19.896 12.917 19 14 19L14.201 19.01ZM14 20C13.463 20 13 20.455 13 21C13 21.545 13.462 22 14 22C14.538 22 15 21.545 15 21C15 20.455 14.538 20 14 20ZM14.31 5C16.9 5 19 7.1 19 9.69C18.9998 10.4541 18.7964 11.2045 18.4107 11.8641C18.025 12.5238 17.4708 13.069 16.805 13.444L15.933 13.936C15.4982 14.1804 15.1363 14.5362 14.8844 14.9668C14.6326 15.3973 14.4999 15.8872 14.5 16.386V17H13.5V16.386C13.5 15.009 14.243 13.739 15.442 13.064L16.314 12.574C16.8258 12.2858 17.2517 11.8666 17.548 11.3594C17.8443 10.8523 18.0003 10.2754 18 9.688C17.9995 8.7097 17.6105 7.77165 16.9185 7.08007C16.2266 6.38849 15.2883 6 14.31 6H14C12.9391 6 11.9217 6.42143 11.1716 7.17157C10.4214 7.92172 10 8.93913 10 10H9C9 8.67392 9.52678 7.40215 10.4645 6.46447C11.4021 5.52678 12.6739 5 14 5H14.31Z" fill="var(--fill-0, #DBDBDB)"/>
</svg>
