<svg preserveAspectRatio="none" width="100%" height="100%" overflow="visible" style="display: block;" viewBox="0 0 24.01 24.71" fill="none" xmlns="http://www.w3.org/2000/svg">
<path id="Vector" fill-rule="evenodd" clip-rule="evenodd" d="M1 3.5C1 2.83696 1.26339 2.20107 1.73223 1.73223C2.20107 1.26339 2.83696 1 3.5 1H16.5C17.163 1 17.7989 1.26339 18.2678 1.73223C18.7366 2.20107 19 2.83696 19 3.5V12.5C19 13.163 18.7366 13.7989 18.2678 14.2678C17.7989 14.7366 17.163 15 16.5 15H4.3L4.15 15.15L1 18.29V3.5ZM3.5 0C2.57174 0 1.6815 0.368749 1.02513 1.02513C0.368749 1.6815 0 2.57174 0 3.5V20.7L0.85 19.85L4.71 16H9V16.5C9 17.4283 9.36875 18.3185 10.0251 18.9749C10.6815 19.6313 11.5717 20 12.5 20H19.3L23.16 23.85L24.01 24.71V11.5C24.01 10.5717 23.6413 9.6815 22.9849 9.02513C22.3285 8.36875 21.4383 8 20.51 8H20V3.5C20 2.57174 19.6313 1.6815 18.9749 1.02513C18.3185 0.368749 17.4283 0 16.5 0H3.5ZM20 9V12.5C20 13.4283 19.6313 14.3185 18.9749 14.9749C18.3185 15.6313 17.4283 16 16.5 16H10V16.5C10 17.163 10.2634 17.7989 10.7322 18.2678C11.2011 18.7366 11.837 19 12.5 19H19.7L19.85 19.15L23 22.29V11.5C23 10.837 22.7366 10.2011 22.2678 9.73223C21.7989 9.26339 21.163 9 20.5 9H20Z" fill="var(--fill-0, #DBDBDB)"/>
</svg>
