<svg preserveAspectRatio="none" width="100%" height="100%" overflow="visible" style="display: block;" viewBox="0 0 10 10.0007" fill="none" xmlns="http://www.w3.org/2000/svg">
<path id="Vector" d="M10 9.00073C10 9.33873 9.981 9.67273 9.945 10.0007H8.938C9.09059 8.79059 8.96446 7.56158 8.56924 6.40767C8.17402 5.25376 7.52018 4.20549 6.65771 3.34302C5.79524 2.48055 4.74697 1.82671 3.59306 1.43149C2.43914 1.03627 1.21014 0.910134 0 1.06273V0.055729C1.25849 -0.0849747 2.53251 0.0414845 3.73879 0.426842C4.94506 0.812199 6.05644 1.44778 7.00027 2.29204C7.94411 3.1363 8.69915 4.17024 9.21606 5.32627C9.73297 6.4823 10.0001 7.7344 10 9.00073Z" fill="var(--fill-0, #DBDBDB)"/>
</svg>
