<svg preserveAspectRatio="none" width="100%" height="100%" overflow="visible" style="display: block;" viewBox="0 0 12 14" fill="none" xmlns="http://www.w3.org/2000/svg">
<path id="Vector" d="M9 2H12V3H10.96L10.08 12.64C10.045 13.0131 9.87168 13.3596 9.59408 13.6113C9.31648 13.863 8.95472 14.0016 8.58 14H3.42C3.04528 14.0016 2.68353 13.863 2.40592 13.6113C2.12832 13.3596 1.95497 13.0131 1.92 12.64L1.05 3H0V2H3V1.5C3 0.67 3.67 0 4.5 0H7.5C8.33 0 9 0.67 9 1.5V2ZM4.5 1C4.36739 1 4.24021 1.05268 4.14645 1.14645C4.05268 1.24021 4 1.36739 4 1.5V2H8V1.5C8 1.36739 7.94732 1.24021 7.85355 1.14645C7.75979 1.05268 7.63261 1 7.5 1H4.5ZM2.05 3L2.92 12.55C2.93244 12.6738 2.99056 12.7884 3.08301 12.8717C3.17547 12.9549 3.29562 13.0006 3.42 13H8.59C8.71438 13.0006 8.83453 12.9549 8.92699 12.8717C9.01944 12.7884 9.07756 12.6738 9.09 12.55L9.94 3H2.04H2.05Z" fill="var(--fill-0, #8C8C8C)"/>
</svg>
