<svg xmlns="http://www.w3.org/2000/svg" viewBox="0 0 1000 500" preserveAspectRatio="xMidYMid meet" class="world-map" role="img" aria-label="Mapa mundial de inflación">
  <rect width="1000" height="500" fill="#000"/>
  <g stroke="#0a0a0a" stroke-width="0.6">
    <!-- North America -->
    <path data-iso="CA" data-rate="2.9" fill="#5c2e02"
      d="M70,90 C90,70 150,60 210,70 C260,75 290,90 305,110 L300,150 C280,170 220,180 180,175 C140,170 100,160 80,140 Z" />
    <path data-iso="US" data-rate="3.8" fill="#b85f08"
      d="M95,160 C140,150 220,155 280,165 L290,210 C260,230 200,240 160,235 C120,228 95,210 90,190 Z" />
    <path data-iso="MX" data-rate="4.45" fill="#cc7710"
      d="M140,240 C180,235 230,240 250,250 L240,285 C215,295 180,295 160,285 C145,275 138,260 140,240 Z" />

    <!-- Central / decorative -->
    <path fill="#2a2a2a"
      d="M250,295 C275,290 295,300 295,315 C295,330 275,340 260,335 Z" />

    <!-- South America -->
    <path data-iso="BR" data-rate="4.29" fill="#cc7710"
      d="M285,310 C320,305 360,315 380,340 C395,365 390,400 370,425 C345,445 310,440 290,420 C275,400 270,370 275,345 Z" />
    <path data-iso="AR" data-rate="32.4" fill="#ff9100"
      d="M285,420 C305,425 325,430 335,450 C340,470 325,485 305,485 C285,485 270,465 270,445 Z" />

    <!-- Europe -->
    <path data-iso="GB" data-rate="2.8" fill="#5c2e02"
      d="M455,115 C465,108 478,112 480,125 C480,138 470,145 460,142 C450,138 448,125 455,115 Z" />
    <path data-iso="FR" data-rate="2.2" fill="#5c2e02"
      d="M475,145 C495,140 510,148 512,165 C510,180 495,188 478,185 C465,180 462,160 475,145 Z" />
    <path data-iso="DE" data-rate="3.6" fill="#b85f08"
      d="M510,135 C530,130 545,138 545,155 C543,170 528,178 512,175 C500,170 500,150 510,135 Z" />
    <path data-iso="IT" data-rate="2.7" fill="#5c2e02"
      d="M520,180 C535,178 545,190 543,205 C538,220 525,225 515,218 C508,208 510,190 520,180 Z" />

    <!-- Russia -->
    <path data-iso="RU" data-rate="5.6" fill="#b85f08"
      d="M545,90 C620,75 720,80 820,95 C870,100 895,115 895,135 C890,155 820,165 740,160 C660,158 580,150 545,140 Z" />

    <!-- Middle East -->
    <path data-iso="SA" data-rate="1.7" fill="#5c2e02"
      d="M555,210 C580,205 605,215 610,235 C608,255 590,265 570,260 C555,255 548,230 555,210 Z" />
    <path data-iso="TR" data-rate="32.37" fill="#ff9100"
      d="M545,175 C575,170 595,180 595,195 C590,208 565,212 548,205 C538,195 538,182 545,175 Z" />

    <!-- Africa -->
    <path fill="#2a2a2a"
      d="M495,210 C530,205 555,225 555,260 C552,295 535,330 510,355 C490,375 470,378 460,365 C450,345 455,320 465,290 C475,260 480,230 495,210 Z" />
    <path data-iso="ZA" data-rate="4" fill="#b85f08"
      d="M490,360 C515,358 530,370 528,388 C522,402 505,408 488,402 C475,395 475,375 490,360 Z" />

    <!-- India -->
    <path data-iso="IN" data-rate="3.48" fill="#5c2e02"
      d="M675,200 C705,195 725,210 728,235 C725,260 710,280 690,285 C670,282 658,260 660,235 C662,218 668,205 675,200 Z" />

    <!-- China -->
    <path data-iso="CN" data-rate="1.2" fill="#5c2e02"
      d="M720,150 C770,140 825,150 850,170 C855,190 830,210 790,215 C745,215 710,200 705,180 C705,165 710,155 720,150 Z" />

    <!-- Korea -->
    <path data-iso="KR" data-rate="2.5" fill="#5c2e02"
      d="M858,180 C870,178 878,188 875,200 C868,210 855,208 852,198 C850,188 853,182 858,180 Z" />

    <!-- Japan -->
    <path data-iso="JP" data-rate="1.4" fill="#5c2e02"
      d="M885,165 C895,160 905,170 902,185 C898,200 888,205 880,198 C875,188 878,172 885,165 Z" />

    <!-- Indonesia -->
    <path data-iso="ID" data-rate="2.43" fill="#5c2e02"
      d="M770,290 C810,285 850,290 855,305 C850,318 810,322 775,318 C755,315 758,298 770,290 Z" />

    <!-- Australia -->
    <path data-iso="AU" data-rate="4.6" fill="#cc7710"
      d="M790,355 C840,345 890,355 905,380 C905,410 870,430 830,428 C790,425 770,405 770,385 C770,370 778,360 790,355 Z" />

    <!-- Greenland (decorative) -->
    <path fill="#2a2a2a"
      d="M340,55 C370,48 400,58 405,75 C400,95 370,105 345,95 C330,85 328,68 340,55 Z" />
  </g>
</svg>
