<svg xmlns="http://www.w3.org/2000/svg" viewBox="0 0 32 32"><rect width="32" height="32" rx="6" fill="#17181f"/><path fill="#f7a600" d="M21.6 18.3v-6.1h1.5v6.1zM6.8 20.8v-9.2h3.85c1.85 0 2.94 1 2.94 2.55 0 1.02-.7 1.67-1.16 1.88.55.23 1.3.82 1.3 2.04 0 1.68-1.18 2.73-3.02 2.73zm1.5-5.36h2.21c.93 0 1.42-.48 1.42-1.18 0-.69-.49-1.17-1.42-1.17H8.3zm0 4.06h2.36c1 0 1.5-.55 1.5-1.3 0-.74-.5-1.3-1.5-1.3H8.3zm9.05-.16-2.75-5.6h1.65l1.86 4.04 1.86-4.04h1.65l-2.76 5.6v3.6h-1.5zm6.93-3.07h2.32c.94 0 1.5.55 1.5 1.3 0 .76-.56 1.3-1.5 1.3h-2.32zm0-3.08h2.16c.93 0 1.43.46 1.43 1.15s-.5 1.15-1.43 1.15h-2.16zm-1.5 7.61h3.86c1.84 0 3.02-1.04 3.02-2.72 0-1.22-.74-1.81-1.3-2.04.46-.21 1.16-.86 1.16-1.88 0-1.56-1.09-2.56-2.94-2.56h-3.8z"/></svg>